<svg width="70" height="70" viewBox="0 0 70 70" fill="none" xmlns="http://www.w3.org/2000/svg">
<path d="M62.8409 41.3637C62.8349 36.0913 60.7379 31.0365 57.0097 27.3084C53.2816 23.5803 48.2269 21.4832 42.9545 21.4773H22.2727C22.0617 21.4773 21.8594 21.5611 21.7102 21.7103C21.561 21.8595 21.4772 22.0618 21.4772 22.2727C21.4772 22.4837 21.561 22.686 21.7102 22.8352C21.8594 22.9844 22.0617 23.0682 22.2727 23.0682H42.9545C47.8067 23.0682 52.4603 24.9958 55.8913 28.4268C59.3224 31.8579 61.2499 36.5114 61.2499 41.3637C61.2499 46.2159 59.3224 50.8694 55.8913 54.3005C52.4603 57.7316 47.8067 59.6591 42.9545 59.6591H21.4772C21.2662 59.6591 21.0639 59.7429 20.9147 59.8921C20.7656 60.0413 20.6818 60.2436 20.6818 60.4546C20.6818 60.6655 20.7656 60.8679 20.9147 61.017C21.0639 61.1662 21.2662 61.25 21.4772 61.25H42.9545C48.2269 61.2441 53.2816 59.147 57.0097 55.4189C60.7379 51.6908 62.8349 46.636 62.8409 41.3637Z" fill="#0F3E84"/>
<path d="M62.9649 26.9795L66.0135 23.925C66.1624 23.7757 66.246 23.5734 66.2458 23.3626C66.2457 23.1517 66.1618 22.9496 66.0127 22.8005L61.5184 18.3062C61.3694 18.1571 61.1673 18.0732 60.9565 18.0731C60.7457 18.0729 60.5435 18.1565 60.3943 18.3054L57.3393 21.3542C54.4739 19.2841 51.1951 17.8576 47.7273 17.1723V11.9318H50.9091C51.3309 11.9314 51.7353 11.7636 52.0335 11.4653C52.3318 11.1671 52.4996 10.7627 52.5 10.3409V5.5682C52.4996 5.14642 52.3318 4.74204 52.0335 4.4438C51.7353 4.14555 51.3309 3.97778 50.9091 3.97729H35C34.5783 3.97778 34.1739 4.14555 33.8756 4.4438C33.5774 4.74204 33.4096 5.14642 33.4091 5.5682V10.3409C33.4096 10.7627 33.5774 11.1671 33.8756 11.4653C34.1739 11.7636 34.5783 11.9314 35 11.9318H38.1819V16.7046H27.0455C26.8345 16.7046 26.6322 16.7884 26.483 16.9376C26.3339 17.0867 26.25 17.2891 26.25 17.5C26.25 17.711 26.3339 17.9133 26.483 18.0625C26.6322 18.2117 26.8345 18.2955 27.0455 18.2955H42.9546C49.0727 18.2955 54.9401 20.7259 59.2663 25.052C63.5924 29.3781 66.0228 35.2456 66.0228 41.3637C66.0228 47.4817 63.5924 53.3492 59.2663 57.6753C54.9401 62.0014 49.0727 64.4318 42.9546 64.4318H26.25C26.0391 64.4318 25.8367 64.5156 25.6876 64.6648C25.5384 64.814 25.4546 65.0163 25.4546 65.2273C25.4546 65.4383 25.5384 65.6406 25.6876 65.7898C25.8367 65.9389 26.0391 66.0228 26.25 66.0228H42.9546C47.4921 66.0264 51.9424 64.777 55.815 62.4124C59.6876 60.0477 62.8321 56.6596 64.9016 52.6216C66.9712 48.5835 67.8855 44.0524 67.5437 39.5278C67.202 35.0033 65.6175 30.6609 62.9649 26.9795ZM58.6198 22.3229L60.9548 19.9922L64.3262 23.3632L61.995 25.6986C60.9658 24.4814 59.8368 23.3523 58.6198 22.3229ZM35 5.5682H50.9091V10.3409H35V5.5682ZM39.7728 16.7046V11.9318H46.1364V16.9135C45.0809 16.7803 44.0184 16.7105 42.9546 16.7046H39.7728Z" fill="#0F3E84"/>
<path d="M26.25 41.3636C26.25 41.1526 26.1662 40.9503 26.017 40.8011C25.8678 40.6519 25.6655 40.5681 25.4545 40.5681H3.18181C2.97084 40.5681 2.76851 40.6519 2.61934 40.8011C2.47016 40.9503 2.38635 41.1526 2.38635 41.3636C2.38635 41.5745 2.47016 41.7769 2.61934 41.926C2.76851 42.0752 2.97084 42.159 3.18181 42.159H25.4545C25.6655 42.159 25.8678 42.0752 26.017 41.926C26.1662 41.7769 26.25 41.5745 26.25 41.3636Z" fill="#0F3E84"/>
<path d="M28.6363 46.1363C28.6363 45.9253 28.5525 45.723 28.4033 45.5738C28.2542 45.4246 28.0518 45.3408 27.8409 45.3408H7.95451C7.74354 45.3408 7.54122 45.4246 7.39204 45.5738C7.24286 45.723 7.15906 45.9253 7.15906 46.1363C7.15906 46.3472 7.24286 46.5496 7.39204 46.6987C7.54122 46.8479 7.74354 46.9317 7.95451 46.9317H27.8409C28.0518 46.9317 28.2542 46.8479 28.4033 46.6987C28.5525 46.5496 28.6363 46.3472 28.6363 46.1363Z" fill="#0F3E84"/>
<path d="M31.0227 50.9092C31.0227 50.6983 30.9389 50.4959 30.7897 50.3468C30.6405 50.1976 30.4382 50.1138 30.2272 50.1138H12.7272C12.5162 50.1138 12.3139 50.1976 12.1647 50.3468C12.0156 50.4959 11.9318 50.6983 11.9318 50.9092C11.9318 51.1202 12.0156 51.3225 12.1647 51.4717C12.3139 51.6209 12.5162 51.7047 12.7272 51.7047H30.2272C30.4382 51.7047 30.6405 51.6209 30.7897 51.4717C30.9389 51.3225 31.0227 51.1202 31.0227 50.9092Z" fill="#0F3E84"/>
<path d="M34.2046 55.6819C34.2046 55.471 34.1208 55.2686 33.9716 55.1195C33.8224 54.9703 33.6201 54.8865 33.4091 54.8865H17.5C17.2891 54.8865 17.0867 54.9703 16.9376 55.1195C16.7884 55.2686 16.7046 55.471 16.7046 55.6819C16.7046 55.8929 16.7884 56.0952 16.9376 56.2444C17.0867 56.3936 17.2891 56.4774 17.5 56.4774H33.4091C33.6201 56.4774 33.8224 56.3936 33.9716 56.2444C34.1208 56.0952 34.2046 55.8929 34.2046 55.6819Z" fill="#0F3E84"/>
<path d="M7.95451 37.3863H27.8409C28.0518 37.3863 28.2542 37.3025 28.4033 37.1533C28.5525 37.0042 28.6363 36.8018 28.6363 36.5909C28.6363 36.3799 28.5525 36.1776 28.4033 36.0284C28.2542 35.8792 28.0518 35.7954 27.8409 35.7954H7.95451C7.74354 35.7954 7.54122 35.8792 7.39204 36.0284C7.24286 36.1776 7.15906 36.3799 7.15906 36.5909C7.15906 36.8018 7.24286 37.0042 7.39204 37.1533C7.54122 37.3025 7.74354 37.3863 7.95451 37.3863Z" fill="#0F3E84"/>
<path d="M12.7272 32.6136H30.2272C30.4382 32.6136 30.6405 32.5298 30.7897 32.3806C30.9389 32.2315 31.0227 32.0291 31.0227 31.8182C31.0227 31.6072 30.9389 31.4049 30.7897 31.2557C30.6405 31.1065 30.4382 31.0227 30.2272 31.0227H12.7272C12.5162 31.0227 12.3139 31.1065 12.1647 31.2557C12.0156 31.4049 11.9318 31.6072 11.9318 31.8182C11.9318 32.0291 12.0156 32.2315 12.1647 32.3806C12.3139 32.5298 12.5162 32.6136 12.7272 32.6136Z" fill="#0F3E84"/>
<path d="M17.5 27.8409H33.4091C33.6201 27.8409 33.8224 27.7571 33.9716 27.6079C34.1208 27.4587 34.2046 27.2564 34.2046 27.0455C34.2046 26.8345 34.1208 26.6322 33.9716 26.483C33.8224 26.3338 33.6201 26.25 33.4091 26.25H17.5C17.2891 26.25 17.0867 26.3338 16.9376 26.483C16.7884 26.6322 16.7046 26.8345 16.7046 27.0455C16.7046 27.2564 16.7884 27.4587 16.9376 27.6079C17.0867 27.7571 17.2891 27.8409 17.5 27.8409Z" fill="#0F3E84"/>
<path d="M43.75 27.0455V25.4546C43.75 25.2437 43.6662 25.0413 43.517 24.8922C43.3678 24.743 43.1655 24.6592 42.9545 24.6592C42.7435 24.6592 42.5412 24.743 42.392 24.8922C42.2429 25.0413 42.1591 25.2437 42.1591 25.4546V27.0455C42.1591 27.2565 42.2429 27.4588 42.392 27.608C42.5412 27.7572 42.7435 27.841 42.9545 27.841C43.1655 27.841 43.3678 27.7572 43.517 27.608C43.6662 27.4588 43.75 27.2565 43.75 27.0455Z" fill="#0F3E84"/>
<path d="M42.1591 55.6819V57.2728C42.1591 57.4838 42.2429 57.6861 42.392 57.8353C42.5412 57.9845 42.7435 58.0683 42.9545 58.0683C43.1655 58.0683 43.3678 57.9845 43.517 57.8353C43.6662 57.6861 43.75 57.4838 43.75 57.2728V55.6819C43.75 55.471 43.6662 55.2686 43.517 55.1195C43.3678 54.9703 43.1655 54.8865 42.9545 54.8865C42.7435 54.8865 42.5412 54.9703 42.392 55.1195C42.2429 55.2686 42.1591 55.471 42.1591 55.6819Z" fill="#0F3E84"/>
<path d="M49.7159 53.0746C49.6254 53.1268 49.5461 53.1964 49.4825 53.2792C49.4188 53.3621 49.3722 53.4567 49.3451 53.5576C49.3181 53.6586 49.3112 53.7638 49.3248 53.8674C49.3384 53.971 49.3723 54.0709 49.4246 54.1614L50.22 55.539C50.2723 55.6295 50.3418 55.7088 50.4247 55.7724C50.5076 55.836 50.6022 55.8827 50.7031 55.9097C50.804 55.9368 50.9093 55.9437 51.0128 55.9301C51.1164 55.9164 51.2163 55.8825 51.3068 55.8303C51.3973 55.7781 51.4766 55.7085 51.5402 55.6257C51.6038 55.5428 51.6505 55.4482 51.6775 55.3473C51.7046 55.2463 51.7115 55.1411 51.6978 55.0375C51.6842 54.9339 51.6503 54.834 51.5981 54.7436L50.8026 53.3659C50.7504 53.2754 50.6809 53.1961 50.598 53.1325C50.5151 53.0689 50.4205 53.0222 50.3196 52.9951C50.2187 52.9681 50.1134 52.9612 50.0098 52.9748C49.9063 52.9885 49.8064 53.0224 49.7159 53.0746Z" fill="#0F3E84"/>
<path d="M54.957 49.2113L56.3343 50.0068C56.4248 50.062 56.5255 50.0985 56.6304 50.1142C56.7353 50.13 56.8422 50.1246 56.945 50.0983C57.0478 50.0721 57.1442 50.0256 57.2288 49.9616C57.3133 49.8975 57.3842 49.8172 57.4372 49.7254C57.4902 49.6336 57.5244 49.5321 57.5376 49.4268C57.5508 49.3216 57.5429 49.2148 57.5143 49.1127C57.4856 49.0106 57.4368 48.9153 57.3708 48.8323C57.3048 48.7493 57.2228 48.6803 57.1297 48.6295L55.7525 47.834C55.662 47.7788 55.5613 47.7423 55.4564 47.7266C55.3515 47.7108 55.2446 47.7162 55.1418 47.7425C55.039 47.7687 54.9426 47.8152 54.858 47.8792C54.7735 47.9433 54.7026 48.0236 54.6496 48.1154C54.5966 48.2072 54.5624 48.3087 54.5492 48.414C54.536 48.5192 54.5439 48.626 54.5725 48.7281C54.6012 48.8302 54.65 48.9255 54.716 49.0085C54.782 49.0915 54.864 49.1605 54.957 49.2113Z" fill="#0F3E84"/>
<path d="M56.4773 41.3636C56.4773 41.5745 56.5611 41.7769 56.7103 41.926C56.8595 42.0752 57.0618 42.159 57.2727 42.159H58.8637C59.0746 42.159 59.277 42.0752 59.4261 41.926C59.5753 41.7769 59.6591 41.5745 59.6591 41.3636C59.6591 41.1526 59.5753 40.9503 59.4261 40.8011C59.277 40.6519 59.0746 40.5681 58.8637 40.5681H57.2727C57.0618 40.5681 56.8595 40.6519 56.7103 40.8011C56.5611 40.9503 56.4773 41.1526 56.4773 41.3636Z" fill="#0F3E84"/>
<path d="M56.3341 32.7205L54.9568 33.516C54.8637 33.5668 54.7818 33.6358 54.7157 33.7187C54.6497 33.8017 54.6009 33.8971 54.5723 33.9992C54.5437 34.1013 54.5357 34.2081 54.5489 34.3133C54.5622 34.4185 54.5963 34.5201 54.6494 34.6119C54.7024 34.7037 54.7733 34.784 54.8578 34.8481C54.9423 34.9121 55.0388 34.9586 55.1416 34.9848C55.2443 35.011 55.3513 35.0164 55.4562 35.0007C55.561 34.985 55.6617 34.9484 55.7523 34.8932L57.1295 34.0978C57.2226 34.0469 57.3045 33.978 57.3706 33.895C57.4366 33.812 57.4854 33.7167 57.514 33.6146C57.5427 33.5125 57.5506 33.4057 57.5374 33.3004C57.5241 33.1952 57.49 33.0937 57.437 33.0019C57.3839 32.91 57.313 32.8297 57.2285 32.7657C57.144 32.7016 57.0475 32.6551 56.9447 32.6289C56.842 32.6027 56.735 32.5973 56.6302 32.613C56.5253 32.6288 56.4246 32.6653 56.3341 32.7205Z" fill="#0F3E84"/>
<path d="M37.5891 44.4667C37.6414 44.5572 37.711 44.6364 37.7939 44.6999C37.8768 44.7634 37.9715 44.8099 38.0724 44.8368C38.1733 44.8637 38.2786 44.8705 38.3821 44.8567C38.4857 44.8429 38.5855 44.8088 38.6758 44.7564L40.6879 43.591C41.1767 44.1043 41.8239 44.4383 42.5255 44.5395C43.2271 44.6406 43.9423 44.5029 44.5562 44.1485C45.1702 43.7942 45.6471 43.2437 45.9105 42.5856C46.1738 41.9275 46.2083 41.2 46.0083 40.5199L52.5652 36.7347C52.7479 36.6292 52.8813 36.4554 52.9359 36.2516C52.9906 36.0478 52.962 35.8306 52.8565 35.6479C52.751 35.4651 52.5773 35.3318 52.3735 35.2771C52.1697 35.2225 51.9525 35.2511 51.7697 35.3565L45.2215 39.1369C44.7327 38.6234 44.0854 38.2891 43.3836 38.1879C42.6818 38.0867 41.9664 38.2244 41.3523 38.5789C40.7383 38.9334 40.2613 39.4841 39.9981 40.1425C39.7348 40.8009 39.7007 41.5286 39.901 42.2088L37.8787 43.38C37.7883 43.4322 37.709 43.5018 37.6455 43.5848C37.5819 43.6677 37.5354 43.7623 37.5085 43.8633C37.4816 43.9642 37.4749 44.0695 37.4887 44.173C37.5025 44.2766 37.5366 44.3764 37.5891 44.4667ZM42.9545 39.7728C43.2692 39.7728 43.5767 39.8661 43.8384 40.0409C44.1 40.2158 44.3039 40.4642 44.4243 40.7549C44.5447 41.0456 44.5762 41.3655 44.5148 41.6741C44.4535 41.9827 44.3019 42.2662 44.0794 42.4887C43.857 42.7112 43.5735 42.8627 43.2649 42.9241C42.9563 42.9855 42.6364 42.954 42.3457 42.8335C42.055 42.7131 41.8065 42.5092 41.6317 42.2476C41.4569 41.986 41.3636 41.6784 41.3636 41.3637C41.3641 40.942 41.5318 40.5376 41.8301 40.2393C42.1283 39.9411 42.5327 39.7733 42.9545 39.7728Z" fill="#0F3E84"/>
<path d="M50.8026 29.3615L51.598 27.9838C51.6503 27.8933 51.6842 27.7935 51.6978 27.6899C51.7114 27.5863 51.7045 27.481 51.6775 27.3801C51.6504 27.2792 51.6038 27.1846 51.5402 27.1017C51.4765 27.0189 51.3972 26.9493 51.3068 26.8971C51.2163 26.8448 51.1164 26.811 51.0128 26.7973C50.9092 26.7837 50.804 26.7906 50.703 26.8177C50.6021 26.8447 50.5075 26.8914 50.4247 26.955C50.3418 27.0186 50.2722 27.0979 50.22 27.1884L49.4245 28.566C49.3723 28.6565 49.3384 28.7564 49.3248 28.86C49.3112 28.9636 49.3181 29.0688 49.3451 29.1697C49.3722 29.2706 49.4188 29.3652 49.4824 29.4481C49.546 29.531 49.6254 29.6005 49.7158 29.6528C49.8063 29.705 49.9062 29.7389 50.0098 29.7525C50.1134 29.7662 50.2186 29.7592 50.3195 29.7322C50.4205 29.7051 50.5151 29.6585 50.5979 29.5949C50.6808 29.5313 50.7504 29.452 50.8026 29.3615Z" fill="#0F3E84"/>
</svg>
