<svg width="70" height="70" viewBox="0 0 70 70" fill="none" xmlns="http://www.w3.org/2000/svg">
<path d="M44.9637 43.129C44.7242 43.129 44.4944 43.2242 44.325 43.3936C44.1556 43.563 44.0605 43.7927 44.0605 44.0323V61.1935H7.93145V18.7419H16.9637C17.2033 18.7419 17.433 18.6468 17.6024 18.4774C17.7718 18.308 17.8669 18.0783 17.8669 17.8387V8.80645H44.0605V24.1613C44.0605 24.4008 44.1556 24.6306 44.325 24.8C44.4944 24.9694 44.7242 25.0645 44.9637 25.0645C45.2033 25.0645 45.433 24.9694 45.6024 24.8C45.7718 24.6306 45.8669 24.4008 45.8669 24.1613V7.90323C45.8669 7.66368 45.7718 7.43394 45.6024 7.26455C45.433 7.09516 45.2033 7 44.9637 7H16.9637C16.7258 7.00968 16.499 7.10383 16.3242 7.26555L6.38874 17.201C6.22628 17.3745 6.13253 17.6012 6.125 17.8387V62.0968C6.125 62.3363 6.22016 62.5661 6.38955 62.7355C6.55894 62.9048 6.78868 63 7.02823 63H44.9637C45.2033 63 45.433 62.9048 45.6024 62.7355C45.7718 62.5661 45.8669 62.3363 45.8669 62.0968V44.0323C45.8669 43.7927 45.7718 43.563 45.6024 43.3936C45.433 43.2242 45.2033 43.129 44.9637 43.129ZM16.0605 10.0836V16.9355H9.20861L16.0605 10.0836Z" fill="#0F3E84"/>
<path d="M25.9959 23.2581C23.8522 23.2581 21.7567 23.8937 19.9743 25.0847C18.1919 26.2757 16.8026 27.9685 15.9823 29.949C15.1619 31.9295 14.9473 34.1088 15.3655 36.2113C15.7837 38.3138 16.816 40.2451 18.3318 41.7609C19.8476 43.2767 21.7789 44.309 23.8814 44.7272C25.9839 45.1454 28.1632 44.9308 30.1437 44.1104C32.1243 43.2901 33.817 41.9008 35.008 40.1184C36.199 38.336 36.8347 36.2405 36.8347 34.0968C36.8315 31.2231 35.6886 28.4681 33.6566 26.4361C31.6247 24.4041 28.8696 23.2612 25.9959 23.2581ZM25.9959 25.0645C27.6837 25.0624 29.3382 25.534 30.7712 26.4258C32.2041 27.3176 33.358 28.5937 34.1015 30.1089C34.8449 31.6241 35.1482 33.3175 34.9767 34.9966C34.8052 36.6756 34.1659 38.2728 33.1314 39.6064C30.9595 38.3613 28.4995 37.7062 25.9959 37.7062C23.4924 37.7062 21.0324 38.3613 18.8605 39.6064C17.826 38.2728 17.1867 36.6756 17.0152 34.9966C16.8437 33.3175 17.1469 31.6241 17.8904 30.1089C18.6339 28.5937 19.7878 27.3176 21.2207 26.4258C22.6537 25.534 24.3082 25.0624 25.9959 25.0645ZM25.9959 43.129C23.8488 43.1189 21.7742 42.3512 20.1376 40.9613C21.9454 40.0149 23.9555 39.5206 25.9959 39.5206C28.0364 39.5206 30.0465 40.0149 31.8543 40.9613C30.2188 42.3531 28.1435 43.1211 25.9959 43.129Z" fill="#0F3E84"/>
<path d="M63.0284 39.516H45.8671V28.6773H63.0284C63.268 28.6773 63.4977 28.5821 63.6671 28.4128C63.8365 28.2434 63.9316 28.0136 63.9316 27.7741C63.9316 27.5345 63.8365 27.3048 63.6671 27.1354C63.4977 26.966 63.268 26.8709 63.0284 26.8709H44.9639C44.7244 26.8709 44.4946 26.966 44.3252 27.1354C44.1558 27.3048 44.0607 27.5345 44.0607 27.7741V28.6773H39.3838C38.1261 25.5683 35.8263 22.9935 32.8784 21.3941C29.9306 19.7948 26.5183 19.2705 23.2263 19.9111C19.9343 20.5518 16.9676 22.3174 14.8346 24.9055C12.7016 27.4936 11.5352 30.7429 11.5352 34.0967C11.5352 37.4504 12.7016 40.6998 14.8346 43.2878C16.9676 45.8759 19.9343 47.6415 23.2263 48.2822C26.5183 48.9228 29.9306 48.3985 32.8784 46.7992C35.8263 45.1998 38.1261 42.625 39.3838 39.516H44.0607V40.4192C44.0607 40.6588 44.1558 40.8885 44.3252 41.0579C44.4946 41.2273 44.7244 41.3225 44.9639 41.3225H63.0284C63.268 41.3225 63.4977 41.2273 63.6671 41.0579C63.8365 40.8885 63.9316 40.6588 63.9316 40.4192C63.9316 40.1797 63.8365 39.9499 63.6671 39.7806C63.4977 39.6112 63.268 39.516 63.0284 39.516ZM25.9962 46.7418C23.4952 46.7418 21.0504 46.0002 18.9709 44.6107C16.8914 43.2213 15.2706 41.2464 14.3136 38.9357C13.3565 36.6251 13.1061 34.0826 13.594 31.6297C14.0819 29.1768 15.2862 26.9236 17.0547 25.1552C18.8231 23.3867 21.0763 22.1824 23.5292 21.6945C25.9821 21.2066 28.5247 21.457 30.8353 22.4141C33.1459 23.3711 35.1208 24.9919 36.5102 27.0714C37.8997 29.1509 38.6413 31.5957 38.6413 34.0967C38.6377 37.4493 37.3043 40.6635 34.9337 43.0342C32.563 45.4048 29.3488 46.7382 25.9962 46.7418ZM39.9898 37.7096C40.6004 35.3397 40.6004 32.8537 39.9898 30.4838H44.0607V37.7096H39.9898Z" fill="#0F3E84"/>
<path d="M25.9961 35.9031C26.8893 35.9031 27.7625 35.6382 28.5051 35.142C29.2478 34.6458 29.8267 33.9404 30.1685 33.1152C30.5103 32.29 30.5997 31.382 30.4255 30.5059C30.2512 29.6299 29.8211 28.8252 29.1895 28.1936C28.5579 27.562 27.7532 27.1319 26.8772 26.9576C26.0011 26.7834 25.0931 26.8728 24.2679 27.2146C23.4426 27.5564 22.7373 28.1353 22.2411 28.878C21.7448 29.6206 21.48 30.4938 21.48 31.387C21.4814 32.5843 21.9577 33.7322 22.8043 34.5788C23.6509 35.4254 24.7988 35.9017 25.9961 35.9031ZM25.9961 28.6773C26.532 28.6773 27.0559 28.8362 27.5015 29.134C27.9471 29.4317 28.2944 29.8549 28.4995 30.35C28.7046 30.8452 28.7583 31.39 28.6537 31.9156C28.5492 32.4412 28.2911 32.9241 27.9121 33.303C27.5332 33.682 27.0504 33.94 26.5247 34.0446C25.9991 34.1491 25.4543 34.0955 24.9592 33.8904C24.464 33.6853 24.0408 33.338 23.7431 32.8924C23.4454 32.4468 23.2864 31.9229 23.2864 31.387C23.2864 30.6683 23.5719 29.9791 24.0801 29.4709C24.5882 28.9628 25.2775 28.6773 25.9961 28.6773Z" fill="#0F3E84"/>
<path d="M42.2539 51.2582C42.2539 51.0187 42.1588 50.7889 41.9894 50.6195C41.82 50.4501 41.5902 50.355 41.3507 50.355H10.641C10.4015 50.355 10.1717 50.4501 10.0023 50.6195C9.83295 50.7889 9.73779 51.0187 9.73779 51.2582C9.73779 51.4978 9.83295 51.7275 10.0023 51.8969C10.1717 52.0663 10.4015 52.1614 10.641 52.1614H41.3507C41.5902 52.1614 41.82 52.0663 41.9894 51.8969C42.1588 51.7275 42.2539 51.4978 42.2539 51.2582Z" fill="#0F3E84"/>
<path d="M33.2217 54.871C33.2217 54.6314 33.1265 54.4017 32.9571 54.2323C32.7877 54.0629 32.558 53.9678 32.3184 53.9678H10.641C10.4015 53.9678 10.1717 54.0629 10.0023 54.2323C9.83295 54.4017 9.73779 54.6314 9.73779 54.871C9.73779 55.1105 9.83295 55.3403 10.0023 55.5097C10.1717 55.6791 10.4015 55.7742 10.641 55.7742H32.3184C32.558 55.7742 32.7877 55.6791 32.9571 55.5097C33.1265 55.3403 33.2217 55.1105 33.2217 54.871Z" fill="#0F3E84"/>
<path d="M10.641 57.5808C10.4015 57.5808 10.1717 57.676 10.0023 57.8454C9.83295 58.0147 9.73779 58.2445 9.73779 58.484C9.73779 58.7236 9.83295 58.9533 10.0023 59.1227C10.1717 59.2921 10.4015 59.3873 10.641 59.3873H21.4797C21.7193 59.3873 21.949 59.2921 22.1184 59.1227C22.2878 58.9533 22.383 58.7236 22.383 58.484C22.383 58.2445 22.2878 58.0147 22.1184 57.8454C21.949 57.676 21.7193 57.5808 21.4797 57.5808H10.641Z" fill="#0F3E84"/>
</svg>
