<svg width="70" height="70" viewBox="0 0 70 70" fill="none" xmlns="http://www.w3.org/2000/svg">
<path d="M63.875 31.8965C63.8715 31.7614 63.8398 31.6285 63.7819 31.5064C63.7241 31.3843 63.6412 31.2757 63.5388 31.1875L53.7988 23.2182V4.41602C53.7988 4.17307 53.7023 3.94008 53.5305 3.76829C53.3587 3.59651 53.1258 3.5 52.8828 3.5H16.2422C15.9992 3.5 15.7663 3.59651 15.5945 3.76829C15.4227 3.94008 15.3262 4.17307 15.3262 4.41602V23.2182L5.58618 31.1875C5.48368 31.2756 5.4008 31.3842 5.34289 31.5063C5.28499 31.6285 5.25334 31.7614 5.25 31.8965V61.209C5.25424 61.4506 5.3521 61.6811 5.52298 61.852C5.69386 62.0229 5.9244 62.1208 6.16602 62.125H62.959C63.2008 62.1215 63.4318 62.0238 63.6028 61.8528C63.7738 61.6818 63.8715 61.4508 63.875 61.209V31.8965ZM62.043 33.7871V59.1937L46.7455 45.8712L62.043 33.7871ZM61.4934 31.8837L53.7988 37.9642V25.5851L61.4934 31.8837ZM51.9668 5.33203V39.4078L45.3385 44.6428L35.1643 35.7859C34.9975 35.6405 34.7838 35.5604 34.5625 35.5604C34.3412 35.5604 34.1275 35.6405 33.9607 35.7859L23.7865 44.6465L17.1582 39.4078V5.33203H51.9668ZM7.08203 33.7871C22.1835 45.7155 10.3092 36.3401 22.3795 45.8712L7.08203 59.1937V33.7871ZM15.3262 37.9642L7.63164 31.8837L15.3262 25.5851V37.9642ZM8.61269 60.293C25.94 45.2007 24.7694 46.223 34.5625 37.6912C40.3334 42.7165 54.7423 55.2677 60.5123 60.293H8.61269Z" fill="#0F3E84"/>
<path d="M20.8223 9.91211H48.3027C48.5457 9.91211 48.7787 9.8156 48.9505 9.64381C49.1222 9.47203 49.2188 9.23904 49.2188 8.99609C49.2188 8.75315 49.1222 8.52016 48.9505 8.34837C48.7787 8.17659 48.5457 8.08008 48.3027 8.08008H20.8223C20.5793 8.08008 20.3463 8.17659 20.1745 8.34837C20.0028 8.52016 19.9062 8.75315 19.9062 8.99609C19.9062 9.23904 20.0028 9.47203 20.1745 9.64381C20.3463 9.8156 20.5793 9.91211 20.8223 9.91211Z" fill="#0F3E84"/>
<path d="M20.8223 14.4922H48.3027C48.5457 14.4922 48.7787 14.3957 48.9505 14.2239C49.1222 14.0521 49.2188 13.8191 49.2188 13.5762C49.2188 13.3332 49.1222 13.1002 48.9505 12.9285C48.7787 12.7567 48.5457 12.6602 48.3027 12.6602H20.8223C20.5793 12.6602 20.3463 12.7567 20.1745 12.9285C20.0028 13.1002 19.9062 13.3332 19.9062 13.5762C19.9062 13.8191 20.0028 14.0521 20.1745 14.2239C20.3463 14.3957 20.5793 14.4922 20.8223 14.4922Z" fill="#0F3E84"/>
<path d="M20.8223 19.0723H48.3027C48.5457 19.0723 48.7787 18.9758 48.9505 18.804C49.1222 18.6322 49.2188 18.3992 49.2188 18.1562C49.2188 17.9133 49.1222 17.6803 48.9505 17.5085C48.7787 17.3367 48.5457 17.2402 48.3027 17.2402H20.8223C20.5793 17.2402 20.3463 17.3367 20.1745 17.5085C20.0028 17.6803 19.9062 17.9133 19.9062 18.1562C19.9062 18.3992 20.0028 18.6322 20.1745 18.804C20.3463 18.9758 20.5793 19.0723 20.8223 19.0723Z" fill="#0F3E84"/>
<path d="M20.8223 23.6523H48.3027C48.5457 23.6523 48.7787 23.5558 48.9505 23.384C49.1222 23.2123 49.2188 22.9793 49.2188 22.7363C49.2188 22.4934 49.1222 22.2604 48.9505 22.0886C48.7787 21.9168 48.5457 21.8203 48.3027 21.8203H20.8223C20.5793 21.8203 20.3463 21.9168 20.1745 22.0886C20.0028 22.2604 19.9062 22.4934 19.9062 22.7363C19.9062 22.9793 20.0028 23.2123 20.1745 23.384C20.3463 23.5558 20.5793 23.6523 20.8223 23.6523Z" fill="#0F3E84"/>
<path d="M20.8223 28.2324H48.3027C48.5457 28.2324 48.7787 28.1359 48.9505 27.9641C49.1222 27.7923 49.2188 27.5593 49.2188 27.3164C49.2188 27.0735 49.1222 26.8405 48.9505 26.6687C48.7787 26.4969 48.5457 26.4004 48.3027 26.4004H20.8223C20.5793 26.4004 20.3463 26.4969 20.1745 26.6687C20.0028 26.8405 19.9062 27.0735 19.9062 27.3164C19.9062 27.5593 20.0028 27.7923 20.1745 27.9641C20.3463 28.1359 20.5793 28.2324 20.8223 28.2324Z" fill="#0F3E84"/>
<path d="M20.8223 32.8125H48.3027C48.5457 32.8125 48.7787 32.716 48.9505 32.5442C49.1222 32.3724 49.2188 32.1394 49.2188 31.8965C49.2188 31.6535 49.1222 31.4205 48.9505 31.2488C48.7787 31.077 48.5457 30.9805 48.3027 30.9805H20.8223C20.5793 30.9805 20.3463 31.077 20.1745 31.2488C20.0028 31.4205 19.9062 31.6535 19.9062 31.8965C19.9062 32.1394 20.0028 32.3724 20.1745 32.5442C20.3463 32.716 20.5793 32.8125 20.8223 32.8125Z" fill="#0F3E84"/>
</svg>
