<svg width="70" height="70" viewBox="0 0 70 70" fill="none" xmlns="http://www.w3.org/2000/svg">
<path d="M53.5179 32.8125C53.8051 32.7716 54.0644 32.6184 54.2388 32.3865C54.4131 32.1545 54.4882 31.8629 54.4476 31.5756C53.7915 27.0091 51.8367 22.7275 48.816 19.2407C45.7953 15.7539 41.836 13.2088 37.4097 11.9086C32.9834 10.6084 28.2767 10.6079 23.8501 11.9072C19.4235 13.2064 15.4637 15.7507 12.4422 19.2369C9.42079 22.723 7.46509 27.0042 6.80806 31.5705C6.15104 36.1368 6.82039 40.7957 8.73638 44.9923C10.6524 49.1889 13.7343 52.7464 17.615 55.2409C21.4957 57.7355 26.0116 59.062 30.6249 59.0625C33.7577 59.0666 36.8607 58.4551 39.7577 57.2627C40.026 57.1525 40.2396 56.9402 40.3514 56.6725C40.4632 56.4048 40.4641 56.1037 40.3538 55.8354C40.2436 55.567 40.0313 55.3535 39.7636 55.2417C39.4959 55.1299 39.1948 55.129 38.9265 55.2393C35.9369 56.4653 32.7128 57.0137 29.4861 56.8452C26.2593 56.6767 23.1099 55.7955 20.2642 54.2648C17.4186 52.7342 14.9474 50.5921 13.0282 47.9926C11.109 45.3931 9.78959 42.4008 9.16468 39.2306C8.53977 36.0604 8.62493 32.7911 9.41404 29.6578C10.2031 26.5244 11.6766 23.6048 13.7285 21.1087C15.7804 18.6127 18.3598 16.6022 21.2812 15.2218C24.2027 13.8413 27.3937 13.1252 30.6249 13.125C35.8821 13.1425 40.9586 15.045 44.9324 18.4869C48.9061 21.9289 51.5136 26.6819 52.2812 31.8828C52.3013 32.0251 52.3492 32.162 52.4223 32.2857C52.4953 32.4094 52.5921 32.5175 52.7069 32.6039C52.8217 32.6902 52.9525 32.7531 53.0916 32.7888C53.2308 32.8246 53.3756 32.8327 53.5179 32.8125Z" fill="#0F3E84"/>
<path d="M41.6362 58.8265C38.1891 60.4353 34.4291 61.2629 30.625 61.25C25.545 61.2491 20.5743 59.7742 16.316 57.0041C12.0576 54.234 8.69452 50.2879 6.63459 45.6442C4.57466 41.0006 3.90641 35.859 4.71088 30.843C5.51536 25.8271 7.758 21.1524 11.1668 17.3858C14.5756 13.6192 19.004 10.9227 23.9151 9.62328C28.8261 8.32384 34.0087 8.47733 38.8342 10.0651C43.6597 11.6529 47.9209 14.6068 51.1008 18.5685C54.2807 22.5301 56.2428 27.3294 56.749 32.3842C56.761 32.5287 56.8017 32.6695 56.8687 32.7981C56.9357 32.9268 57.0276 33.0409 57.1391 33.1337C57.2505 33.2266 57.3794 33.2963 57.518 33.3389C57.6567 33.3814 57.8025 33.396 57.9469 33.3817C58.0912 33.3673 58.2313 33.3245 58.3589 33.2555C58.4865 33.1865 58.5992 33.0929 58.6903 32.9799C58.7813 32.867 58.849 32.7371 58.8894 32.5978C58.9298 32.4585 58.9421 32.3125 58.9255 32.1684C58.378 26.6916 56.2528 21.4913 52.808 17.1985C49.3632 12.9056 44.7467 9.70462 39.5185 7.98379C34.2903 6.26295 28.6751 6.09621 23.354 7.50381C18.0329 8.9114 13.2346 11.8328 9.54109 15.9137C5.84762 19.9946 3.41771 25.0596 2.54611 30.4943C1.67451 35.9289 2.39869 41.4998 4.63078 46.531C6.86288 51.5622 10.507 55.8376 15.121 58.8386C19.7351 61.8395 25.1209 63.4371 30.625 63.4375C34.7487 63.4507 38.8245 62.5531 42.5612 60.8089C42.6914 60.7481 42.8083 60.6624 42.9053 60.5564C43.0023 60.4505 43.0775 60.3265 43.1266 60.1915C43.1757 60.0565 43.1977 59.9132 43.1914 59.7697C43.1851 59.6262 43.1506 59.4853 43.0899 59.3552C43.0292 59.225 42.9434 59.1081 42.8375 59.0111C42.7315 58.914 42.6075 58.8388 42.4726 58.7897C42.3376 58.7406 42.1942 58.7186 42.0507 58.7249C41.9072 58.7312 41.7664 58.7657 41.6362 58.8265Z" fill="#0F3E84"/>
<path d="M31.7188 16.4062C31.7188 16.1162 31.6035 15.838 31.3984 15.6329C31.1933 15.4277 30.9151 15.3125 30.625 15.3125C30.3349 15.3125 30.0567 15.4277 29.8516 15.6329C29.6465 15.838 29.5312 16.1162 29.5312 16.4062V18.5938C29.5312 18.8838 29.6465 19.162 29.8516 19.3671C30.0567 19.5723 30.3349 19.6875 30.625 19.6875C30.9151 19.6875 31.1933 19.5723 31.3984 19.3671C31.6035 19.162 31.7188 18.8838 31.7188 18.5938V16.4062Z" fill="#0F3E84"/>
<path d="M38.9744 18.3503L37.8806 20.2452C37.8088 20.3696 37.7622 20.5069 37.7435 20.6494C37.7247 20.7918 37.7342 20.9365 37.7714 21.0753C37.8086 21.214 37.8728 21.3441 37.9602 21.4581C38.0477 21.572 38.1568 21.6677 38.2812 21.7395C38.4056 21.8113 38.5429 21.8579 38.6854 21.8766C38.8278 21.8954 38.9725 21.8859 39.1113 21.8487C39.25 21.8115 39.3801 21.7473 39.4941 21.6599C39.608 21.5724 39.7036 21.4634 39.7755 21.3389L40.8692 19.444C41.0142 19.1927 41.0535 18.8942 40.9784 18.6139C40.9033 18.3337 40.7199 18.0948 40.4687 17.9497C40.2174 17.8047 39.9188 17.7654 39.6386 17.8405C39.3583 17.9156 39.1194 18.099 38.9744 18.3503Z" fill="#0F3E84"/>
<path d="M46.181 24.7556L44.2861 25.8494C44.0348 25.9944 43.8514 26.2333 43.7763 26.5136C43.7012 26.7938 43.7405 27.0924 43.8855 27.3437C44.0306 27.5949 44.2695 27.7783 44.5497 27.8534C44.8299 27.9285 45.1285 27.8892 45.3798 27.7442L47.2747 26.6505C47.3991 26.5786 47.5082 26.483 47.5957 26.3691C47.6831 26.2551 47.7473 26.125 47.7845 25.9863C47.8217 25.8475 47.8312 25.7028 47.8124 25.5604C47.7937 25.4179 47.7471 25.2806 47.6753 25.1562C47.6034 25.0318 47.5078 24.9227 47.3939 24.8352C47.2799 24.7478 47.1498 24.6836 47.0111 24.6464C46.8723 24.6092 46.7276 24.5997 46.5852 24.6185C46.4427 24.6372 46.3054 24.6838 46.181 24.7556Z" fill="#0F3E84"/>
<path d="M30.625 50.3125C30.3349 50.3125 30.0567 50.4277 29.8516 50.6329C29.6465 50.838 29.5312 51.1162 29.5312 51.4062V53.5938C29.5312 53.8838 29.6465 54.162 29.8516 54.3671C30.0567 54.5723 30.3349 54.6875 30.625 54.6875C30.9151 54.6875 31.1933 54.5723 31.3984 54.3671C31.6035 54.162 31.7188 53.8838 31.7188 53.5938V51.4062C31.7188 51.1162 31.6035 50.838 31.3984 50.6329C31.1933 50.4277 30.9151 50.3125 30.625 50.3125Z" fill="#0F3E84"/>
<path d="M22.9687 48.2606C22.8443 48.1887 22.7069 48.1421 22.5645 48.1234C22.4221 48.1046 22.2773 48.1141 22.1386 48.1513C21.9998 48.1885 21.8697 48.2527 21.7558 48.3401C21.6418 48.4276 21.5462 48.5367 21.4744 48.6611L20.3806 50.556C20.3088 50.6804 20.2622 50.8178 20.2435 50.9602C20.2247 51.1026 20.2342 51.2474 20.2714 51.3861C20.3086 51.5249 20.3728 51.655 20.4602 51.7689C20.5477 51.8829 20.6568 51.9785 20.7812 52.0503C20.9056 52.1221 21.0429 52.1687 21.1854 52.1875C21.3278 52.2062 21.4725 52.1967 21.6113 52.1595C21.8915 52.0844 22.1304 51.9011 22.2755 51.6498L23.3692 49.7549C23.5141 49.5036 23.5533 49.205 23.4782 48.9248C23.4031 48.6447 23.2198 48.4057 22.9687 48.2606Z" fill="#0F3E84"/>
<path d="M15.069 45.2442L16.9639 44.1505C17.0884 44.0786 17.1974 43.983 17.2849 43.8691C17.3723 43.7551 17.4365 43.625 17.4737 43.4863C17.5109 43.3475 17.5204 43.2028 17.5016 43.0604C17.4829 42.9179 17.4363 42.7806 17.3645 42.6562C17.2927 42.5318 17.197 42.4227 17.0831 42.3352C16.9691 42.2478 16.839 42.1836 16.7003 42.1464C16.5615 42.1092 16.4168 42.0997 16.2744 42.1185C16.1319 42.1372 15.9946 42.1838 15.8702 42.2556L13.9753 43.3494C13.724 43.4944 13.5406 43.7333 13.4655 44.0136C13.3904 44.2938 13.4297 44.5924 13.5747 44.8437C13.7198 45.0949 13.9587 45.2783 14.2389 45.3534C14.5192 45.4285 14.8177 45.3892 15.069 45.2442Z" fill="#0F3E84"/>
<path d="M15.3125 35C15.3125 34.7099 15.1973 34.4317 14.9921 34.2266C14.787 34.0215 14.5088 33.9062 14.2188 33.9062H12.0312C11.7412 33.9062 11.463 34.0215 11.2579 34.2266C11.0527 34.4317 10.9375 34.7099 10.9375 35C10.9375 35.2901 11.0527 35.5683 11.2579 35.7734C11.463 35.9785 11.7412 36.0938 12.0312 36.0938H14.2188C14.5088 36.0938 14.787 35.9785 14.9921 35.7734C15.1973 35.5683 15.3125 35.2901 15.3125 35Z" fill="#0F3E84"/>
<path d="M16.9639 25.8494L15.069 24.7556C14.9446 24.6838 14.8073 24.6372 14.6648 24.6185C14.5224 24.5997 14.3777 24.6092 14.2389 24.6464C14.1002 24.6836 13.9701 24.7478 13.8561 24.8352C13.7422 24.9227 13.6465 25.0318 13.5747 25.1562C13.5029 25.2806 13.4563 25.4179 13.4376 25.5604C13.4188 25.7028 13.4283 25.8475 13.4655 25.9863C13.5027 26.125 13.5669 26.2551 13.6543 26.3691C13.7418 26.483 13.8508 26.5786 13.9753 26.6505L15.8702 27.7442C16.1215 27.8892 16.42 27.9285 16.7003 27.8534C16.9805 27.7783 17.2194 27.5949 17.3645 27.3437C17.5095 27.0924 17.5488 26.7938 17.4737 26.5136C17.3986 26.2333 17.2152 25.9944 16.9639 25.8494Z" fill="#0F3E84"/>
<path d="M23.3692 20.2452L22.2755 18.3503C22.2036 18.2258 22.108 18.1168 21.9941 18.0293C21.8801 17.9419 21.75 17.8777 21.6113 17.8405C21.4725 17.8033 21.3278 17.7938 21.1854 17.8126C21.0429 17.8313 20.9056 17.8779 20.7812 17.9497C20.6568 18.0215 20.5477 18.1172 20.4602 18.2311C20.3728 18.3451 20.3086 18.4752 20.2714 18.6139C20.2342 18.7527 20.2247 18.8974 20.2435 19.0398C20.2622 19.1823 20.3088 19.3196 20.3806 19.444L21.4744 21.3389C21.6194 21.5902 21.8583 21.7736 22.1386 21.8487C22.4188 21.9238 22.7174 21.8845 22.9687 21.7395C23.2199 21.5944 23.4033 21.3555 23.4784 21.0753C23.5535 20.795 23.5142 20.4965 23.3692 20.2452Z" fill="#0F3E84"/>
<path d="M31.7188 27.3438C31.7188 27.0537 31.6035 26.7755 31.3984 26.5704C31.1933 26.3652 30.9151 26.25 30.625 26.25C30.3349 26.25 30.0567 26.3652 29.8516 26.5704C29.6465 26.7755 29.5313 27.0537 29.5313 27.3438V34.5471L24.383 39.6955C24.2785 39.7964 24.1952 39.9171 24.1379 40.0505C24.0805 40.1839 24.0504 40.3275 24.0491 40.4727C24.0479 40.6179 24.0755 40.7619 24.1305 40.8964C24.1855 41.0308 24.2667 41.1529 24.3694 41.2556C24.4721 41.3583 24.5942 41.4395 24.7287 41.4945C24.8631 41.5495 25.0071 41.5772 25.1523 41.5759C25.2976 41.5746 25.4411 41.5445 25.5745 41.4871C25.708 41.4298 25.8287 41.3465 25.9295 41.242L31.3974 35.7743C31.6018 35.5682 31.7172 35.2902 31.7188 35V27.3438Z" fill="#0F3E84"/>
<path d="M53.5938 33.9062C50.7816 33.9062 48.0325 34.7402 45.6942 36.3025C43.356 37.8649 41.5335 40.0856 40.4573 42.6837C39.3812 45.2819 39.0996 48.1408 39.6482 50.8989C40.1968 53.6571 41.5511 56.1906 43.5396 58.1792C45.5281 60.1677 48.0616 61.5219 50.8198 62.0705C53.578 62.6192 56.4369 62.3376 59.035 61.2614C61.6332 60.1852 63.8538 58.3628 65.4162 56.0245C66.9786 53.6863 67.8125 50.9372 67.8125 48.125C67.8082 44.3553 66.3087 40.7412 63.6431 38.0756C60.9775 35.41 57.3635 33.9106 53.5938 33.9062ZM53.5938 60.1562C51.2142 60.1562 48.8881 59.4506 46.9096 58.1286C44.931 56.8066 43.3889 54.9276 42.4783 52.7292C41.5677 50.5307 41.3295 48.1117 41.7937 45.7778C42.2579 43.444 43.4038 41.3002 45.0864 39.6176C46.769 37.935 48.9127 36.7892 51.2466 36.3249C53.5804 35.8607 55.9995 36.099 58.1979 37.0096C60.3963 37.9202 62.2754 39.4623 63.5974 41.4408C64.9194 43.4193 65.625 45.7454 65.625 48.125C65.6214 51.3148 64.3527 54.3729 62.0971 56.6284C59.8416 58.8839 56.7835 60.1526 53.5938 60.1562Z" fill="#0F3E84"/>
<path d="M53.5938 37.1875C51.4305 37.1875 49.3159 37.829 47.5172 39.0308C45.7185 40.2326 44.3167 41.9408 43.4888 43.9394C42.661 45.938 42.4444 48.1371 42.8664 50.2588C43.2884 52.3805 44.3301 54.3293 45.8598 55.859C47.3894 57.3886 49.3383 58.4303 51.46 58.8523C53.5816 59.2744 55.7808 59.0578 57.7794 58.2299C59.7779 57.4021 61.4861 56.0002 62.688 54.2016C63.8898 52.4029 64.5313 50.2882 64.5313 48.125C64.5279 45.2252 63.3744 42.4452 61.324 40.3948C59.2736 38.3443 56.4935 37.1909 53.5938 37.1875ZM53.5938 56.875C51.8632 56.875 50.1714 56.3618 48.7325 55.4004C47.2936 54.4389 46.1721 53.0723 45.5098 51.4735C44.8475 49.8746 44.6743 48.1153 45.0119 46.418C45.3495 44.7206 46.1829 43.1615 47.4066 41.9378C48.6303 40.7141 50.1894 39.8807 51.8867 39.5431C53.5841 39.2055 55.3434 39.3788 56.9422 40.0411C58.5411 40.7033 59.9077 41.8248 60.8691 43.2638C61.8306 44.7027 62.3438 46.3944 62.3438 48.125C62.3411 50.4448 61.4184 52.6689 59.778 54.3092C58.1376 55.9496 55.9136 56.8723 53.5938 56.875Z" fill="#0F3E84"/>
<path d="M49.4197 54.2497V41.8247H54.6872C55.2588 41.8247 55.7838 41.9414 56.2622 42.1747C56.7405 42.408 57.1547 42.723 57.5047 43.1197C57.8663 43.5164 58.1463 43.9597 58.3447 44.4497C58.543 44.9397 58.6422 45.4414 58.6422 45.9547C58.6422 46.6547 58.4788 47.3197 58.1522 47.9497C57.8255 48.5797 57.3763 49.093 56.8047 49.4897C56.233 49.8864 55.5563 50.0847 54.7747 50.0847H51.8347V54.2497H49.4197ZM51.8347 47.9672H54.6347C54.9263 47.9672 55.1888 47.8855 55.4222 47.7222C55.6555 47.5589 55.8422 47.3255 55.9822 47.0222C56.1222 46.7072 56.1922 46.3514 56.1922 45.9547C56.1922 45.523 56.1105 45.1555 55.9472 44.8522C55.7955 44.5489 55.5913 44.3214 55.3347 44.1697C55.0897 44.018 54.8213 43.9422 54.5297 43.9422H51.8347V47.9672Z" fill="#0F3E84"/>
</svg>
