<svg width="30" height="30" viewBox="0 0 30 30" fill="none" xmlns="http://www.w3.org/2000/svg">
<path fill-rule="evenodd" clip-rule="evenodd" d="M12.5 1.5625H12.458C10.7434 1.5625 9.39911 1.56249 8.31868 1.65076C7.21849 1.74065 6.30961 1.92673 5.48694 2.34589C4.13453 3.03498 3.03498 4.13453 2.34589 5.48694C1.92673 6.30961 1.74065 7.21849 1.65076 8.31868C1.56249 9.39911 1.5625 10.7434 1.5625 12.458V12.5V17.5V17.542C1.5625 19.2566 1.56249 20.6009 1.65076 21.6814C1.74065 22.7815 1.92673 23.6904 2.34589 24.513C3.03498 25.8655 4.13453 26.965 5.48694 27.6541C6.30961 28.0732 7.21849 28.2594 8.31868 28.3492C9.39909 28.4375 10.7434 28.4375 12.458 28.4375H12.5H20H20.101C21.166 28.4376 21.8148 28.4376 22.3744 28.349C25.4499 27.8619 27.8619 25.4499 28.349 22.3744C28.4376 21.8148 28.4376 21.166 28.4375 20.101V20V18.75C28.4375 18.2323 28.0177 17.8125 27.5 17.8125C26.9823 17.8125 26.5625 18.2323 26.5625 18.75V20C26.5625 21.1971 26.5596 21.6865 26.4971 22.081C26.137 24.3542 24.3542 26.137 22.081 26.4971C21.6865 26.5596 21.1971 26.5625 20 26.5625H12.5C10.7344 26.5625 9.46653 26.5618 8.47135 26.4805C7.48712 26.4 6.85246 26.2455 6.33817 25.9835C5.33856 25.4741 4.52585 24.6614 4.01652 23.6619C3.75449 23.1475 3.59995 22.5129 3.51954 21.5286C3.43822 20.5335 3.4375 19.2656 3.4375 17.5V12.5C3.4375 10.7344 3.43822 9.46653 3.51954 8.47135C3.59995 7.48712 3.75449 6.85246 4.01652 6.33817C4.52585 5.33856 5.33856 4.52585 6.33817 4.01652C6.85246 3.75449 7.48712 3.59995 8.47135 3.51954C9.46653 3.43822 10.7344 3.4375 12.5 3.4375H18.75C19.2677 3.4375 19.6875 3.01776 19.6875 2.5C19.6875 1.98224 19.2677 1.5625 18.75 1.5625H12.5ZM26.9129 8.16291C27.279 7.7968 27.279 7.2032 26.9129 6.83709C26.5468 6.47097 25.9532 6.47097 25.5871 6.83709L14.9573 17.4669L10.6174 13.6695C10.2277 13.3285 9.63541 13.368 9.29446 13.7576C8.95351 14.1472 8.99299 14.7396 9.38265 15.0805L14.3826 19.4555C14.7541 19.7805 15.3139 19.7619 15.6629 19.4129L26.9129 8.16291Z" fill="#0F3E84"/>
</svg>
