<svg width="60" height="60" viewBox="0 0 60 60" fill="none" xmlns="http://www.w3.org/2000/svg">
<g clip-path="url(#clip0_93_1245)">
<path d="M47 0H36.875C36.625 0 36.4375 0.125 36.3125 0.3125L30 12.125L23.6875 0.3125C23.5625 0.125 23.375 0 23.125 0H13C12.8125 0 12.625 0.125 12.5 0.25V0.3125C12.375 0.5 12.375 0.75 12.5 0.9375L22.5 19.8125H18.625C17.4375 19.8125 16.4375 20.8125 16.4375 22V57.8125C16.4375 59 17.4375 60 18.625 60H41.4375C42.625 60 43.625 59 43.625 57.8125V22C43.625 20.8125 42.625 19.8125 41.4375 19.8125H37.5L47.5625 0.9375C47.8125 0.5 47.5 0 47 0ZM37.25 1.25H41.5L32.8125 17.4375L30.6875 13.4375L37.25 1.25ZM34.0625 22.3125H31L19.6875 1.25H22.75C33.125 20.625 29.75 14.3125 34.0625 22.3125ZM18.25 1.25L29.5625 22.375H25.3125C24.875 21.5 25.6875 23.125 14 1.25H18.25ZM41.375 21.0625C41.875 21.0625 42.3125 21.5 42.3125 22V57.8125C42.3125 58.3125 41.875 58.75 41.375 58.75H18.625C18.125 58.75 17.6875 58.3125 17.6875 57.8125V22C17.6875 21.5 18.125 21.0625 18.625 21.0625H23.1875C24.25 23 24.4375 23.5 24.5625 23.5C24.75 23.625 23.9375 23.625 35.0625 23.625C35.5 23.625 35.8125 23.125 35.625 22.6875L34.75 21.0625C35.25 21.0625 41.75 21.0625 41.375 21.0625ZM36.0625 19.8125H34.0625L33.5 18.8125L42.9375 1.25H46L36.0625 19.8125Z" fill="#0F3E84"/>
<path d="M20.8125 26.3125V43.875C20.8125 44.25 21.0625 44.5 21.4375 44.5H38.5C38.875 44.5 39.125 44.25 39.125 43.875V26.3125C39.125 25.9375 38.875 25.6875 38.5 25.6875H21.4375C21.125 25.6875 20.8125 26 20.8125 26.3125ZM33 43.25V41.25C33 40.875 32.75 40.625 32.375 40.625C32 40.625 31.75 40.875 31.75 41.25V43.25H28.1875V41.25C28.1875 40.875 27.9375 40.625 27.5625 40.625C27.1875 40.625 26.9375 40.875 26.9375 41.25V43.25H25.5V39.6875C25.5 38.5 26.4375 37.5625 27.625 37.5625H28V37.8125C27.9375 38.875 28.75 39.8125 29.8125 39.875C30.875 39.9375 31.8125 39.125 31.875 38.0625C31.875 38 31.875 37.625 31.875 37.5625H32.25C33.4375 37.5625 34.375 38.5 34.375 39.6875V43.25H33ZM30.6875 37.5625V37.8125C30.75 38.1875 30.4375 38.5 30.0625 38.5625C29.625 38.625 29.25 38.25 29.3125 37.8125V37.5625H30.6875ZM30 36.3125C28.4375 36.3125 27.125 35.0625 27.125 33.4375C27.125 31.8125 28.375 30.5625 30 30.5625C31.625 30.5625 32.875 31.8125 32.875 33.4375C32.875 35.0625 31.5625 36.3125 30 36.3125ZM22.0625 26.9375H37.875V43.25H35.6875V39.6875C35.6875 38.0625 34.5 36.625 32.875 36.375C34.5 34.75 34.5 32.1875 32.875 30.5625C31.25 28.9375 28.6875 28.9375 27.0625 30.5625C25.4375 32.1875 25.4375 34.8125 27.0625 36.375C25.4375 36.6875 24.25 38.0625 24.25 39.6875V43.25H22.0625V26.9375Z" fill="#0F3E84"/>
<path d="M36.875 46.25H23.125C22.75 46.25 22.5 46.5 22.5 46.875V49.9375C22.5 50.3125 22.75 50.5625 23.125 50.5625H36.875C37.25 50.5625 37.5 50.3125 37.5 49.9375V46.875C37.5 46.5 37.25 46.25 36.875 46.25ZM36.25 49.3125H23.75V47.5H36.25V49.3125Z" fill="#0F3E84"/>
<path d="M35.0625 52.625H24.9375C24.5625 52.625 24.3125 52.875 24.3125 53.25C24.3125 53.625 24.5625 53.875 24.9375 53.875H35.0625C35.4375 53.875 35.6875 53.625 35.6875 53.25C35.6875 52.875 35.4375 52.625 35.0625 52.625Z" fill="#0F3E84"/>
<path d="M35.0625 55.25H24.9375C24.5625 55.25 24.3125 55.5 24.3125 55.875C24.3125 56.25 24.5625 56.5 24.9375 56.5H35.0625C35.4375 56.5 35.6875 56.25 35.6875 55.875C35.6875 55.5 35.4375 55.25 35.0625 55.25Z" fill="#0F3E84"/>
</g>
<defs>
<clipPath id="clip0_93_1245">
<rect width="60" height="60" fill="white"/>
</clipPath>
</defs>
</svg>
