<svg width="60" height="60" viewBox="0 0 60 60" fill="none" xmlns="http://www.w3.org/2000/svg">
<g clip-path="url(#clip0_93_1206)">
<path d="M18.25 20.25H38.5C38.875 20.25 39.125 20 39.125 19.625C39.125 19.25 38.875 19 38.5 19H18.25C17.875 19 17.625 19.25 17.625 19.625C17.625 20 17.875 20.25 18.25 20.25Z" fill="#0F3E84"/>
<path d="M25.5625 46H18.25C17.875 46 17.625 46.25 17.625 46.625C17.625 47 17.875 47.25 18.25 47.25H25.5625C25.9375 47.25 26.1875 47 26.1875 46.625C26.1875 46.25 25.9375 46 25.5625 46Z" fill="#0F3E84"/>
<path d="M14.8125 17.4375H12.625C11.8125 17.4375 11.1875 18.125 11.1875 18.875V20.25C11.1875 21.0625 11.8125 21.6875 12.625 21.6875H14.8125C15.625 21.6875 16.25 21 16.25 20.25V18.875C16.3125 18.125 15.625 17.4375 14.8125 17.4375ZM15 20.25C15 20.375 14.9375 20.4375 14.8125 20.4375H12.625C12.5 20.4375 12.4375 20.3125 12.4375 20.25V18.875C12.4375 18.75 12.5 18.6875 12.625 18.6875H14.8125C14.9375 18.6875 15 18.8125 15 18.875V20.25Z" fill="#0F3E84"/>
<path d="M14.8125 26.5H12.625C11.8125 26.5 11.1875 27.1875 11.1875 27.9375V29.3125C11.1875 30.125 11.8125 30.75 12.625 30.75H14.8125C15.625 30.75 16.25 30.0625 16.25 29.3125V27.9375C16.3125 27.125 15.625 26.5 14.8125 26.5ZM15 29.3125C15 29.4375 14.9375 29.5 14.8125 29.5H12.625C12.5 29.5 12.4375 29.375 12.4375 29.3125V27.9375C12.4375 27.8125 12.5 27.75 12.625 27.75H14.8125C14.9375 27.75 15 27.875 15 27.9375V29.3125Z" fill="#0F3E84"/>
<path d="M14.8125 35.5H12.625C11.8125 35.5 11.1875 36.1875 11.1875 36.9375V38.3125C11.1875 39.125 11.8125 39.75 12.625 39.75H14.8125C15.625 39.75 16.25 39.0625 16.25 38.3125V36.9375C16.3125 36.1875 15.625 35.5 14.8125 35.5ZM15 38.3125C15 38.4375 14.9375 38.5 14.8125 38.5H12.625C12.5 38.5 12.4375 38.375 12.4375 38.3125V36.9375C12.4375 36.8125 12.5 36.75 12.625 36.75H14.8125C14.9375 36.75 15 36.875 15 36.9375V38.3125Z" fill="#0F3E84"/>
<path d="M14.8125 44.5H12.625C11.8125 44.5 11.1875 45.1875 11.1875 45.9375V47.3125C11.1875 48.125 11.8125 48.75 12.625 48.75H14.8125C15.625 48.75 16.25 48.0625 16.25 47.3125V45.9375C16.3125 45.1875 15.625 44.5 14.8125 44.5ZM15 47.3125C15 47.4375 14.9375 47.5 14.8125 47.5H12.625C12.5 47.5 12.4375 47.375 12.4375 47.3125V45.9375C12.4375 45.8125 12.5 45.75 12.625 45.75H14.8125C14.9375 45.75 15 45.875 15 45.9375V47.3125Z" fill="#0F3E84"/>
<path d="M57.875 52.875L56.5 51.5L54.3125 49.3125L50.75 45.75C50.3125 45.3125 49.625 45.125 49 45.3125L46.375 42.6875V42.5625C49.0625 38.4375 49.0625 33.0625 46.375 28.9375V11.9375C46.375 11.125 46.125 10.3125 45.5 9.6875C45.375 9.5 45.3125 9.4375 45.0625 9.1875C36.5625 0.625 36.75 0.6875 35.9375 0.3125C35.5 0.125 35 0 34.5 0H9.375C7.4375 0 5.875 1.5625 5.875 3.5V4.1875H5.0625C3.1875 4.1875 1.625 5.75 1.625 7.625V56.5625C1.625 58.4375 3.1875 60 5.0625 60H38.6875C40.5625 60 42.125 58.4375 42.125 56.5625V56.0625H42.875C44.8125 56.0625 46.375 54.5 46.375 52.5625V51.5L47.0625 52.1875L52.8125 57.9375C53.5 58.625 54.5625 58.625 55.25 57.9375L57.875 55.3125C58.5 54.625 58.5 53.5625 57.875 52.875ZM50.5625 53.9375L53.8125 50.625L55.125 51.9375L51.875 55.1875L50.5625 53.9375ZM48.375 51.75L51.625 48.5L52.9375 49.8125L49.6875 53.0625L48.375 51.75ZM46.375 39.875C45.9375 41.0625 45.4375 41.75 45 42.4375C44.8125 42.6875 44.875 43 45.0625 43.25L47.9375 46.125L46 48.0625C44.875 46.875 45.5625 47.5 43.125 45.125C42.9375 44.9375 42.5625 44.875 42.3125 45.0625C37.8125 48.3125 31.625 47.75 27.6875 43.875C23.375 39.625 23.1875 32.5 27.4375 28C33.3125 21.8125 43.4375 24 46.375 31.75C48.0625 36.125 46.375 39.8125 46.375 39.875ZM36.3125 2.125C36.6875 2.5 43.8125 9.625 44.25 10.0625H36.3125V2.125ZM40.9375 56.5625C40.9375 57.75 39.9375 58.75 38.75 58.75H5.0625C3.875 58.75 2.875 57.75 2.875 56.5625V7.625C2.875 6.4375 3.875 5.4375 5.0625 5.4375H5.8125V52.5625C5.8125 54.5 7.375 56.0625 9.3125 56.0625H40.875V56.5625H40.9375ZM45.125 52.5625C45.125 53.8125 44.125 54.8125 42.875 54.8125H9.375C8.125 54.8125 7.125 53.8125 7.125 52.5625V3.5C7.125 2.25 8.125 1.25 9.375 1.25C36.3125 1.25 34.625 1.1875 35.0625 1.3125V10.6875C35.0625 11.0625 35.3125 11.3125 35.6875 11.3125H45.0625C45.1875 11.75 45.125 10.4375 45.125 27.3125C42 23.75 37.1875 22.5 32.9375 23.5H18.25C17.875 23.5 17.625 23.75 17.625 24.125C17.625 24.5 17.875 24.75 18.25 24.75H29.625C28.1875 25.5 26.875 26.5625 25.8125 28H18.25C17.875 28 17.625 28.25 17.625 28.625C17.625 29 17.875 29.25 18.25 29.25H24.9375C24.3125 30.25 23.875 31.375 23.5625 32.5H18.25C17.875 32.5 17.625 32.75 17.625 33.125C17.625 33.5 17.875 33.75 18.25 33.75H23.25C23.0625 34.8125 23.0625 35.9375 23.125 37H18.25C17.875 37 17.625 37.25 17.625 37.625C17.625 38 17.875 38.25 18.25 38.25H23.3125C23.5625 39.375 23.9375 40.5 24.4375 41.5H18.25C17.875 41.5 17.625 41.75 17.625 42.125C17.625 42.5 17.875 42.75 18.25 42.75H25.1875C29 48.5625 36.8125 50.1875 42.625 46.375L45.125 48.875V52.5625ZM46.5625 49.9375C46.375 49.75 46.375 49.4375 46.5625 49.25L49.1875 46.625C49.375 46.4375 49.6875 46.4375 49.875 46.625C49.875 46.625 49.8125 46.5625 50.8125 47.5625L47.5 50.875L46.5625 49.9375ZM56.9375 54.4375L54.375 57C54.1875 57.1875 53.875 57.1875 53.6875 57L52.75 56.0625L56 52.8125L56.9375 53.75C57.125 53.9375 57.125 54.25 56.9375 54.4375Z" fill="#0F3E84"/>
<path d="M29.6875 29.75C26.3125 33.125 26.3125 38.5 29.6875 41.875C33.0625 45.25 38.4375 45.25 41.8125 41.875C45.1875 38.5 45.125 33.0625 41.8125 29.75C38.4375 26.375 33 26.375 29.6875 29.75ZM40.9375 41C38.0625 43.875 33.4375 43.875 30.5625 41C27.6875 38.125 27.6875 33.5 30.5625 30.625C33.4375 27.75 38.0625 27.75 40.875 30.625C43.8125 33.5 43.8125 38.125 40.9375 41Z" fill="#0F3E84"/>
<path d="M34.75 37.25L33.1875 35.4375C32.625 35 31.8125 35.625 32.1875 36.25L34.1875 38.625C34.4375 38.875 34.8125 38.9375 35.125 38.625L39.625 33.8125C39.875 33.5625 39.875 33.1875 39.625 32.9375C39.375 32.6875 39 32.6875 38.75 32.9375C38.8125 33 39 32.75 34.75 37.25Z" fill="#0F3E84"/>
</g>
<defs>
<clipPath id="clip0_93_1206">
<rect width="60" height="60" fill="white"/>
</clipPath>
</defs>
</svg>
