<svg width="60" height="60" viewBox="0 0 60 60" fill="none" xmlns="http://www.w3.org/2000/svg">
<g clip-path="url(#clip0_93_1223)">
<path d="M58.7062 17.7939V15.2939C58.7062 15.1281 58.6404 14.9691 58.5232 14.8519C58.4059 14.7347 58.247 14.6689 58.0812 14.6689H30.2875C29.9983 14.6689 29.7163 14.5785 29.481 14.4104C29.2457 14.2423 29.0687 14.0049 28.975 13.7314L28.0125 10.9126H58.0812C58.247 10.9126 58.4059 10.8468 58.5232 10.7295C58.6404 10.6123 58.7062 10.4534 58.7062 10.2876V5.89385C58.7062 5.72809 58.6404 5.56912 58.5232 5.45191C58.4059 5.3347 58.247 5.26885 58.0812 5.26885H26.0687L26.025 5.1376C25.8333 4.579 25.4718 4.09431 24.991 3.75138C24.5102 3.40844 23.9343 3.22443 23.3437 3.2251H16.0375C15.2866 3.2251 14.5664 3.52339 14.0355 4.05435C13.5045 4.58532 13.2062 5.30546 13.2062 6.05635V17.7939C12.8283 17.942 12.5033 18.1996 12.2728 18.5337C12.0423 18.8677 11.9168 19.263 11.9125 19.6689V22.5001H5.3937C5.22794 22.5001 5.06897 22.566 4.95176 22.6832C4.83455 22.8004 4.7687 22.9593 4.7687 23.1251V31.1751L1.0687 27.5001C1.01723 27.4254 0.950108 27.3628 0.872009 27.3167C0.79391 27.2705 0.706702 27.2419 0.616442 27.2329C0.526181 27.2238 0.435033 27.2345 0.349326 27.2643C0.263619 27.294 0.185408 27.342 0.120125 27.405C0.0548425 27.468 0.00405265 27.5444 -0.028717 27.629C-0.0614866 27.7136 -0.0754505 27.8043 -0.0696388 27.8948C-0.0638271 27.9853 -0.0383792 28.0735 0.0049376 28.1532C0.0482544 28.2329 0.108402 28.3022 0.181202 28.3564L4.7687 32.9439V38.9439L1.0687 35.2376C0.951013 35.1199 0.791391 35.0538 0.624952 35.0538C0.458514 35.0538 0.298892 35.1199 0.181202 35.2376C0.0635125 35.3553 -0.00260491 35.5149 -0.00260492 35.6814C-0.00260492 35.8478 0.0635125 36.0074 0.181202 36.1251L4.7687 40.7126V46.7126L1.0687 43.0064C0.951013 42.8887 0.791391 42.8225 0.624952 42.8225C0.458514 42.8225 0.298892 42.8887 0.181202 43.0064C0.0635125 43.124 -0.00260492 43.2837 -0.00260492 43.4501C-0.00260492 43.6165 0.0635125 43.7762 0.181202 43.8939L4.7687 48.4814V50.1064C4.7687 50.2721 4.83455 50.4311 4.95176 50.5483C5.06897 50.6655 5.22794 50.7314 5.3937 50.7314H11.9125V50.9939C11.9125 51.6055 12.1554 52.1921 12.5879 52.6246C13.0204 53.0571 13.607 53.3001 14.2187 53.3001H14.7V56.1501C14.7 56.3159 14.7658 56.4748 14.883 56.592C15.0002 56.7093 15.1592 56.7751 15.325 56.7751H20.4562C20.622 56.7751 20.7809 56.7093 20.8981 56.592C21.0154 56.4748 21.0812 56.3159 21.0812 56.1501V53.3001H50.8375V56.1501C50.8375 56.3159 50.9033 56.4748 51.0205 56.592C51.1377 56.7093 51.2967 56.7751 51.4625 56.7751H56.5875C56.7532 56.7751 56.9122 56.7093 57.0294 56.592C57.1466 56.4748 57.2125 56.3159 57.2125 56.1501V53.3001H57.6937C58.3054 53.3001 58.892 53.0571 59.3245 52.6246C59.757 52.1921 60 51.6055 60 50.9939V19.6814C59.9981 19.2734 59.8738 18.8753 59.6431 18.5388C59.4124 18.2023 59.086 17.9428 58.7062 17.7939ZM41.3875 43.8126L40.1812 41.1189C40.1328 41.008 40.0534 40.9136 39.9524 40.8471C39.8515 40.7805 39.7334 40.7446 39.6125 40.7439H32.3062C32.1842 40.7434 32.0648 40.7787 31.9626 40.8453C31.8604 40.912 31.78 41.0071 31.7312 41.1189L30.525 43.8126H13.1625V36.8314H58.75V43.8126H41.3875ZM40 43.8126H31.875L32.6875 41.9939H39.1875L40 43.8126ZM58.75 35.5814H44.575V31.0126H58.75V35.5814ZM43.325 35.5814H13.1625V31.0126H43.325V35.5814ZM58.75 25.0814H48.9937C48.8911 25.0814 48.7895 25.0611 48.6947 25.0219C48.5999 24.9826 48.5138 24.9251 48.4413 24.8525C48.3687 24.78 48.3112 24.6939 48.2719 24.5991C48.2327 24.5043 48.2125 24.4027 48.2125 24.3001V19.6814C48.2125 19.4742 48.2948 19.2754 48.4413 19.1289C48.5878 18.9824 48.7865 18.9001 48.9937 18.9001H57.9687C58.1759 18.9001 58.3746 18.9824 58.5211 19.1289C58.6676 19.2754 58.75 19.4742 58.75 19.6814V25.0814ZM57.4562 9.68135H36.6375V6.51885H57.4562V9.68135ZM35.3875 6.51885V9.68135H27.5812L26.5 6.51885H35.3875ZM14.4562 6.05635C14.4562 5.63698 14.6228 5.23478 14.9193 4.93824C15.2159 4.6417 15.6181 4.4751 16.0375 4.4751H23.3437C23.6225 4.47443 23.8966 4.5475 24.138 4.6869C24.3795 4.82629 24.5798 5.02706 24.7187 5.26885C24.7704 5.35562 24.8123 5.44785 24.8437 5.54385L25.175 6.51885L26.25 9.68135L26.675 10.9314L27.7812 14.1564C27.9599 14.677 28.2971 15.1287 28.7454 15.4481C29.1937 15.7676 29.7307 15.9387 30.2812 15.9376H57.4562V17.6501H14.4562V6.05635ZM13.1625 19.6814C13.1625 19.4742 13.2448 19.2754 13.3913 19.1289C13.5378 18.9824 13.7365 18.9001 13.9437 18.9001H47.1187C47.016 19.1478 46.9629 19.4132 46.9625 19.6814V24.3001C46.9625 24.8388 47.1765 25.3555 47.5574 25.7364C47.9383 26.1173 48.455 26.3314 48.9937 26.3314H58.75V29.7626H13.1625V19.6814ZM6.0187 49.4814V23.7501H11.9125V49.4814H6.0187ZM19.8312 55.5251H15.95V53.3001H19.8312V55.5251ZM31.875 52.0501L32.6875 50.2314H39.1875L40 52.0501H31.875ZM55.9437 55.5251H52.0687V53.3001H55.9437V55.5251ZM58.75 50.9939C58.75 51.274 58.6387 51.5427 58.4406 51.7407C58.2425 51.9388 57.9738 52.0501 57.6937 52.0501H41.3875L40.1812 49.3751C40.1319 49.2654 40.052 49.1723 39.9512 49.1069C39.8503 49.0415 39.7327 49.0066 39.6125 49.0064H32.3062C32.1849 49.0054 32.066 49.0398 31.9639 49.1052C31.8618 49.1707 31.7809 49.2645 31.7312 49.3751L30.525 52.0751H14.2187C13.9386 52.0751 13.6699 51.9638 13.4718 51.7657C13.2737 51.5677 13.1625 51.299 13.1625 51.0189V45.0626H58.75V50.9939Z" fill="#0F3E84"/>
<path d="M17.1375 28.1876H27.85C28.0319 28.1876 28.212 28.1517 28.38 28.0819C28.548 28.0121 28.7006 27.9098 28.8289 27.7809C28.9572 27.652 29.0589 27.499 29.1279 27.3306C29.197 27.1623 29.2321 26.9821 29.2312 26.8001V21.8751C29.2312 21.5088 29.0857 21.1575 28.8267 20.8985C28.5677 20.6394 28.2163 20.4939 27.85 20.4939H17.1375C16.7706 20.4939 16.4186 20.6392 16.1586 20.8981C15.8986 21.1569 15.7517 21.5082 15.75 21.8751V26.8126C15.7533 27.1785 15.9009 27.5282 16.1608 27.7857C16.4206 28.0432 16.7717 28.1877 17.1375 28.1876ZM17 21.8751C17 21.8574 17.0036 21.8398 17.0106 21.8234C17.0175 21.8071 17.0278 21.7923 17.0406 21.7801C17.0535 21.7678 17.0687 21.7582 17.0854 21.752C17.102 21.7458 17.1197 21.7431 17.1375 21.7439H27.85C27.8848 21.7439 27.9182 21.7577 27.9428 21.7823C27.9674 21.807 27.9812 21.8403 27.9812 21.8751V26.8126C27.9821 26.8304 27.9793 26.8481 27.9731 26.8648C27.9669 26.8814 27.9574 26.8967 27.9451 26.9095C27.9328 26.9224 27.9181 26.9326 27.9017 26.9396C27.8854 26.9466 27.8678 26.9502 27.85 26.9501H17.1375C17.101 26.9501 17.0661 26.9357 17.0403 26.9099C17.0145 26.8841 17 26.8491 17 26.8126V21.8751Z" fill="#0F3E84"/>
<path d="M16.9562 33.9189H38.3812C38.5469 33.9189 38.7059 33.8531 38.8231 33.7359C38.9403 33.6187 39.0062 33.4597 39.0062 33.2939C39.0062 33.1282 38.9403 32.9692 38.8231 32.852C38.7059 32.7348 38.5469 32.6689 38.3812 32.6689H16.9562C16.7904 32.6689 16.6314 32.7348 16.5142 32.852C16.397 32.9692 16.3312 33.1282 16.3312 33.2939C16.3312 33.4597 16.397 33.6187 16.5142 33.7359C16.6314 33.8531 16.7904 33.9189 16.9562 33.9189Z" fill="#0F3E84"/>
<path d="M32.0812 21.7314H32.7062C32.8719 21.7314 33.0309 21.6656 33.1481 21.5484C33.2653 21.4312 33.3312 21.2722 33.3312 21.1064C33.3312 20.9407 33.2653 20.7817 33.1481 20.6645C33.0309 20.5473 32.8719 20.4814 32.7062 20.4814H32.0812C31.9154 20.4814 31.7564 20.5473 31.6392 20.6645C31.522 20.7817 31.4562 20.9407 31.4562 21.1064C31.4562 21.2722 31.522 21.4312 31.6392 21.5484C31.7564 21.6656 31.9154 21.7314 32.0812 21.7314Z" fill="#0F3E84"/>
<path d="M35.3374 21.7314H35.9624C36.1282 21.7314 36.2871 21.6656 36.4043 21.5484C36.5216 21.4312 36.5874 21.2722 36.5874 21.1064C36.5874 20.9407 36.5216 20.7817 36.4043 20.6645C36.2871 20.5473 36.1282 20.4814 35.9624 20.4814H35.3374C35.1716 20.4814 35.0127 20.5473 34.8955 20.6645C34.7782 20.7817 34.7124 20.9407 34.7124 21.1064C34.7124 21.2722 34.7782 21.4312 34.8955 21.5484C35.0127 21.6656 35.1716 21.7314 35.3374 21.7314Z" fill="#0F3E84"/>
<path d="M38.5938 21.7314H39.2188C39.3845 21.7314 39.5435 21.6656 39.6607 21.5484C39.7779 21.4312 39.8438 21.2722 39.8438 21.1064C39.8438 20.9407 39.7779 20.7817 39.6607 20.6645C39.5435 20.5473 39.3845 20.4814 39.2188 20.4814H38.5938C38.428 20.4814 38.269 20.5473 38.1518 20.6645C38.0346 20.7817 37.9688 20.9407 37.9688 21.1064C37.9688 21.2722 38.0346 21.4312 38.1518 21.5484C38.269 21.6656 38.428 21.7314 38.5938 21.7314Z" fill="#0F3E84"/>
<path d="M32.0812 24.9563H32.7062C32.8719 24.9563 33.0309 24.8905 33.1481 24.7732C33.2653 24.656 33.3312 24.4971 33.3312 24.3313C33.3312 24.1655 33.2653 24.0066 33.1481 23.8894C33.0309 23.7721 32.8719 23.7063 32.7062 23.7063H32.0812C31.9154 23.7063 31.7564 23.7721 31.6392 23.8894C31.522 24.0066 31.4562 24.1655 31.4562 24.3313C31.4562 24.4971 31.522 24.656 31.6392 24.7732C31.7564 24.8905 31.9154 24.9563 32.0812 24.9563Z" fill="#0F3E84"/>
<path d="M35.3374 24.9563H35.9624C36.1282 24.9563 36.2871 24.8905 36.4043 24.7732C36.5216 24.656 36.5874 24.4971 36.5874 24.3313C36.5874 24.1655 36.5216 24.0066 36.4043 23.8894C36.2871 23.7721 36.1282 23.7063 35.9624 23.7063H35.3374C35.1716 23.7063 35.0127 23.7721 34.8955 23.8894C34.7782 24.0066 34.7124 24.1655 34.7124 24.3313C34.7124 24.4971 34.7782 24.656 34.8955 24.7732C35.0127 24.8905 35.1716 24.9563 35.3374 24.9563Z" fill="#0F3E84"/>
<path d="M38.5938 24.9563H39.2188C39.3845 24.9563 39.5435 24.8905 39.6607 24.7732C39.7779 24.656 39.8438 24.4971 39.8438 24.3313C39.8438 24.1655 39.7779 24.0066 39.6607 23.8894C39.5435 23.7721 39.3845 23.7063 39.2188 23.7063H38.5938C38.428 23.7063 38.269 23.7721 38.1518 23.8894C38.0346 24.0066 37.9688 24.1655 37.9688 24.3313C37.9688 24.4971 38.0346 24.656 38.1518 24.7732C38.269 24.8905 38.428 24.9563 38.5938 24.9563Z" fill="#0F3E84"/>
<path d="M32.0812 28.1875H32.7062C32.8719 28.1875 33.0309 28.1217 33.1481 28.0044C33.2653 27.8872 33.3312 27.7283 33.3312 27.5625C33.3312 27.3967 33.2653 27.2378 33.1481 27.1206C33.0309 27.0033 32.8719 26.9375 32.7062 26.9375H32.0812C31.9154 26.9375 31.7564 27.0033 31.6392 27.1206C31.522 27.2378 31.4562 27.3967 31.4562 27.5625C31.4562 27.7283 31.522 27.8872 31.6392 28.0044C31.7564 28.1217 31.9154 28.1875 32.0812 28.1875Z" fill="#0F3E84"/>
<path d="M35.3374 28.1875H35.9624C36.1282 28.1875 36.2871 28.1217 36.4043 28.0044C36.5216 27.8872 36.5874 27.7283 36.5874 27.5625C36.5874 27.3967 36.5216 27.2378 36.4043 27.1206C36.2871 27.0033 36.1282 26.9375 35.9624 26.9375H35.3374C35.1716 26.9375 35.0127 27.0033 34.8955 27.1206C34.7782 27.2378 34.7124 27.3967 34.7124 27.5625C34.7124 27.7283 34.7782 27.8872 34.8955 28.0044C35.0127 28.1217 35.1716 28.1875 35.3374 28.1875Z" fill="#0F3E84"/>
<path d="M38.5938 28.1875H39.2188C39.3845 28.1875 39.5435 28.1217 39.6607 28.0044C39.7779 27.8872 39.8438 27.7283 39.8438 27.5625C39.8438 27.3967 39.7779 27.2378 39.6607 27.1206C39.5435 27.0033 39.3845 26.9375 39.2188 26.9375H38.5938C38.428 26.9375 38.269 27.0033 38.1518 27.1206C38.0346 27.2378 37.9688 27.3967 37.9688 27.5625C37.9688 27.7283 38.0346 27.8872 38.1518 28.0044C38.269 28.1217 38.428 28.1875 38.5938 28.1875Z" fill="#0F3E84"/>
<path d="M22.8374 14.6938H17.7062C17.5404 14.6938 17.3814 14.7597 17.2642 14.8769C17.147 14.9941 17.0812 15.1531 17.0812 15.3188C17.0812 15.4846 17.147 15.6436 17.2642 15.7608C17.3814 15.878 17.5404 15.9438 17.7062 15.9438H22.8374C23.0032 15.9438 23.1622 15.878 23.2794 15.7608C23.3966 15.6436 23.4624 15.4846 23.4624 15.3188C23.4624 15.1531 23.3966 14.9941 23.2794 14.8769C23.1622 14.7597 23.0032 14.6938 22.8374 14.6938Z" fill="#0F3E84"/>
<path d="M20.2749 13.0501C20.8386 13.0501 21.3896 12.8829 21.8583 12.5698C22.327 12.2566 22.6923 11.8115 22.908 11.2907C23.1237 10.77 23.1801 10.1969 23.0702 9.64409C22.9602 9.09125 22.6888 8.58342 22.2902 8.18484C21.8916 7.78627 21.3838 7.51483 20.8309 7.40486C20.2781 7.29489 19.705 7.35133 19.1843 7.56704C18.6635 7.78275 18.2184 8.14804 17.9052 8.61672C17.5921 9.0854 17.4249 9.63642 17.4249 10.2001C17.4249 10.956 17.7252 11.6809 18.2597 12.2154C18.7942 12.7498 19.5191 13.0501 20.2749 13.0501ZM20.2749 8.60635C20.5916 8.60635 20.9012 8.70035 21.1645 8.87644C21.4277 9.05253 21.6328 9.30278 21.7537 9.59551C21.8746 9.88823 21.906 10.2103 21.8437 10.5208C21.7815 10.8313 21.6285 11.1164 21.4041 11.3399C21.1797 11.5634 20.894 11.7153 20.5832 11.7764C20.2724 11.8374 19.9505 11.8048 19.6583 11.6828C19.366 11.5607 19.1166 11.3546 18.9415 11.0907C18.7665 10.8268 18.6737 10.5168 18.6749 10.2001C18.6766 9.77684 18.8459 9.37147 19.1458 9.07277C19.4456 8.77406 19.8517 8.60635 20.2749 8.60635Z" fill="#0F3E84"/>
</g>
<defs>
<clipPath id="clip0_93_1223">
<rect width="60" height="60" fill="white"/>
</clipPath>
</defs>
</svg>
