<svg width="60" height="60" viewBox="0 0 60 60" fill="none" xmlns="http://www.w3.org/2000/svg">
<g clip-path="url(#clip0_93_1258)">
<path d="M27.1626 15.1001H33.9563C34.1221 15.1001 34.2811 15.0343 34.3983 14.917C34.5155 14.7998 34.5813 14.6409 34.5813 14.4751C34.5813 14.3093 34.5155 14.1504 34.3983 14.0332C34.2811 13.9159 34.1221 13.8501 33.9563 13.8501H27.1626C26.9968 13.8501 26.8379 13.9159 26.7207 14.0332C26.6034 14.1504 26.5376 14.3093 26.5376 14.4751C26.5376 14.6409 26.6034 14.7998 26.7207 14.917C26.8379 15.0343 26.9968 15.1001 27.1626 15.1001Z" fill="#0F3E84"/>
<path d="M27.1626 18.1687H43.0126C43.1784 18.1687 43.3373 18.1029 43.4545 17.9856C43.5718 17.8684 43.6376 17.7095 43.6376 17.5437C43.6376 17.3779 43.5718 17.219 43.4545 17.1018C43.3373 16.9845 43.1784 16.9187 43.0126 16.9187H27.1626C26.9968 16.9187 26.8379 16.9845 26.7207 17.1018C26.6034 17.219 26.5376 17.3779 26.5376 17.5437C26.5376 17.7095 26.6034 17.8684 26.7207 17.9856C26.8379 18.1029 26.9968 18.1687 27.1626 18.1687Z" fill="#0F3E84"/>
<path d="M27.1626 21.25H31.1251C31.2909 21.25 31.4498 21.1842 31.567 21.0669C31.6843 20.9497 31.7501 20.7908 31.7501 20.625C31.7501 20.4592 31.6843 20.3003 31.567 20.1831C31.4498 20.0658 31.2909 20 31.1251 20H27.1626C26.9968 20 26.8379 20.0658 26.7207 20.1831C26.6034 20.3003 26.5376 20.4592 26.5376 20.625C26.5376 20.7908 26.6034 20.9497 26.7207 21.0669C26.8379 21.1842 26.9968 21.25 27.1626 21.25Z" fill="#0F3E84"/>
<path d="M27.1626 25.0813H43.0126C43.1784 25.0813 43.3373 25.0155 43.4545 24.8982C43.5718 24.781 43.6376 24.6221 43.6376 24.4563C43.6376 24.2905 43.5718 24.1316 43.4545 24.0144C43.3373 23.8971 43.1784 23.8313 43.0126 23.8313H27.1626C26.9968 23.8313 26.8379 23.8971 26.7207 24.0144C26.6034 24.1316 26.5376 24.2905 26.5376 24.4563C26.5376 24.6221 26.6034 24.781 26.7207 24.8982C26.8379 25.0155 26.9968 25.0813 27.1626 25.0813Z" fill="#0F3E84"/>
<path d="M27.1626 28.125H43.0126C43.1784 28.125 43.3373 28.0592 43.4545 27.9419C43.5718 27.8247 43.6376 27.6658 43.6376 27.5C43.6376 27.3342 43.5718 27.1753 43.4545 27.0581C43.3373 26.9408 43.1784 26.875 43.0126 26.875H27.1626C26.9968 26.875 26.8379 26.9408 26.7207 27.0581C26.6034 27.1753 26.5376 27.3342 26.5376 27.5C26.5376 27.6658 26.6034 27.8247 26.7207 27.9419C26.8379 28.0592 26.9968 28.125 27.1626 28.125Z" fill="#0F3E84"/>
<path d="M27.1626 31.25H35.0876C35.2534 31.25 35.4123 31.1842 35.5295 31.0669C35.6468 30.9497 35.7126 30.7908 35.7126 30.625C35.7126 30.4592 35.6468 30.3003 35.5295 30.1831C35.4123 30.0658 35.2534 30 35.0876 30H27.1626C26.9968 30 26.8379 30.0658 26.7207 30.1831C26.6034 30.3003 26.5376 30.4592 26.5376 30.625C26.5376 30.7908 26.6034 30.9497 26.7207 31.0669C26.8379 31.1842 26.9968 31.25 27.1626 31.25Z" fill="#0F3E84"/>
<path d="M27.1626 35.0625H43.0126C43.1784 35.0625 43.3373 34.9967 43.4545 34.8794C43.5718 34.7622 43.6376 34.6033 43.6376 34.4375C43.6376 34.2717 43.5718 34.1128 43.4545 33.9956C43.3373 33.8783 43.1784 33.8125 43.0126 33.8125H27.1626C26.9968 33.8125 26.8379 33.8783 26.7207 33.9956C26.6034 34.1128 26.5376 34.2717 26.5376 34.4375C26.5376 34.6033 26.6034 34.7622 26.7207 34.8794C26.8379 34.9967 26.9968 35.0625 27.1626 35.0625Z" fill="#0F3E84"/>
<path d="M43.0125 36.875H33.125C32.9592 36.875 32.8003 36.9408 32.6831 37.0581C32.5658 37.1753 32.5 37.3342 32.5 37.5C32.5 37.6658 32.5658 37.8247 32.6831 37.9419C32.8003 38.0592 32.9592 38.125 33.125 38.125H43C43.1658 38.125 43.3247 38.0592 43.4419 37.9419C43.5592 37.8247 43.625 37.6658 43.625 37.5C43.625 37.3342 43.5592 37.1753 43.4419 37.0581C43.3247 36.9408 43.1658 36.875 43 36.875H43.0125Z" fill="#0F3E84"/>
<path d="M27.1626 41.2H36.0188C36.1846 41.2 36.3436 41.1341 36.4608 41.0169C36.578 40.8997 36.6438 40.7407 36.6438 40.575C36.6438 40.4092 36.578 40.2502 36.4608 40.133C36.3436 40.0158 36.1846 39.95 36.0188 39.95H27.1626C26.9968 39.95 26.8379 40.0158 26.7207 40.133C26.6034 40.2502 26.5376 40.4092 26.5376 40.575C26.5376 40.7407 26.6034 40.8997 26.7207 41.0169C26.8379 41.1341 26.9968 41.2 27.1626 41.2Z" fill="#0F3E84"/>
<path d="M27.1626 45.0376H43.0126C43.1784 45.0376 43.3373 44.9718 43.4545 44.8545C43.5718 44.7373 43.6376 44.5784 43.6376 44.4126C43.6376 44.2468 43.5718 44.0879 43.4545 43.9707C43.3373 43.8534 43.1784 43.7876 43.0126 43.7876H27.1626C26.9968 43.7876 26.8379 43.8534 26.7207 43.9707C26.6034 44.0879 26.5376 44.2468 26.5376 44.4126C26.5376 44.5784 26.6034 44.7373 26.7207 44.8545C26.8379 44.9718 26.9968 45.0376 27.1626 45.0376Z" fill="#0F3E84"/>
<path d="M27.1626 48.125H37.9188C38.0846 48.125 38.2436 48.0592 38.3608 47.9419C38.478 47.8247 38.5438 47.6658 38.5438 47.5C38.5438 47.3342 38.478 47.1753 38.3608 47.0581C38.2436 46.9408 38.0846 46.875 37.9188 46.875H27.1626C26.9968 46.875 26.8379 46.9408 26.7207 47.0581C26.6034 47.1753 26.5376 47.3342 26.5376 47.5C26.5376 47.6658 26.6034 47.8247 26.7207 47.9419C26.8379 48.0592 26.9968 48.125 27.1626 48.125Z" fill="#0F3E84"/>
<path d="M27.1626 51.1812H33.1251C33.2909 51.1812 33.4498 51.1153 33.567 50.9981C33.6843 50.8809 33.7501 50.7219 33.7501 50.5562C33.7501 50.3904 33.6843 50.2314 33.567 50.1142C33.4498 49.997 33.2909 49.9312 33.1251 49.9312H27.1626C26.9968 49.9312 26.8379 49.997 26.7207 50.1142C26.6034 50.2314 26.5376 50.3904 26.5376 50.5562C26.5376 50.7219 26.6034 50.8809 26.7207 50.9981C26.8379 51.1153 26.9968 51.1812 27.1626 51.1812Z" fill="#0F3E84"/>
<path d="M38.4062 15.1001H43.0125C43.1783 15.1001 43.3372 15.0343 43.4544 14.917C43.5717 14.7998 43.6375 14.6409 43.6375 14.4751C43.6375 14.3093 43.5717 14.1504 43.4544 14.0332C43.3372 13.9159 43.1783 13.8501 43.0125 13.8501H38.4062C38.2405 13.8501 38.0815 13.9159 37.9643 14.0332C37.8471 14.1504 37.7812 14.3093 37.7812 14.4751C37.7812 14.6409 37.8471 14.7998 37.9643 14.917C38.0815 15.0343 38.2405 15.1001 38.4062 15.1001Z" fill="#0F3E84"/>
<path d="M34.2812 20C34.1155 20 33.9565 20.0658 33.8393 20.1831C33.7221 20.3003 33.6562 20.4592 33.6562 20.625C33.6562 20.7908 33.7221 20.9497 33.8393 21.0669C33.9565 21.1842 34.1155 21.25 34.2812 21.25H36.0188C36.1845 21.25 36.3435 21.1842 36.4607 21.0669C36.5779 20.9497 36.6438 20.7908 36.6438 20.625C36.6438 20.4592 36.5779 20.3003 36.4607 20.1831C36.3435 20.0658 36.1845 20 36.0188 20H34.2812Z" fill="#0F3E84"/>
<path d="M37.9188 30C37.7531 30 37.5941 30.0658 37.4769 30.1831C37.3597 30.3003 37.2938 30.4592 37.2938 30.625C37.2938 30.7908 37.3597 30.9497 37.4769 31.0669C37.5941 31.1842 37.7531 31.25 37.9188 31.25H39.3751C39.5408 31.25 39.6998 31.1842 39.817 31.0669C39.9342 30.9497 40.0001 30.7908 40.0001 30.625C40.0001 30.4592 39.9342 30.3003 39.817 30.1831C39.6998 30.0658 39.5408 30 39.3751 30H37.9188Z" fill="#0F3E84"/>
<path d="M27.1626 38.125H30.1501C30.3159 38.125 30.4748 38.0592 30.592 37.9419C30.7092 37.8247 30.7751 37.6658 30.7751 37.5C30.7751 37.3342 30.7092 37.1753 30.592 37.0581C30.4748 36.9408 30.3159 36.875 30.1501 36.875H27.1626C26.9968 36.875 26.8379 36.9408 26.7207 37.0581C26.6034 37.1753 26.5376 37.3342 26.5376 37.5C26.5376 37.6658 26.6034 37.8247 26.7207 37.9419C26.8379 38.0592 26.9968 38.125 27.1626 38.125Z" fill="#0F3E84"/>
<path d="M36.9438 49.9312H35.5813C35.4155 49.9312 35.2566 49.997 35.1394 50.1142C35.0221 50.2314 34.9563 50.3904 34.9563 50.5562C34.9563 50.7219 35.0221 50.8809 35.1394 50.9981C35.2566 51.1153 35.4155 51.1812 35.5813 51.1812H36.9438C37.1096 51.1812 37.2685 51.1153 37.3857 50.9981C37.503 50.8809 37.5688 50.7219 37.5688 50.5562C37.5688 50.3904 37.503 50.2314 37.3857 50.1142C37.2685 49.997 37.1096 49.9312 36.9438 49.9312Z" fill="#0F3E84"/>
<path d="M43.0125 46.875H40.7125C40.5468 46.875 40.3878 46.9408 40.2706 47.0581C40.1534 47.1753 40.0875 47.3342 40.0875 47.5C40.0875 47.6658 40.1534 47.8247 40.2706 47.9419C40.3878 48.0592 40.5468 48.125 40.7125 48.125H43.0125C43.1783 48.125 43.3373 48.0592 43.4545 47.9419C43.5717 47.8247 43.6375 47.6658 43.6375 47.5C43.6375 47.3342 43.5717 47.1753 43.4545 47.0581C43.3373 46.9408 43.1783 46.875 43.0125 46.875Z" fill="#0F3E84"/>
<path d="M49.4251 4.0125H39.5188C39.4502 3.58863 39.2324 3.20323 38.9046 2.92587C38.5768 2.64852 38.1607 2.49747 37.7313 2.5H36.5813C36.4377 1.79625 36.056 1.16346 35.5005 0.708127C34.945 0.252798 34.2496 0.00272752 33.5313 0L26.4625 0C25.7443 0.00272752 25.0489 0.252798 24.4934 0.708127C23.9379 1.16346 23.5562 1.79625 23.4125 2.5H22.2625C21.8293 2.49879 21.4102 2.65445 21.0828 2.93823C20.7553 3.222 20.5417 3.61469 20.4813 4.04375H10.5688C9.99967 4.0454 9.45441 4.27265 9.05256 4.67568C8.65071 5.0787 8.42505 5.62462 8.42505 6.19375V57.8625C8.42834 58.4295 8.65546 58.9722 9.05695 59.3725C9.45845 59.7728 10.0018 59.9984 10.5688 60H49.4251C49.991 60 50.5341 59.777 50.9366 59.3791C51.3391 58.9813 51.5685 58.4409 51.5751 57.875V6.1625C51.5751 5.59228 51.3485 5.04542 50.9453 4.64222C50.5421 4.23902 49.9953 4.0125 49.4251 4.0125ZM22.2625 3.75H23.975C24.1408 3.75 24.2998 3.68415 24.417 3.56694C24.5342 3.44973 24.6 3.29076 24.6 3.125C24.6 2.62772 24.7976 2.15081 25.1492 1.79917C25.5009 1.44754 25.9778 1.25 26.475 1.25H33.5313C34.0286 1.25 34.5055 1.44754 34.8571 1.79917C35.2088 2.15081 35.4063 2.62772 35.4063 3.125C35.4063 3.29076 35.4721 3.44973 35.5894 3.56694C35.7066 3.68415 35.8655 3.75 36.0313 3.75H37.7438C37.8919 3.75165 38.0334 3.81163 38.1375 3.91695C38.2417 4.02226 38.3001 4.16439 38.3 4.3125V8.2625C38.2995 8.34118 38.2819 8.41881 38.2485 8.49003C38.215 8.56125 38.1665 8.62436 38.1063 8.675C38.0081 8.76653 37.878 8.8159 37.7438 8.8125H22.2625C22.1284 8.8159 21.9982 8.76653 21.9 8.675C21.8398 8.62436 21.7913 8.56125 21.7579 8.49003C21.7244 8.41881 21.7068 8.34118 21.7063 8.2625V4.28125C21.7063 4.13314 21.7647 3.99101 21.8688 3.8857C21.973 3.78038 22.1144 3.7204 22.2625 3.71875V3.75ZM20.5063 8.675C20.5994 9.07057 20.8237 9.42298 21.1425 9.67491C21.4614 9.92683 21.8562 10.0634 22.2625 10.0625H37.7313C38.1377 10.0634 38.5324 9.92683 38.8513 9.67491C39.1702 9.42298 39.3944 9.07057 39.4875 8.675H46.9438V55.3812H13.05V8.64375L20.5063 8.675ZM50.3251 57.8625C50.3218 58.099 50.2255 58.3247 50.0571 58.4908C49.8886 58.6569 49.6616 58.75 49.4251 58.75H10.5688C10.3312 58.7483 10.1039 58.6528 9.93644 58.4842C9.76901 58.3156 9.67504 58.0876 9.67505 57.85V6.1625C9.67422 6.04461 9.69673 5.92771 9.74128 5.81856C9.78583 5.7094 9.85153 5.61013 9.9346 5.52648C10.0177 5.44282 10.1165 5.37643 10.2253 5.33113C10.3342 5.28582 10.4509 5.2625 10.5688 5.2625H20.4563V7.39375H12.425C12.2593 7.39375 12.1003 7.4596 11.9831 7.57681C11.8659 7.69402 11.8 7.85299 11.8 8.01875V56.0062C11.8 56.172 11.8659 56.331 11.9831 56.4482C12.1003 56.5654 12.2593 56.6312 12.425 56.6312H47.5688C47.7346 56.6312 47.8935 56.5654 48.0107 56.4482C48.128 56.331 48.1938 56.172 48.1938 56.0062V8.01875C48.1938 7.85299 48.128 7.69402 48.0107 7.57681C47.8935 7.4596 47.7346 7.39375 47.5688 7.39375H39.5375V5.2625H49.4251C49.5435 5.26167 49.6609 5.28438 49.7705 5.32932C49.88 5.37425 49.9796 5.44051 50.0633 5.52425C50.147 5.60799 50.2133 5.70754 50.2582 5.8171C50.3032 5.92667 50.3259 6.04408 50.3251 6.1625V57.8625Z" fill="#0F3E84"/>
<path d="M18.4813 51.1812H22.3376C22.8067 51.1812 23.2566 50.9948 23.5883 50.6631C23.92 50.3314 24.1063 49.8815 24.1063 49.4124V46.0374L24.6938 45.4499C24.7521 45.392 24.7984 45.3233 24.8301 45.2475C24.8618 45.1717 24.8783 45.0905 24.8785 45.0084C24.8788 44.9262 24.8629 44.8449 24.8318 44.7689C24.8006 44.6929 24.7548 44.6238 24.6969 44.5655C24.6391 44.5073 24.5703 44.4609 24.4945 44.4293C24.4188 44.3976 24.3375 44.3811 24.2554 44.3808C24.1733 44.3805 24.0919 44.3964 24.0159 44.4276C23.9399 44.4587 23.8708 44.5045 23.8126 44.5624C23.6517 44.3202 23.4334 44.1215 23.1772 43.9841C22.9209 43.8467 22.6346 43.7748 22.3438 43.7749H18.4813C18.0122 43.7749 17.5623 43.9613 17.2306 44.293C16.8989 44.6247 16.7126 45.0746 16.7126 45.5437V49.3999C16.7109 49.6332 16.7555 49.8646 16.8436 50.0806C16.9318 50.2967 17.0618 50.4931 17.2262 50.6587C17.3906 50.8243 17.5861 50.9557 17.8015 51.0453C18.017 51.135 18.248 51.1812 18.4813 51.1812ZM17.9626 45.5562C17.9626 45.4186 18.0172 45.2866 18.1145 45.1893C18.2118 45.0921 18.3437 45.0374 18.4813 45.0374H22.3376C22.4676 45.0372 22.5927 45.0871 22.687 45.1767C22.7812 45.2663 22.8374 45.3888 22.8438 45.5187L20.4626 47.8874L19.4876 46.6374C19.3848 46.5073 19.2345 46.4233 19.0699 46.404C18.9052 46.3846 18.7396 46.4315 18.6094 46.5343C18.4793 46.637 18.3954 46.7873 18.376 46.952C18.3567 47.1167 18.4035 47.2823 18.5063 47.4124L19.9188 49.1937C19.9743 49.2622 20.0436 49.3182 20.1222 49.3581C20.2008 49.3979 20.287 49.4207 20.3751 49.4249H20.4126C20.5765 49.4242 20.7337 49.3591 20.8501 49.2437L22.8563 47.2562V49.3937C22.8563 49.5312 22.8017 49.6632 22.7044 49.7605C22.6071 49.8577 22.4752 49.9124 22.3376 49.9124H18.4813C18.3437 49.9124 18.2118 49.8577 18.1145 49.7605C18.0172 49.6632 17.9626 49.5312 17.9626 49.3937V45.5562Z" fill="#0F3E84"/>
<path d="M18.4813 41.1999H22.3375C22.8066 41.1999 23.2565 41.0135 23.5882 40.6818C23.9199 40.3501 24.1063 39.9002 24.1063 39.4311V35.8374L24.6938 35.2499C24.7888 35.1294 24.8361 34.9782 24.8268 34.825C24.8175 34.6719 24.7522 34.5275 24.6434 34.4194C24.5345 34.3113 24.3896 34.247 24.2364 34.2388C24.0832 34.2306 23.9323 34.279 23.8125 34.3749L23.7063 34.4811C23.5387 34.2821 23.3289 34.1227 23.0922 34.0146C22.8555 33.9065 22.5977 33.8524 22.3375 33.8561H18.4813C18.0133 33.8561 17.5643 34.0416 17.2328 34.372C16.9013 34.7023 16.7142 35.1506 16.7125 35.6186V39.4749C16.7239 39.9364 16.9153 40.3751 17.2458 40.6974C17.5763 41.0197 18.0197 41.2 18.4813 41.1999ZM17.9625 35.5749C17.9642 35.4384 18.0195 35.308 18.1167 35.2121C18.2138 35.1162 18.3448 35.0624 18.4813 35.0624H22.3375C22.4361 35.0627 22.5325 35.0911 22.6155 35.1442C22.6986 35.1973 22.7647 35.273 22.8063 35.3624L20.4625 37.6874L19.4875 36.4374C19.3848 36.3073 19.2345 36.2233 19.0698 36.204C18.9051 36.1846 18.7395 36.2315 18.6094 36.3343C18.4793 36.437 18.3953 36.5873 18.376 36.752C18.3566 36.9166 18.4035 37.0823 18.5063 37.2124L19.9188 38.9936C19.9742 39.0622 20.0435 39.1182 20.1222 39.1581C20.2008 39.1979 20.287 39.2207 20.375 39.2249H20.4125C20.5765 39.2242 20.7336 39.1591 20.85 39.0436L22.8563 37.0561V39.4124C22.8563 39.55 22.8016 39.6819 22.7043 39.7792C22.6071 39.8765 22.4751 39.9311 22.3375 39.9311H18.4813C18.3437 39.9311 18.2117 39.8765 18.1145 39.7792C18.0172 39.6819 17.9625 39.55 17.9625 39.4124V35.5749Z" fill="#0F3E84"/>
<path d="M18.4813 31.25H22.3376C22.8067 31.25 23.2566 31.0637 23.5883 30.732C23.92 30.4003 24.1063 29.9504 24.1063 29.4813V26.1563L24.6938 25.5688C24.7993 25.4515 24.8565 25.2987 24.854 25.141C24.8515 24.9833 24.7895 24.8323 24.6804 24.7184C24.5712 24.6045 24.4231 24.5361 24.2656 24.5269C24.1081 24.5177 23.953 24.5684 23.8313 24.6688C23.6745 24.4133 23.4549 24.2022 23.1934 24.0556C22.932 23.909 22.6373 23.8318 22.3376 23.8313H18.4813C18.2469 23.8313 18.0149 23.8778 17.7986 23.9683C17.5824 24.0587 17.3863 24.1913 17.2217 24.3582C17.0571 24.5251 16.9274 24.723 16.84 24.9405C16.7526 25.158 16.7093 25.3907 16.7126 25.625V29.4813C16.7126 29.9504 16.8989 30.4003 17.2306 30.732C17.5623 31.0637 18.0122 31.25 18.4813 31.25ZM17.9626 25.625C17.9642 25.4886 18.0196 25.3582 18.1167 25.2623C18.2138 25.1663 18.3448 25.1125 18.4813 25.1125H22.3376C22.4741 25.1125 22.6051 25.1663 22.7022 25.2623C22.7993 25.3582 22.8547 25.4886 22.8563 25.625L20.4626 28L19.4876 26.75C19.3848 26.6199 19.2346 26.536 19.0699 26.5166C18.9052 26.4973 18.7396 26.5442 18.6095 26.6469C18.4793 26.7497 18.3954 26.8999 18.376 27.0646C18.3567 27.2293 18.4036 27.3949 18.5063 27.525L19.9188 29.3063C19.9743 29.3748 20.0436 29.4309 20.1222 29.4707C20.2008 29.5106 20.287 29.5334 20.3751 29.5375H20.4126C20.5765 29.5369 20.7337 29.4718 20.8501 29.3563L22.8563 27.3688V29.425C22.8563 29.5626 22.8017 29.6946 22.7044 29.7919C22.6071 29.8891 22.4752 29.9438 22.3376 29.9438H18.4813C18.3437 29.9438 18.2118 29.8891 18.1145 29.7919C18.0172 29.6946 17.9626 29.5626 17.9626 29.425V25.625Z" fill="#0F3E84"/>
<path d="M18.4813 21.25H22.3376C22.8056 21.25 23.2545 21.0645 23.586 20.7341C23.9176 20.4038 24.1047 19.9555 24.1063 19.4875V16.05L24.6938 15.4687C24.7524 15.4106 24.7989 15.3415 24.8306 15.2653C24.8623 15.1891 24.8787 15.1075 24.8787 15.025C24.8787 14.9424 24.8623 14.8608 24.8306 14.7846C24.7989 14.7084 24.7524 14.6393 24.6938 14.5812C24.5767 14.4648 24.4183 14.3995 24.2532 14.3995C24.0881 14.3995 23.9297 14.4648 23.8126 14.5812C23.6496 14.3478 23.4326 14.1571 23.1802 14.0254C22.9278 13.8938 22.6473 13.825 22.3626 13.825H18.4813C18.2464 13.8249 18.0138 13.8717 17.7971 13.9625C17.5805 14.0533 17.3841 14.1864 17.2194 14.354C17.0548 14.5216 16.9251 14.7203 16.8381 14.9385C16.7511 15.1567 16.7084 15.3901 16.7126 15.625V19.4875C16.7142 19.9555 16.9013 20.4038 17.2328 20.7341C17.5643 21.0645 18.0133 21.25 18.4813 21.25ZM17.9626 15.625C17.9642 15.4885 18.0196 15.3581 18.1167 15.2622C18.2138 15.1662 18.3448 15.1124 18.4813 15.1125H22.3376C22.461 15.1117 22.5803 15.1566 22.6726 15.2385C22.7649 15.3204 22.8237 15.4336 22.8376 15.5562L20.4626 17.9187L19.4876 16.6687C19.4367 16.6043 19.3736 16.5505 19.3019 16.5104C19.2303 16.4704 19.1514 16.4448 19.0699 16.4353C18.9883 16.4257 18.9057 16.4323 18.8267 16.4546C18.7477 16.477 18.6739 16.5147 18.6094 16.5656C18.545 16.6165 18.4912 16.6795 18.4512 16.7512C18.4111 16.8229 18.3856 16.9017 18.376 16.9833C18.3664 17.0648 18.373 17.1475 18.3954 17.2264C18.4177 17.3054 18.4554 17.3793 18.5063 17.4437L19.9188 19.225C19.9742 19.2935 20.0436 19.3495 20.1222 19.3894C20.2008 19.4292 20.287 19.452 20.3751 19.4562H20.4126C20.5765 19.4555 20.7336 19.3904 20.8501 19.275L22.8563 17.2875V19.4687C22.8547 19.6052 22.7993 19.7355 22.7022 19.8315C22.6051 19.9274 22.4741 19.9812 22.3376 19.9812H18.4813C18.3448 19.9812 18.2138 19.9274 18.1167 19.8315C18.0196 19.7355 17.9642 19.6052 17.9626 19.4687V15.625Z" fill="#0F3E84"/>
<path d="M25.1001 6.93115H34.9001C35.0659 6.93115 35.2248 6.8653 35.342 6.74809C35.4593 6.63088 35.5251 6.47191 35.5251 6.30615C35.5251 6.14039 35.4593 5.98142 35.342 5.86421C35.2248 5.747 35.0659 5.68115 34.9001 5.68115H25.1001C24.9343 5.68115 24.7754 5.747 24.6582 5.86421C24.5409 5.98142 24.4751 6.14039 24.4751 6.30615C24.4751 6.47191 24.5409 6.63088 24.6582 6.74809C24.7754 6.8653 24.9343 6.93115 25.1001 6.93115Z" fill="#0F3E84"/>
</g>
<defs>
<clipPath id="clip0_93_1258">
<rect width="60" height="60" fill="white"/>
</clipPath>
</defs>
</svg>
