<svg width="60" height="60" viewBox="0 0 60 60" fill="none" xmlns="http://www.w3.org/2000/svg">
<g clip-path="url(#clip0_93_1314)">
<path d="M59.9375 4.125C59.9375 2.6875 58.75 1.5 57.3125 1.5C57.375 1.5 26.4375 1.625 2.62499 1.75C1.12499 1.75 -0.0625098 2.9375 -0.0625098 4.375C-0.0625098 6.0625 -0.12501 -5.0625 0.0624902 44.6875C0.0624902 46.125 1.24999 47.3125 2.68749 47.3125L21.375 47.25V54.125H17.25C16.9375 54.125 16.625 54.4375 16.625 54.75V57.8125C16.625 58 16.75 58.4375 17.25 58.4375L42.75 58.3125C43.125 58.3125 43.375 58.0625 43.375 57.6875V54.625C43.375 54.25 43.125 54 42.75 54C42.8125 54 41.125 54 38.625 54V47.125L57.3125 47.0625C58.8125 47.0625 59.9375 45.875 59.9375 44.4375V4.125ZM42.25 57.125L18 57.25V55.4375L42.25 55.3125V57.125ZM2.56249 3C95.1875 2.625 32.25 2.8125 57.8125 2.8125C58.125 2.9375 58.375 3.1875 58.5 3.5C58.625 3.5 58.5625 3.25 58.6875 39.0625C58.6875 39.8125 58.0625 40.5 57.3125 40.5C57.25 40.5 2.56249 40.75 2.62499 40.75C1.87499 40.75 1.31249 40.125 1.24999 39.4375L1.18749 4.375C1.18749 3.625 1.81249 3 2.56249 3ZM37.5 54.0625L22.6875 54.125V47.25C37.4375 47.1875 34.875 47.1875 37.5 47.1875V54.0625ZM57.4375 45.875C57.25 45.875 2.62499 46.125 2.74999 46.125C1.99999 46.125 1.37499 45.5 1.37499 44.75C1.37499 44.75 1.37499 44.4375 1.37499 41.6875C1.81249 41.9375 2.24999 42.0625 2.74999 42.0625C3.74999 42.0625 -3.50001 42.0625 57.4375 41.8125C57.9375 41.8125 58.4375 41.6875 58.8125 41.375V44.4375C58.8125 45.25 58.1875 45.875 57.4375 45.875Z" fill="#0F3E84"/>
<path d="M9.5625 21.875C9.5625 22.75 10.25 23.375 11.0625 23.375H18.8125C19.625 23.375 20.3125 22.6875 20.3125 21.875V15.875C20.3125 15.0625 19.625 14.375 18.8125 14.375C18.9375 14.375 15.75 14.375 11.0625 14.375C10.25 14.375 9.5625 15.0625 9.5625 15.875V21.875ZM10.875 15.6875C11 15.5625 10.4375 15.625 18.8125 15.625C18.875 15.625 19.0625 15.6875 19.0625 15.875V21.875C19.0625 22 18.9375 22.125 18.8125 22.125C10.4375 22.125 11 22.1875 10.875 22.0625C10.75 21.9375 10.8125 22.375 10.75 15.875C10.8125 15.8125 10.8125 15.75 10.875 15.6875Z" fill="#0F3E84"/>
<path d="M39.9375 16.0625C40.6875 16.0625 37.1875 16.0625 47.5 16C47.875 16 48.125 15.75 48.125 15.375C48.125 15 47.875 14.75 47.5 14.75C47.5625 14.75 46.0625 14.75 39.9375 14.75C39.5625 14.75 39.3125 15 39.3125 15.375C39.3125 15.75 39.625 16.0625 39.9375 16.0625Z" fill="#0F3E84"/>
<path d="M47.5 17.125C47.5625 17.125 46.0625 17.125 39.9375 17.125C39.5625 17.125 39.3125 17.375 39.3125 17.75C39.3125 18.125 39.5625 18.375 39.9375 18.375H47.5C47.875 18.375 48.125 18.125 48.125 17.75C48.125 17.375 47.875 17.125 47.5 17.125Z" fill="#0F3E84"/>
<path d="M42.875 19.4375C42.9375 19.4375 40.625 19.4375 39.9375 19.4375C39.5625 19.4375 39.3125 19.6875 39.3125 20.0625C39.3125 20.4375 39.5625 20.6875 39.9375 20.6875H42.875C43.25 20.6875 43.5 20.4375 43.5 20.0625C43.5 19.6875 43.25 19.4375 42.875 19.4375Z" fill="#0F3E84"/>
<path d="M2.75 39.3751C2.875 39.5001 3.0625 39.5626 3.1875 39.5626H56.9375C57.3125 39.5626 57.5625 39.2501 57.5625 38.9376L57.4375 4.62507C57.4375 4.43757 57.375 4.31257 57.25 4.18757C56.9375 3.87507 60.6875 4.00007 3.0625 4.25007C2.6875 4.25007 2.4375 4.50007 2.4375 4.87507C2.5625 41.2501 2.4375 39.0626 2.75 39.3751ZM25.5 22.4376C25.5 21.2501 26.4375 20.3126 27.625 20.2501H28V20.5001C28 21.5626 28.875 22.4376 29.9375 22.4376C31.0625 22.4376 31.9375 21.5626 31.9375 20.5001V20.2501H32.3125C33.5 20.2501 34.4375 21.1876 34.4375 22.3751V25.9376H33V23.9376C33 23.5626 32.75 23.3126 32.375 23.3126C32 23.3126 31.75 23.5626 31.75 23.9376V25.9376H28.1875V24.0001C28.1875 23.6251 27.9375 23.3751 27.5625 23.3751C27.1875 23.3751 26.9375 23.6251 26.9375 24.0001V26.0001H25.5V22.4376ZM30 21.2501C29.625 21.2501 29.3125 20.9376 29.3125 20.5626V20.3126H30.625V20.5626C30.625 20.9376 30.375 21.1876 30 21.2501ZM30 19.0626C28.4375 19.0626 27.1875 17.8126 27.125 16.1876C27.125 14.6251 28.375 13.3751 29.9375 13.3126C31.375 13.3126 32.75 14.6251 32.6875 16.3126C32.5625 17.7501 31.4375 18.9376 30 19.0626ZM47.375 35.8751C47.375 34.6876 48.3125 33.6876 49.5 33.6876H50.875C52.0625 33.6876 53 34.6251 53 35.8126V38.0626C52.3125 38.0626 48.6875 38.0626 47.3125 38.0626V35.8751H47.375ZM50.1875 32.4376C49.25 32.4376 48.5 31.6876 48.5 30.7501C48.5 29.8126 49.25 29.0626 50.1875 29.0626C51.125 29.0626 51.875 29.8126 51.875 30.6876C51.8125 31.6876 51.125 32.4376 50.1875 32.4376ZM7.0625 36.0001C7.0625 34.8126 8 33.8126 9.1875 33.8126H10.5625C11.75 33.8126 12.6875 34.7501 12.6875 35.9376V38.1876C10.6875 38.1876 9 38.1876 7 38.1876L7.0625 36.0001ZM11.0625 32.1251C10.0625 33.1876 8.25 32.4376 8.1875 30.9376C8.1875 30.0001 8.9375 29.2501 9.875 29.2501C11.3125 29.3126 12.0625 31.0626 11.0625 32.1251ZM42.8125 27.1251V38.1251H40.8125V35.8751C40.8125 34.5626 40.0625 33.3751 38.8125 32.8126C39.9375 31.6251 39.875 29.8126 38.6875 28.6876C37.6875 27.7501 36.5 27.8751 36.6875 27.8751C34.125 27.8751 32.8125 30.9376 34.5625 32.8126C33.3125 33.3751 32.625 34.6251 32.625 35.8751V38.1251H30.625C30.625 34.3126 30.625 31.0001 30.625 27.1251C37.9375 27.1251 35.125 27.1876 42.8125 27.1251ZM33.9375 35.8751C33.9375 34.6876 34.875 33.7501 36.0625 33.7501H37.4375C38.625 33.7501 39.5625 34.6876 39.5625 35.8751V38.1251C37.625 38.1251 35.875 38.1251 33.875 38.1251L33.9375 35.8751ZM37.9375 31.9376C36.875 33.0626 35.125 32.1251 35.1875 30.6876C35.25 29.3751 36.875 28.5626 37.9375 29.6251C38.5625 30.2501 38.5625 31.3126 37.9375 31.9376ZM29.375 27.1876V38.1876H27.375V35.9376C27.375 34.6876 26.6875 33.4376 25.375 32.8751C27.125 31.0626 25.8125 28.0001 23.25 27.9376C20.75 28.0001 19.4375 31.0626 21.1875 32.8751C19.9375 33.4376 19.25 34.6876 19.25 35.9376V38.1876H17.25C17.25 34.3751 17.25 31.0626 17.25 27.1876C27.25 27.2501 21.3125 27.1876 29.375 27.1876ZM20.5 35.9376C20.5 34.7501 21.4375 33.8126 22.625 33.8126H24C25.1875 33.8126 26.125 34.7501 26.125 35.9376V38.1876C24.125 38.1876 22.4375 38.1876 20.4375 38.1876L20.5 35.9376ZM24.5 32.0001C23.875 32.6251 23.125 32.5001 23.3125 32.5001C21.8125 32.5001 21.125 30.6876 22.125 29.6876C23.1875 28.6251 25 29.3751 25 30.8751C25 31.3126 24.8125 31.7501 24.5 32.0001ZM3.75 27.3126H15.9375V38.3126H13.9375V36.0626C13.9375 34.7501 13.1875 33.5626 11.9375 33.0001C13.6875 31.1876 12.375 28.1251 9.8125 28.1251C7.25 28.1251 5.9375 31.1876 7.6875 33.0626C6.5 33.6251 5.75 34.8126 5.75 36.1251V38.3751H3.8125L3.75 27.3126ZM54.3125 38.0626V35.8126C54.3125 34.5001 53.5625 33.3126 52.3125 32.7501C54.0625 30.8751 52.6875 27.8751 50.1875 27.8751C47.625 27.8751 46.375 30.9376 48.0625 32.8126C46.8125 33.3751 46.125 34.6251 46.125 35.8751V38.1251H44.125C44.125 34.3126 44.125 31.0001 44.125 27.1251H56.3125V38.1251L54.3125 38.0626ZM56.1875 5.25007L56.25 25.8126L35.6875 25.8751V22.3126C35.6875 20.6876 34.5 19.2501 32.875 19.0001C33.625 18.2501 34.0625 17.1876 34.0625 16.0626C34.0625 13.8126 32.25 12.0001 29.9375 12.0001C26.3125 12.0001 24.5 16.5001 27.0625 19.0001C25.4375 19.3126 24.25 20.6876 24.25 22.3751V25.9376C14.5 26.0001 19.25 25.9376 3.6875 26.0001V5.50007L56.1875 5.25007Z" fill="#0F3E84"/>
</g>
<defs>
<clipPath id="clip0_93_1314">
<rect width="60" height="60" fill="white"/>
</clipPath>
</defs>
</svg>
