<svg width="60" height="60" viewBox="0 0 60 60" fill="none" xmlns="http://www.w3.org/2000/svg">
<path d="M57.8125 22.625L56.5 21.25C55.875 20.625 55.75 19.6875 56.125 18.875C60.9375 9.93748 53.6875 -1.12502 43.3125 0.187484C40.25 0.687484 37.5 2.18748 35.625 4.24998C31.9375 3.49998 28.125 3.49998 24.4375 4.31248C21.625 1.24998 17.5625 -0.250016 13.4375 0.249984C4.56247 1.43748 -0.375035 11.125 3.87497 18.9375C4.31247 19.6875 4.18747 20.6875 3.49997 21.3125L2.18747 22.6875C1.81247 23.0625 2.06247 23.75 2.62497 23.75H4.37497C1.81247 33.625 5.43747 45.125 14.6875 51.75C15.125 52.75 16.1875 53.4375 17.375 53.5C17.5 53.5 17.3125 53.5 18.125 53.875C18.375 55.625 20.0625 56.75 21.875 56.3125C21.9375 58.75 24.875 60.25 26.6875 58.5L27.125 58.9375C28.9375 60.75 32.0625 59.75 32.25 57.1875C33.5 57.75 35.125 57.375 35.875 56.125C50.375 52.875 59.4375 38.3125 55.8125 23.75H57.375C57.9375 23.6875 58.25 23 57.8125 22.625ZM4.06247 22.4375L4.37497 22.1875C5.37497 21.1875 5.62497 19.625 4.93747 18.375C1.18747 11.3125 5.62497 2.62498 13.5625 1.49998C20.5 0.624984 26.5625 5.99998 26.5625 12.875C26.6875 21.8125 17 27.1875 9.37497 22.875C8.87497 22.5625 8.31247 22.4375 7.68747 22.375C3.93747 22.4375 4.12497 22.375 4.06247 22.4375ZM8.81247 43.75C6.37497 40.125 4.99997 35.125 4.99997 32.6875C4.99997 32.4375 4.68747 30.8125 4.99997 27.875C4.99997 27.6875 4.99997 27.375 4.99997 27.125H10.4375V43.75H8.81247ZM9.62497 45H11.0625C11.4375 45 11.6875 44.75 11.6875 44.375V42.125H13.3125C13.375 42.625 13.5625 43.0625 13.75 43.5L12.9375 44.3125C11.1875 46.0625 12.3125 49.0625 14.75 49.3125C14.625 49.5625 14.5625 49.8125 14.5 50.0625C12.625 48.5625 11 46.875 9.62497 45ZM16.25 42.6875C16.5625 42.375 17.0625 42.1875 17.5 42.1875C19 42.1875 19.75 44 18.6875 45.0625C17.625 46.125 17.375 46.3125 16.1875 47.5625C15.5 48.1875 14.5 48.1875 13.8125 47.5625C13.1875 46.875 13.1875 45.8125 13.8125 45.1875C15 43.9375 14.5 44.5 16.25 42.6875ZM16.125 51.75C15.5 51.125 15.4375 50.0625 16.125 49.375C16.6875 48.8125 17.3125 48.1875 18.375 47.125C19.0625 46.4375 19.6875 45.8125 20.375 45.125C20.9375 44.5625 21.875 44.5625 22.5 45.125L22.8125 45.375C23.375 45.9375 23.4375 46.9375 22.8125 47.5C22.875 47.5 19.6875 50.5625 19.75 50.5625C18.5 51.8125 18.3125 52.0625 17.6875 52.1875C17.125 52.3125 16.5625 52.125 16.125 51.75ZM19.875 54.6875C19.5 54.3125 19.25 53.75 19.375 53.0625C19.5 52.375 19.6875 52.375 22.375 49.6875C23.4375 48.625 25.25 49.375 25.25 50.875C25.25 51.3125 25.0625 51.75 24.75 52.0625C23.375 53.375 23.625 53.1875 22.75 54C22.4375 54.3125 22.5625 54.1875 22.1875 54.5625C21.5625 55.25 20.5 55.25 19.875 54.6875ZM25.875 57.5C24.5 58.875 22 56.625 23.625 55C23.875 54.75 24.5 54.125 24.5 54.125C25.1875 53.5625 26.1875 53.5625 26.8125 54.25L26.9375 54.375C27.5 54.9375 27.5625 55.875 26.9375 56.5C26.9375 56.4375 25.875 57.5 25.875 57.5ZM31 56.9375C30.9375 58.5 29.0625 59.0625 28 58L27.5625 57.5625L27.75 57.3125C28.75 56.375 28.875 54.5625 27.75 53.4375L27.625 53.3125C26.875 52.5 25.9375 52.5 26.0625 52.5C27.25 50.6875 26.125 48.3125 24.0625 48C24.8125 46.875 24.6875 45.4375 23.75 44.5L23.5 44.25C22.6875 43.4375 21.5 43.25 20.5 43.6875C20.3125 41.1875 17.25 40.125 15.5 41.875L14.6875 42.5C14.5625 42.0625 14.5625 41.8125 14.5 41.375C14.4375 40.75 14.4375 39.8125 14.5 39.25C14.5625 38.9375 14.3125 38.625 13.9375 38.5625C13.75 38.5625 13.3125 38.625 13.25 39.125C13.1875 39.75 13.1875 40.1875 13.1875 40.8125H11.6875V28.8125C21.3125 28.8125 18.375 28.625 28.875 30.0625C26.0625 31.3125 24.75 33 23.375 34.5625C22.0625 36.0625 22.625 38.375 24.375 39.1875C25.375 39.625 26.5625 39.5 27.375 38.8125L30.6875 36.1875L42.5 48.0625C43.1875 48.6875 43.25 49.75 42.625 50.5C42 51.25 40.875 51.25 40.1875 50.5625L39.375 49.75L34.75 45.125C34.5 44.875 34.0625 44.9375 33.875 45.1875C33.6875 45.4375 33.6875 45.75 33.875 46L38.5 50.625C39.1875 51.3125 39.1875 52.4375 38.4375 53.0625C37.6875 53.625 36.6875 53.5625 36 52.9375L35.4375 52.375L32.5 49.375C31.9375 48.8125 31.0625 49.6875 31.625 50.25L34.625 53.25C35.0625 53.6875 35.25 54.25 35.0625 54.9375C34.6875 56.1875 33.0625 56.5 32.125 55.5625C31.875 55.3125 32.0625 55.5 31.375 54.8125L30.4375 53.875C29.875 53.3125 29 54.1875 29.5625 54.75L30.5 55.6875C30.75 55.9375 30.9375 56.3125 31 56.625V56.9375ZM41.5625 29.5625C43 29.4375 43.5625 29.4375 48.875 29.4375V43H47.125C46.875 43 46.6875 43.125 46.5625 43.375C45.625 45.3125 44.5625 46.3125 43.5 47.375C43.3125 47.1875 35.125 38.9375 34.875 38.6875C37.0625 39.4375 38.6875 39.375 40.5625 39.125C40.9375 39.0625 41.1875 38.75 41.125 38.4375C41.0625 38.125 40.75 37.8125 40.4375 37.875C40.5 37.875 39.8125 37.9375 39.75 37.9375C36.5625 38.3125 33.4375 37.1875 31.125 34.9375C31.0625 34.875 31 34.8125 30.9375 34.8125C30.8125 34.75 30.8125 34.75 30.5 34.75C30 35.0625 31.25 34.0625 26.625 37.8125C25.875 38.3125 24.8125 38.125 24.25 37.375C23.8125 36.75 23.875 35.9375 24.3125 35.375C25.75 33.6875 27.3125 31.625 30.875 30.625C32.125 30.25 33.4375 30.25 41.5625 29.5625ZM55.3125 28.25C55.3125 28.375 55.3125 28.5625 55.375 28.6875C55.4375 28.8125 55.375 28.9375 55.375 29.0625C55.375 32.4375 55.375 31.5625 55.1875 33.5625C54.625 37.5625 53.0625 41.6875 50.6875 44.875H50.25V43.6875V28.875V28.25H55.3125ZM36.375 54.625C36.375 54.5625 36.3125 54.5625 36.5 54.625H36.375ZM39.8125 53.5C40.0625 53.0625 40.25 52.625 40.3125 52.125C41.0625 52.4375 41.9375 52.4375 42.625 52.125C41.75 52.625 40.8125 53.0625 39.8125 53.5ZM43.25 51.75C44.125 51.125 44.6875 49.75 44.25 48.5C45.5625 47.125 46.5625 46.25 47.5625 44.3125H49V45.5C49 45.875 49.25 46.125 49.625 46.125H49.75C47.875 48.375 45.6875 50.25 43.25 51.75ZM55.1875 27H49.625C49.25 27 49 27.25 49 27.625V28.25C41.3125 28.25 44.4375 28.125 32.875 29.0625C32.5 29.125 32.125 29.1875 31.6875 29.25C17.875 27.375 21.5625 27.625 11.6875 27.625V26.5625C11.6875 26.1875 11.4375 25.9375 11.0625 25.9375H5.18747C5.31247 25.1875 5.43747 24.5 5.68747 23.75C7.62497 23.75 8.12497 23.625 8.81247 24.0625C10.75 25.125 12.875 25.75 15.125 25.75C25.9375 25.75 31.4375 13.6875 25.375 5.43748C28.375 4.87498 31.5625 4.81248 34.75 5.37498C28.625 13.5 34.0625 25.625 44.9375 25.625C47.125 25.625 49.3125 25.0625 51.25 23.9375C51.9375 23.5625 52.3125 23.625 54.5625 23.625C54.8125 24.75 55.0625 25.875 55.1875 27ZM50.5625 22.9375C48.6875 24 46.5 24.5 44.375 24.375C38.1875 24.1875 33.375 19.0625 33.4375 12.875C33.4375 9.49998 35 6.31248 37.3125 4.31248C44.0625 -1.75002 55.0625 2.24998 56.3125 11.4375C56.625 13.8125 56.1875 16.1875 55.0625 18.3125C54.4375 19.5 54.5625 21 55.625 22.125L55.875 22.375C52.4375 22.5 51.75 22.25 50.5625 22.9375Z" fill="#0F3E84"/>
<path d="M40.8125 12.3125H39.9375C39.125 12.3125 39.125 13.5625 39.9375 13.5625H40.8125C41.6875 13.5625 41.625 12.3125 40.8125 12.3125Z" fill="#0F3E84"/>
<path d="M45.5625 12.3125H44.6875C43.875 12.3125 43.875 13.5625 44.6875 13.5625H45.5625C46.4375 13.5625 46.375 12.3125 45.5625 12.3125Z" fill="#0F3E84"/>
<path d="M50.3125 12.3125H49.4375C48.625 12.3125 48.625 13.5625 49.4375 13.5625H50.3125C51.1875 13.5625 51.125 12.3125 50.3125 12.3125Z" fill="#0F3E84"/>
<path d="M19.1875 13.5625H20.0625C20.875 13.5625 20.875 12.3125 20.0625 12.3125H19.1875C18.3125 12.3125 18.375 13.5625 19.1875 13.5625Z" fill="#0F3E84"/>
<path d="M14.4375 13.5625H15.3125C16.125 13.5625 16.125 12.3125 15.3125 12.3125H14.4375C13.5625 12.3125 13.625 13.5625 14.4375 13.5625Z" fill="#0F3E84"/>
<path d="M9.68747 13.5625H10.5625C11.375 13.5625 11.375 12.3125 10.5625 12.3125H9.68747C8.81247 12.3125 8.87497 13.5625 9.68747 13.5625Z" fill="#0F3E84"/>
</svg>
