<svg width="60" height="60" viewBox="0 0 60 60" fill="none" xmlns="http://www.w3.org/2000/svg">
<g clip-path="url(#clip0_93_1290)">
<path d="M48.125 21.5375V8.56875C48.1233 8.03609 47.9106 7.5258 47.5333 7.14974C47.1561 6.77367 46.6452 6.5625 46.1125 6.5625H45.725C45.1989 6.5723 44.6975 6.7878 44.3283 7.16281C43.9591 7.53782 43.7515 8.04252 43.75 8.56875V9.19375L35.9 13.0062L26.525 17.6062C26.4589 17.5058 26.3765 17.4171 26.2812 17.3438C26.1396 17.2291 25.9735 17.1487 25.7957 17.1086C25.618 17.0685 25.4334 17.0698 25.2563 17.1125L21.3125 18.0312L15.275 19.425L12.2937 20.125C11.7065 20.2578 11.1783 20.5776 10.7883 21.0363C10.3984 21.495 10.1678 22.0678 10.1312 22.6688H6.875C6.37772 22.6688 5.90081 22.8663 5.54917 23.2179C5.19754 23.5696 5 24.0465 5 24.5438V28.0562C5 28.5535 5.19754 29.0304 5.54917 29.3821C5.90081 29.7337 6.37772 29.9312 6.875 29.9312H10.15C10.1886 30.5316 10.4198 31.1034 10.8095 31.5617C11.1991 32.02 11.7262 32.3403 12.3125 32.475L14.725 33.0312V33.9875C13.0095 34.0275 11.3526 34.6192 10 35.675L8.94375 36.5C7.8284 37.3726 6.45361 37.8477 5.0375 37.85H0.625C0.45924 37.85 0.300269 37.9158 0.183058 38.0331C0.065848 38.1503 0 38.3092 0 38.475L0 51.6C0 51.7658 0.065848 51.9247 0.183058 52.0419C0.300269 52.1591 0.45924 52.225 0.625 52.225H5.25C6.65477 52.2273 8.05425 52.3973 9.41875 52.7313L10.0938 52.9C11.5558 53.2618 13.0564 53.4444 14.5625 53.4438H21.4375C21.728 53.4471 22.0162 53.3928 22.2856 53.2841C22.555 53.1754 22.8002 53.0144 23.0071 52.8105C23.214 52.6065 23.3784 52.3636 23.4909 52.0958C23.6034 51.828 23.6617 51.5405 23.6625 51.25V50.8063C23.6651 50.4788 23.5901 50.1554 23.4437 49.8625C24.0251 49.8575 24.5808 49.6227 24.9895 49.2093C25.3982 48.7959 25.6267 48.2376 25.625 47.6562V47.2188C25.6228 46.7087 25.4464 46.2148 25.125 45.8187C25.3961 45.6163 25.616 45.3531 25.7669 45.0502C25.9177 44.7474 25.9955 44.4134 25.9937 44.075V43.6312C25.9945 43.3386 25.9362 43.0489 25.8224 42.7793C25.7086 42.5098 25.5415 42.266 25.3312 42.0625C25.5415 41.859 25.7086 41.6152 25.8224 41.3457C25.9362 41.0761 25.9945 40.7864 25.9937 40.4938V40.05C25.9938 39.4676 25.7628 38.909 25.3516 38.4966C24.9404 38.0842 24.3824 37.8517 23.8 37.85H22.6312V34.8563L25.2437 35.4813C25.3373 35.4904 25.4315 35.4904 25.525 35.4813C25.7976 35.482 26.0623 35.3893 26.275 35.2188C26.3684 35.1434 26.4505 35.055 26.5187 34.9562L35.825 39.5187L35.9 39.5625L43.75 43.4125V44.0375C43.75 44.5712 43.962 45.0831 44.3394 45.4606C44.7169 45.838 45.2288 46.05 45.7625 46.05H46.15C46.6816 46.0401 47.1877 45.8203 47.5577 45.4386C47.9277 45.0568 48.1317 44.5441 48.125 44.0125V31.0437C49.2439 30.8484 50.258 30.2647 50.9888 29.3952C51.7196 28.5258 52.1203 27.4264 52.1203 26.2906C52.1203 25.1548 51.7196 24.0555 50.9888 23.186C50.258 22.3166 49.2439 21.7328 48.125 21.5375ZM20.8125 19.4312V27.2625L16.025 26.15V20.525L17.15 20.2688L20.8125 19.4312ZM6.25 28.05V24.5375C6.25 24.3717 6.31585 24.2128 6.43306 24.0956C6.55027 23.9783 6.70924 23.9125 6.875 23.9125H10.1312V28.6625H6.875C6.71138 28.6625 6.55428 28.5984 6.43742 28.4839C6.32056 28.3694 6.25327 28.2136 6.25 28.05ZM14.5625 52.1875C13.1575 52.1883 11.7577 52.0183 10.3937 51.6813L9.71875 51.5125C8.25673 51.1507 6.75612 50.9681 5.25 50.9688H1.25V39.0938H5.0375C6.73203 39.0997 8.37986 38.5387 9.71875 37.5L10.7625 36.675C11.8921 35.7919 13.2732 35.2907 14.7063 35.2437H16.1437C16.8177 35.2446 17.4656 35.5046 17.9531 35.97C18.4406 36.4354 18.7304 37.0705 18.7625 37.7437C18.7655 37.7791 18.7655 37.8146 18.7625 37.85V42.4188C18.7686 42.4727 18.7686 42.5273 18.7625 42.5812C18.7685 42.6185 18.7685 42.6565 18.7625 42.6937C18.7018 42.9477 18.557 43.1736 18.3516 43.3347C18.1462 43.4959 17.8923 43.5828 17.6312 43.5813C17.3234 43.578 17.0289 43.4547 16.8106 43.2376C16.5923 43.0204 16.4674 42.7266 16.4625 42.4188V38.3625C16.4625 38.1967 16.3967 38.0378 16.2794 37.9206C16.1622 37.8033 16.0033 37.7375 15.8375 37.7375C15.6717 37.7375 15.5128 37.8033 15.3956 37.9206C15.2783 38.0378 15.2125 38.1967 15.2125 38.3625C15.2027 39.6767 14.6758 40.9342 13.7459 41.8629C12.8161 42.7916 11.5579 43.3168 10.2437 43.325C10.078 43.325 9.91902 43.3908 9.80181 43.5081C9.6846 43.6253 9.61875 43.7842 9.61875 43.95C9.61875 44.1158 9.6846 44.2747 9.80181 44.3919C9.91902 44.5092 10.078 44.575 10.2437 44.575C11.2146 44.5784 12.1728 44.354 13.0412 43.9198C13.9096 43.4856 14.664 42.8538 15.2437 42.075V42.4062C15.2442 42.8623 15.3743 43.3088 15.6187 43.6938V44.0688C15.617 44.4071 15.6948 44.7411 15.8456 45.044C15.9965 45.3469 16.2164 45.6101 16.4875 45.8125C16.1661 46.2085 15.9897 46.7025 15.9875 47.2125V47.65C15.9618 48.0296 16.0373 48.4091 16.2062 48.75C15.7699 48.8944 15.3902 49.1726 15.121 49.5451C14.8517 49.9176 14.7066 50.3654 14.7063 50.825V51.25C14.7047 51.5766 14.7774 51.8993 14.9188 52.1938L14.5625 52.1875ZM23.575 42.6875C23.7374 42.6873 23.8981 42.7211 24.0466 42.7867C24.1952 42.8524 24.3283 42.9485 24.4375 43.0688C24.5487 43.1898 24.6325 43.3334 24.6832 43.4898C24.7339 43.6462 24.7503 43.8117 24.7313 43.975C24.682 44.2696 24.5288 44.5369 24.2995 44.7284C24.0702 44.9198 23.7799 45.0228 23.4813 45.0187H17.75C17.5188 45.0168 17.2964 44.93 17.125 44.775C17.4525 44.8432 17.7907 44.8422 18.1178 44.772C18.4449 44.7018 18.7537 44.564 19.0245 44.3675C19.2952 44.1709 19.5218 43.9199 19.6898 43.6306C19.8578 43.3413 19.9635 43.0201 20 42.6875H23.575ZM16.9062 52.1875C16.6564 52.1875 16.4167 52.0891 16.2389 51.9137C16.0611 51.7382 15.9595 51.4998 15.9563 51.25V50.8063C15.9579 50.5554 16.0587 50.3153 16.2367 50.1385C16.4147 49.9617 16.6554 49.8625 16.9062 49.8625H21.25C21.4133 49.8625 21.5748 49.8965 21.7243 49.9621C21.8739 50.0277 22.0082 50.1236 22.1187 50.2438C22.3148 50.4588 22.422 50.7402 22.4187 51.0312C22.4219 51.0708 22.4219 51.1105 22.4187 51.15C22.3695 51.4446 22.2163 51.7119 21.987 51.9034C21.7577 52.0948 21.4674 52.1978 21.1687 52.1938L16.9062 52.1875ZM24.4062 47.6562C24.4065 47.8992 24.3131 48.1328 24.1455 48.3086C23.9778 48.4844 23.7489 48.5887 23.5063 48.6H18.125C17.873 48.6 17.6314 48.4999 17.4532 48.3218C17.2751 48.1436 17.175 47.902 17.175 47.65V47.2125C17.1733 47.0867 17.1967 46.9618 17.2437 46.8451C17.2907 46.7284 17.3604 46.6222 17.4488 46.5327C17.5372 46.4431 17.6425 46.372 17.7585 46.3235C17.8746 46.275 17.9992 46.25 18.125 46.25H23.5C23.7426 46.2676 23.969 46.3782 24.132 46.5587C24.295 46.7392 24.3821 46.9756 24.375 47.2188L24.4062 47.6562ZM24.7688 40.1562C24.7719 40.1999 24.7719 40.2438 24.7688 40.2875C24.7679 40.5722 24.6609 40.8463 24.4688 41.0563C24.3573 41.1791 24.2212 41.2771 24.0694 41.3438C23.9176 41.4106 23.7534 41.4446 23.5875 41.4437H20V39.1H23.4688C23.7737 39.0885 24.0723 39.1889 24.3083 39.3823C24.5443 39.5757 24.7014 39.8488 24.75 40.15L24.7688 40.1562ZM21.4 37.7437H20C19.9676 36.7389 19.5459 35.7861 18.824 35.0863C18.1021 34.3866 17.1366 33.9948 16.1313 33.9937H15.9438V33.3125L21.3687 34.5625L21.4 37.7437ZM22.65 33.5812L21.4 33.2938L17.1875 32.3125L14.6875 31.7375L12.575 31.25C12.2295 31.1718 11.921 30.978 11.7006 30.7007C11.4801 30.4234 11.3609 30.0792 11.3625 29.725V22.85C11.3615 22.4957 11.4818 22.1517 11.7036 21.8753C11.9254 21.599 12.2351 21.407 12.5812 21.3313L14.775 20.8188V26.6375C14.7715 26.782 14.8181 26.9232 14.907 27.0372C14.9959 27.1511 15.1215 27.2307 15.2625 27.2625L21.3 28.6625C21.3456 28.6687 21.3919 28.6687 21.4375 28.6625C21.5777 28.6635 21.7142 28.6172 21.825 28.5312C21.8995 28.4724 21.9596 28.3973 22.0007 28.3118C22.0419 28.2262 22.063 28.1324 22.0625 28.0375V19.1313L24.6625 18.5063L25.4813 18.3125V19.4938L25.525 33.125V34.275L24.5938 34.0625L22.65 33.5812ZM26.75 18.9062L35.5687 14.575V38.0125L26.7313 33.6812L26.75 18.9062ZM36.8 38.625V13.9563L43.75 10.5625V42.0188L36.8 38.625ZM46.875 44.0125C46.875 44.2147 46.7947 44.4087 46.6517 44.5517C46.5087 44.6947 46.3147 44.775 46.1125 44.775H45.725C45.5293 44.7654 45.3449 44.6808 45.2099 44.5388C45.0749 44.3969 44.9998 44.2084 45 44.0125V8.56875C45.0016 8.36761 45.0827 8.17526 45.2255 8.03362C45.3683 7.89197 45.5614 7.81249 45.7625 7.8125H46.15C46.3446 7.82208 46.5281 7.90577 46.6629 8.0464C46.7978 8.18703 46.8736 8.37394 46.875 8.56875V44.0125ZM48.125 29.7625V22.8187C48.9061 23.0046 49.6017 23.4483 50.0994 24.0783C50.5971 24.7083 50.8679 25.4877 50.8679 26.2906C50.8679 27.0935 50.5971 27.8729 50.0994 28.5029C49.6017 29.1329 48.9061 29.5767 48.125 29.7625Z" fill="#0F3E84"/>
<path d="M56.6188 17.6688C56.506 17.547 56.3495 17.4749 56.1837 17.4685C56.0178 17.462 55.8562 17.5217 55.7344 17.6345C55.6126 17.7472 55.5405 17.9037 55.534 18.0695C55.5276 18.2354 55.5873 18.397 55.7 18.5188C57.661 20.6318 58.7507 23.408 58.7507 26.2907C58.7507 29.1734 57.661 31.9496 55.7 34.0626C55.5873 34.1844 55.5276 34.346 55.534 34.5119C55.5405 34.6777 55.6126 34.8342 55.7344 34.947C55.8562 35.0597 56.0178 35.1194 56.1837 35.1129C56.3495 35.1065 56.506 35.0344 56.6188 34.9126C58.7927 32.5678 60.0007 29.4883 60.0007 26.2907C60.0007 23.0932 58.7927 20.0136 56.6188 17.6688Z" fill="#0F3E84"/>
<path d="M53.4813 20.5687C53.3686 20.4469 53.2121 20.3748 53.0462 20.3684C52.8804 20.3619 52.7188 20.4216 52.5969 20.5344C52.4751 20.6471 52.403 20.8036 52.3966 20.9694C52.3901 21.1353 52.4498 21.2969 52.5625 21.4187C53.7917 22.7433 54.4747 24.4836 54.4747 26.2906C54.4747 28.0976 53.7917 29.8379 52.5625 31.1625C52.5064 31.223 52.4627 31.2941 52.4342 31.3716C52.4056 31.4491 52.3927 31.5315 52.3962 31.6141C52.3997 31.6966 52.4195 31.7776 52.4545 31.8524C52.4895 31.9273 52.5389 31.9944 52.6 32.05C52.7163 32.1556 52.868 32.2136 53.025 32.2125C53.1107 32.2122 53.1955 32.1943 53.274 32.1599C53.3524 32.1255 53.423 32.0753 53.4813 32.0125C54.9234 30.4561 55.7247 28.4125 55.7247 26.2906C55.7247 24.1688 54.9234 22.1252 53.4813 20.5687Z" fill="#0F3E84"/>
</g>
<defs>
<clipPath id="clip0_93_1290">
<rect width="60" height="60" fill="white"/>
</clipPath>
</defs>
</svg>
