<svg width="60" height="60" viewBox="0 0 60 60" fill="none" xmlns="http://www.w3.org/2000/svg">
<g clip-path="url(#clip0_93_1328)">
<path d="M55.5 33C55.5 32.75 55.375 32.5625 55.1875 32.4375L53.375 31.3125C53.875 30.4375 53.8125 29.375 53.1875 28.5625L46.25 19.3125L48.8125 15.75C49.625 14.625 49.375 13.0625 48.25 12.25C46.5625 11.0625 54.3125 16.625 31.875 0.437492C30.75 -0.375008 29.1875 -0.125008 28.375 0.999992L6.375 31.5625L4.875 32.5C4.6875 32.625 4.5625 32.8125 4.5625 33.0625C4.625 33.0625 4.5625 32.5 4.5625 56.75C4.5625 58.1875 5.5625 59.5625 7 59.875C7.0625 59.875 7.125 59.9375 7.25 59.9375C7.75 60.0625 4.75 60 52.25 60C54.0625 60 55.5 58.5 55.5 56.75C55.4375 31.25 55.375 33.0625 55.5 33ZM39.375 43C46.375 38.8125 49.5 36.9375 54.1875 34.125C54.1875 58.75 54.3125 57 53.9375 57.625L39.375 43ZM6 57.625C5.6875 57 5.75 58.75 5.75 34.125C7.0625 34.9375 5 33.6875 20.625 43L6 57.625ZM45.25 23C45.8125 23 46.3125 23.375 46.4375 23.875C47.6875 27.875 49.75 34.5 49.9375 35.1875L47.625 36.5625L45.4375 29.4375C45.3125 29.125 45 28.9375 44.6875 29C43.4375 29.375 42.0625 28.6875 41.625 27.4375C41.5 27.125 41.1875 26.9375 40.875 27L12.3125 35.75C12.0625 35.8125 11.9375 36 11.875 36.25C8.6875 34.375 9.4375 34.8125 8.4375 34.1875C11.5625 33.3125 44.9375 23 45.25 23ZM24.8125 27.9375L36.1875 19.4375C37.3125 20.5 39 20.75 40.375 20.0625L42.25 22.5625C37.875 23.875 38.5 23.75 24.8125 27.9375ZM13.1875 37.125C13.1875 37.0625 13.1875 36.9375 13.1875 36.875L40.6875 28.4375C41.375 29.8125 42.875 30.625 44.4375 30.4375L46.5625 37.3125L30 47.1875L13.1875 37.125ZM53.625 33L51.0625 34.5625L50.75 33.5625L52.4375 32.3125L53.625 33ZM52.1875 29.375C52.5 29.8125 52.5 30.3125 52.3125 30.75C52.125 31.0625 52.125 31.0625 50.375 32.3125C47.4375 22.8125 47.625 23.375 47.5 23.125L52.1875 29.375ZM47 22.5C46.375 21.875 45.375 21.625 44.5 21.875C44.1875 21.9375 44.4375 21.875 43.5 22.1875L41 18.875C40.8125 18.625 40.375 18.5625 40.125 18.75C39.0625 19.5625 37.5 19.3125 36.6875 18.25C36.5 18 36.0625 17.9375 35.8125 18.125C34.375 19.1875 41.125 14.125 21.125 29.0625L13.625 31.375C29.125 19.875 35.375 15.1875 38.3125 13C38.875 12.5625 39.6875 12.6875 40.0625 13.25C42.6875 16.625 43.375 17.5 47 22.5ZM14.3125 29.3125L29.1875 8.62499C30.5625 9.31249 32.25 8.99999 33.375 7.93749L38.4375 11.5625C37.75 11.75 39.3125 10.6875 14.3125 29.3125ZM29.3125 1.81249C29.6875 1.24999 30.5 1.12499 31.0625 1.49999L47.5 13.25C48.0625 13.625 48.1875 14.4375 47.75 15C47.5625 15.25 48.375 14.0625 45.4375 18.25L41.875 13.4375C41.875 13.375 41.9375 13.3125 42 13.3125C42.1875 13.0625 42.125 12.625 41.875 12.4375L33.75 6.56249C33.5 6.37499 33.0625 6.43749 32.875 6.68749C32.0625 7.81249 30.5625 7.99999 29.5 7.24999C29.25 7.06249 28.8125 7.12499 28.625 7.37499C18.125 21.9375 11 31.6875 11.125 31.6875L10.25 32.3125L7.0625 33.3125L6.8125 33.1875C7.6875 31.875 6.875 33 29.3125 1.81249ZM7.8125 58.75C7.6875 58.75 7.5 58.75 7.25 58.6875C6.9375 58.5625 7 58.5625 6.875 58.5625L21.75 43.6875C31.5625 49.5625 27.8125 47.25 29.75 48.4375C29.9375 48.5625 30.1875 48.5625 30.375 48.4375C31 48.0625 29.625 48.875 38.3125 43.6875L53.125 58.5625C53 58.5625 53.0625 58.5625 52.75 58.6875C52.3125 58.8125 55.4375 58.75 7.8125 58.75Z" fill="#0F3E84"/>
<path d="M25.1875 37.6874C24.0625 39.8749 24.875 42.5624 27.0625 43.6874C30.5625 45.5624 34.5625 42.1874 33.375 38.4374C32.1875 34.6874 27.0625 34.1874 25.1875 37.6874ZM30.0625 42.8124C28.375 43.3749 26.5625 42.4374 26.0625 40.7499C25.5 39.0624 26.4375 37.2499 28.125 36.7499C29.8125 36.1874 31.625 37.1249 32.1875 38.8749C32.6875 40.5624 31.75 42.3124 30.0625 42.8124Z" fill="#0F3E84"/>
<path d="M38.3125 36.3125L36.25 36.9375C35.5625 37.125 35.75 38.1875 36.4375 38.1875C36.625 38.1875 36.5 38.25 38.6875 37.5625C39 37.4375 39.1875 37.0625 39.0625 36.75C38.9375 36.4375 38.625 36.25 38.3125 36.3125Z" fill="#0F3E84"/>
</g>
<defs>
<clipPath id="clip0_93_1328">
<rect width="60" height="60" fill="white"/>
</clipPath>
</defs>
</svg>
