<svg width="60" height="60" viewBox="0 0 60 60" fill="none" xmlns="http://www.w3.org/2000/svg">
<path d="M59.225 6.19385H0.775024C0.609264 6.19385 0.450293 6.2597 0.333083 6.37691C0.215872 6.49412 0.150024 6.65309 0.150024 6.81885V53.1751C0.150024 53.3409 0.215872 53.4998 0.333083 53.617C0.450293 53.7342 0.609264 53.8001 0.775024 53.8001H59.225C59.3908 53.8001 59.5498 53.7342 59.667 53.617C59.7842 53.4998 59.85 53.3409 59.85 53.1751V6.81885C59.85 6.65309 59.7842 6.49412 59.667 6.37691C59.5498 6.2597 59.3908 6.19385 59.225 6.19385ZM53.8813 7.44385H58.6V12.1626H53.8813V7.44385ZM52.6313 7.44385V12.1626H17.5813C17.3106 12.1632 17.0446 12.0917 16.8106 11.9555C16.5766 11.8193 16.3832 11.6233 16.25 11.3876L14.1625 7.6376C14.1313 7.58135 14.0938 7.5251 14.0563 7.46885L52.6313 7.44385ZM26.3438 52.5501H6.28752V25.5626H26.3438V52.5501ZM58.6 52.5501H27.5938V24.9376C27.5938 24.7718 27.5279 24.6129 27.4107 24.4957C27.2935 24.3784 27.1345 24.3126 26.9688 24.3126H5.66252C5.49676 24.3126 5.33779 24.3784 5.22058 24.4957C5.10337 24.6129 5.03752 24.7718 5.03752 24.9376V52.5501H1.40002V7.44385H11.7625C12.0311 7.44545 12.2945 7.51796 12.5261 7.65405C12.7577 7.79014 12.9492 7.98497 13.0813 8.21885L15.175 11.9688C15.2059 12.0278 15.2414 12.0843 15.2813 12.1376C15.5302 12.5211 15.8709 12.8363 16.2726 13.0546C16.6743 13.2729 17.1241 13.3873 17.5813 13.3876H58.6V52.5501Z" fill="#0F3E84"/>
<path d="M20.3876 10.4314H39.8438C40.0096 10.4314 40.1686 10.3655 40.2858 10.2483C40.403 10.1311 40.4688 9.97216 40.4688 9.8064C40.4688 9.64064 40.403 9.48167 40.2858 9.36445C40.1686 9.24724 40.0096 9.1814 39.8438 9.1814H20.3876C20.2218 9.1814 20.0628 9.24724 19.9456 9.36445C19.8284 9.48167 19.7626 9.64064 19.7626 9.8064C19.7626 9.97216 19.8284 10.1311 19.9456 10.2483C20.0628 10.3655 20.2218 10.4314 20.3876 10.4314Z" fill="#0F3E84"/>
<path d="M57.5563 8.49396C57.4982 8.43538 57.4291 8.38888 57.3529 8.35715C57.2767 8.32542 57.195 8.30908 57.1125 8.30908C57.03 8.30908 56.9483 8.32542 56.8722 8.35715C56.796 8.38888 56.7269 8.43538 56.6688 8.49396L56.2375 8.91896L55.8125 8.49396C55.7544 8.43538 55.6853 8.38888 55.6091 8.35715C55.533 8.32542 55.4513 8.30908 55.3688 8.30908C55.2863 8.30908 55.2046 8.32542 55.1284 8.35715C55.0523 8.38888 54.9831 8.43538 54.925 8.49396C54.8086 8.61106 54.7433 8.76946 54.7433 8.93458C54.7433 9.0997 54.8086 9.2581 54.925 9.37521L55.3563 9.80646L54.925 10.2377C54.8086 10.3548 54.7433 10.5132 54.7433 10.6783C54.7433 10.8434 54.8086 11.0019 54.925 11.119C54.9831 11.1775 55.0523 11.224 55.1284 11.2558C55.2046 11.2875 55.2863 11.3038 55.3688 11.3038C55.4513 11.3038 55.533 11.2875 55.6091 11.2558C55.6853 11.224 55.7544 11.1775 55.8125 11.119L56.25 10.6877L56.6813 11.119C56.7397 11.1769 56.8089 11.2227 56.8851 11.2538C56.9612 11.2849 57.0428 11.3007 57.125 11.3002C57.2479 11.2997 57.3679 11.263 57.47 11.1947C57.5721 11.1263 57.6518 11.0294 57.6992 10.9161C57.7465 10.8027 57.7594 10.6779 57.7362 10.5572C57.713 10.4366 57.6548 10.3254 57.5688 10.2377L57.1375 9.80646L57.5688 9.37521C57.6835 9.25646 57.7466 9.09712 57.7443 8.932C57.742 8.76688 57.6744 8.6094 57.5563 8.49396Z" fill="#0F3E84"/>
<path d="M17.3938 43.4188H19.8063C19.9721 43.4188 20.131 43.353 20.2482 43.2357C20.3655 43.1185 20.4313 42.9596 20.4313 42.7938V39.9563C20.4313 39.7905 20.3655 39.6316 20.2482 39.5144C20.131 39.3971 19.9721 39.3313 19.8063 39.3313H17.3938C17.228 39.3313 17.0691 39.3971 16.9519 39.5144C16.8346 39.6316 16.7688 39.7905 16.7688 39.9563V42.7938C16.7688 42.9596 16.8346 43.1185 16.9519 43.2357C17.0691 43.353 17.228 43.4188 17.3938 43.4188ZM18.0188 40.5813H19.1813V42.1688H18.0188V40.5813Z" fill="#0F3E84"/>
<path d="M21.9625 43.4188H24.375C24.5408 43.4188 24.6998 43.353 24.817 43.2357C24.9342 43.1185 25 42.9596 25 42.7938V39.9563C25 39.7905 24.9342 39.6316 24.817 39.5144C24.6998 39.3971 24.5408 39.3313 24.375 39.3313H21.9625C21.7968 39.3313 21.6378 39.3971 21.5206 39.5144C21.4034 39.6316 21.3375 39.7905 21.3375 39.9563V42.7938C21.3375 42.9596 21.4034 43.1185 21.5206 43.2357C21.6378 43.353 21.7968 43.4188 21.9625 43.4188ZM22.5875 40.5813H23.75V42.1688H22.5875V40.5813Z" fill="#0F3E84"/>
<path d="M12.8251 43.4188H15.2376C15.4033 43.4188 15.5623 43.353 15.6795 43.2357C15.7967 43.1185 15.8626 42.9596 15.8626 42.7938V39.9563C15.8626 39.7905 15.7967 39.6316 15.6795 39.5144C15.5623 39.3971 15.4033 39.3313 15.2376 39.3313H12.8251C12.6593 39.3313 12.5003 39.3971 12.3831 39.5144C12.2659 39.6316 12.2001 39.7905 12.2001 39.9563V42.7938C12.2001 42.9596 12.2659 43.1185 12.3831 43.2357C12.5003 43.353 12.6593 43.4188 12.8251 43.4188ZM13.4501 40.5813H14.6126V42.1688H13.4501V40.5813Z" fill="#0F3E84"/>
<path d="M17.3938 37.5689H19.8063C19.9721 37.5689 20.131 37.5031 20.2482 37.3859C20.3655 37.2687 20.4313 37.1097 20.4313 36.9439V34.1064C20.4313 33.9407 20.3655 33.7817 20.2482 33.6645C20.131 33.5473 19.9721 33.4814 19.8063 33.4814H17.3938C17.228 33.4814 17.0691 33.5473 16.9519 33.6645C16.8346 33.7817 16.7688 33.9407 16.7688 34.1064V36.9439C16.7688 37.1097 16.8346 37.2687 16.9519 37.3859C17.0691 37.5031 17.228 37.5689 17.3938 37.5689ZM18.0188 34.7314H19.1813V36.3189H18.0188V34.7314Z" fill="#0F3E84"/>
<path d="M21.9625 37.5689H24.375C24.5408 37.5689 24.6998 37.5031 24.817 37.3859C24.9342 37.2687 25 37.1097 25 36.9439V34.1064C25 33.9407 24.9342 33.7817 24.817 33.6645C24.6998 33.5473 24.5408 33.4814 24.375 33.4814H21.9625C21.7968 33.4814 21.6378 33.5473 21.5206 33.6645C21.4034 33.7817 21.3375 33.9407 21.3375 34.1064V36.9439C21.3375 37.1097 21.4034 37.2687 21.5206 37.3859C21.6378 37.5031 21.7968 37.5689 21.9625 37.5689ZM22.5875 34.7314H23.75V36.3189H22.5875V34.7314Z" fill="#0F3E84"/>
<path d="M12.8251 37.5689H15.2376C15.4033 37.5689 15.5623 37.5031 15.6795 37.3859C15.7967 37.2687 15.8626 37.1097 15.8626 36.9439V34.1064C15.8626 33.9407 15.7967 33.7817 15.6795 33.6645C15.5623 33.5473 15.4033 33.4814 15.2376 33.4814H12.8251C12.6593 33.4814 12.5003 33.5473 12.3831 33.6645C12.2659 33.7817 12.2001 33.9407 12.2001 34.1064V36.9439C12.2001 37.1097 12.2659 37.2687 12.3831 37.3859C12.5003 37.5031 12.6593 37.5689 12.8251 37.5689ZM13.4501 34.7314H14.6126V36.3189H13.4501V34.7314Z" fill="#0F3E84"/>
<path d="M17.3938 31.7125H19.8063C19.9721 31.7125 20.131 31.6467 20.2482 31.5294C20.3655 31.4122 20.4313 31.2533 20.4313 31.0875V28.25C20.4313 28.0842 20.3655 27.9253 20.2482 27.8081C20.131 27.6908 19.9721 27.625 19.8063 27.625H17.3938C17.228 27.625 17.0691 27.6908 16.9519 27.8081C16.8346 27.9253 16.7688 28.0842 16.7688 28.25V31.0875C16.7688 31.2533 16.8346 31.4122 16.9519 31.5294C17.0691 31.6467 17.228 31.7125 17.3938 31.7125ZM18.0188 28.875H19.1813V30.4625H18.0188V28.875Z" fill="#0F3E84"/>
<path d="M21.9625 31.7125H24.375C24.5408 31.7125 24.6998 31.6467 24.817 31.5294C24.9342 31.4122 25 31.2533 25 31.0875V28.25C25 28.0842 24.9342 27.9253 24.817 27.8081C24.6998 27.6908 24.5408 27.625 24.375 27.625H21.9625C21.7968 27.625 21.6378 27.6908 21.5206 27.8081C21.4034 27.9253 21.3375 28.0842 21.3375 28.25V31.0875C21.3375 31.2533 21.4034 31.4122 21.5206 31.5294C21.6378 31.6467 21.7968 31.7125 21.9625 31.7125ZM22.5875 28.875H23.75V30.4625H22.5875V28.875Z" fill="#0F3E84"/>
<path d="M12.8251 31.7125H15.2376C15.4033 31.7125 15.5623 31.6467 15.6795 31.5294C15.7967 31.4122 15.8626 31.2533 15.8626 31.0875V28.25C15.8626 28.0842 15.7967 27.9253 15.6795 27.8081C15.5623 27.6908 15.4033 27.625 15.2376 27.625H12.8251C12.6593 27.625 12.5003 27.6908 12.3831 27.8081C12.2659 27.9253 12.2001 28.0842 12.2001 28.25V31.0875C12.2001 31.2533 12.2659 31.4122 12.3831 31.5294C12.5003 31.6467 12.6593 31.7125 12.8251 31.7125ZM13.4501 28.875H14.6126V30.4625H13.4501V28.875Z" fill="#0F3E84"/>
<path d="M8.25623 43.4188H10.6687C10.8345 43.4188 10.9935 43.353 11.1107 43.2357C11.2279 43.1185 11.2937 42.9596 11.2937 42.7938V39.9563C11.2937 39.7905 11.2279 39.6316 11.1107 39.5144C10.9935 39.3971 10.8345 39.3313 10.6687 39.3313H8.25623C8.09047 39.3313 7.93149 39.3971 7.81428 39.5144C7.69707 39.6316 7.63123 39.7905 7.63123 39.9563V42.7938C7.63123 42.9596 7.69707 43.1185 7.81428 43.2357C7.93149 43.353 8.09047 43.4188 8.25623 43.4188ZM8.88123 40.5813H10.0437V42.1688H8.88123V40.5813Z" fill="#0F3E84"/>
<path d="M17.3938 49.275H19.8063C19.9721 49.275 20.131 49.2091 20.2482 49.0919C20.3655 48.9747 20.4313 48.8158 20.4313 48.65V45.8125C20.4313 45.6467 20.3655 45.4878 20.2482 45.3706C20.131 45.2533 19.9721 45.1875 19.8063 45.1875H17.3938C17.228 45.1875 17.0691 45.2533 16.9519 45.3706C16.8346 45.4878 16.7688 45.6467 16.7688 45.8125V48.65C16.7688 48.8158 16.8346 48.9747 16.9519 49.0919C17.0691 49.2091 17.228 49.275 17.3938 49.275ZM18.0188 46.4375H19.1813V48.025H18.0188V46.4375Z" fill="#0F3E84"/>
<path d="M21.9625 49.275H24.375C24.5408 49.275 24.6998 49.2091 24.817 49.0919C24.9342 48.9747 25 48.8158 25 48.65V45.8125C25 45.6467 24.9342 45.4878 24.817 45.3706C24.6998 45.2533 24.5408 45.1875 24.375 45.1875H21.9625C21.7968 45.1875 21.6378 45.2533 21.5206 45.3706C21.4034 45.4878 21.3375 45.6467 21.3375 45.8125V48.65C21.3375 48.8158 21.4034 48.9747 21.5206 49.0919C21.6378 49.2091 21.7968 49.275 21.9625 49.275ZM22.5875 46.4375H23.75V48.025H22.5875V46.4375Z" fill="#0F3E84"/>
<path d="M12.8251 49.275H15.2376C15.4033 49.275 15.5623 49.2091 15.6795 49.0919C15.7967 48.9747 15.8626 48.8158 15.8626 48.65V45.8125C15.8626 45.6467 15.7967 45.4878 15.6795 45.3706C15.5623 45.2533 15.4033 45.1875 15.2376 45.1875H12.8251C12.6593 45.1875 12.5003 45.2533 12.3831 45.3706C12.2659 45.4878 12.2001 45.6467 12.2001 45.8125V48.65C12.2001 48.8158 12.2659 48.9747 12.3831 49.0919C12.5003 49.2091 12.6593 49.275 12.8251 49.275ZM13.4501 46.4375H14.6126V48.025H13.4501V46.4375Z" fill="#0F3E84"/>
<path d="M8.25623 49.275H10.6687C10.8345 49.275 10.9935 49.2091 11.1107 49.0919C11.2279 48.9747 11.2937 48.8158 11.2937 48.65V45.8125C11.2937 45.6467 11.2279 45.4878 11.1107 45.3706C10.9935 45.2533 10.8345 45.1875 10.6687 45.1875H8.25623C8.09047 45.1875 7.93149 45.2533 7.81428 45.3706C7.69707 45.4878 7.63123 45.6467 7.63123 45.8125V48.65C7.63123 48.8158 7.69707 48.9747 7.81428 49.0919C7.93149 49.2091 8.09047 49.275 8.25623 49.275ZM8.88123 46.4375H10.0437V48.025H8.88123V46.4375Z" fill="#0F3E84"/>
<path d="M8.25623 37.5689H10.6687C10.8345 37.5689 10.9935 37.5031 11.1107 37.3859C11.2279 37.2687 11.2937 37.1097 11.2937 36.9439V34.1064C11.2937 33.9407 11.2279 33.7817 11.1107 33.6645C10.9935 33.5473 10.8345 33.4814 10.6687 33.4814H8.25623C8.09047 33.4814 7.93149 33.5473 7.81428 33.6645C7.69707 33.7817 7.63123 33.9407 7.63123 34.1064V36.9439C7.63123 37.1097 7.69707 37.2687 7.81428 37.3859C7.93149 37.5031 8.09047 37.5689 8.25623 37.5689ZM8.88123 34.7314H10.0437V36.3189H8.88123V34.7314Z" fill="#0F3E84"/>
<path d="M8.25623 31.7125H10.6687C10.8345 31.7125 10.9935 31.6467 11.1107 31.5294C11.2279 31.4122 11.2937 31.2533 11.2937 31.0875V28.25C11.2937 28.0842 11.2279 27.9253 11.1107 27.8081C10.9935 27.6908 10.8345 27.625 10.6687 27.625H8.25623C8.09047 27.625 7.93149 27.6908 7.81428 27.8081C7.69707 27.9253 7.63123 28.0842 7.63123 28.25V31.0875C7.63123 31.2533 7.69707 31.4122 7.81428 31.5294C7.93149 31.6467 8.09047 31.7125 8.25623 31.7125ZM8.88123 28.875H10.0437V30.4625H8.88123V28.875Z" fill="#0F3E84"/>
<path d="M5.03748 17.5938V20.1313C5.03913 20.4999 5.1867 20.8528 5.4479 21.1128C5.7091 21.3728 6.06266 21.5188 6.43123 21.5188H53.8062C54.1737 21.5172 54.5257 21.3704 54.7855 21.1106C55.0454 20.8507 55.1921 20.4988 55.1937 20.1313V17.5938C55.1921 17.2263 55.0454 16.8744 54.7855 16.6145C54.5257 16.3547 54.1737 16.2079 53.8062 16.2063H6.43123C6.06266 16.2063 5.7091 16.3523 5.4479 16.6123C5.1867 16.8723 5.03913 17.2252 5.03748 17.5938ZM53.9437 17.5938V20.1313C53.9437 20.1678 53.9292 20.2027 53.9035 20.2285C53.8777 20.2543 53.8427 20.2688 53.8062 20.2688H6.43123C6.41265 20.2696 6.3941 20.2667 6.37669 20.2602C6.35927 20.2537 6.34337 20.2437 6.32993 20.2308C6.31649 20.218 6.3058 20.2025 6.29851 20.1854C6.29121 20.1683 6.28746 20.1499 6.28748 20.1313V17.5938C6.28746 17.5752 6.29121 17.5568 6.29851 17.5397C6.3058 17.5226 6.31649 17.5071 6.32993 17.4943C6.34337 17.4814 6.35927 17.4714 6.37669 17.4649C6.3941 17.4584 6.41265 17.4555 6.43123 17.4563H53.8062C53.8427 17.4563 53.8777 17.4708 53.9035 17.4966C53.9292 17.5224 53.9437 17.5573 53.9437 17.5938Z" fill="#0F3E84"/>
<path d="M51.1438 24.3125H32.0312C31.8655 24.3125 31.7065 24.3783 31.5893 24.4956C31.4721 24.6128 31.4062 24.7717 31.4062 24.9375C31.4062 25.1033 31.4721 25.2622 31.5893 25.3794C31.7065 25.4967 31.8655 25.5625 32.0312 25.5625H51.1438C51.3095 25.5625 51.4685 25.4967 51.5857 25.3794C51.7029 25.2622 51.7688 25.1033 51.7688 24.9375C51.7688 24.7717 51.7029 24.6128 51.5857 24.4956C51.4685 24.3783 51.3095 24.3125 51.1438 24.3125Z" fill="#0F3E84"/>
<path d="M51.1438 27.625H32.0312C31.8655 27.625 31.7065 27.6908 31.5893 27.8081C31.4721 27.9253 31.4062 28.0842 31.4062 28.25C31.4062 28.4158 31.4721 28.5747 31.5893 28.6919C31.7065 28.8092 31.8655 28.875 32.0312 28.875H51.1438C51.3095 28.875 51.4685 28.8092 51.5857 28.6919C51.7029 28.5747 51.7688 28.4158 51.7688 28.25C51.7688 28.0842 51.7029 27.9253 51.5857 27.8081C51.4685 27.6908 51.3095 27.625 51.1438 27.625Z" fill="#0F3E84"/>
<path d="M51.1438 30.9375H32.0312C31.8655 30.9375 31.7065 31.0033 31.5893 31.1206C31.4721 31.2378 31.4062 31.3967 31.4062 31.5625C31.4062 31.7283 31.4721 31.8872 31.5893 32.0044C31.7065 32.1217 31.8655 32.1875 32.0312 32.1875H51.1438C51.3095 32.1875 51.4685 32.1217 51.5857 32.0044C51.7029 31.8872 51.7688 31.7283 51.7688 31.5625C51.7688 31.3967 51.7029 31.2378 51.5857 31.1206C51.4685 31.0033 51.3095 30.9375 51.1438 30.9375Z" fill="#0F3E84"/>
<path d="M51.1438 34.25H32.0312C31.8655 34.25 31.7065 34.3158 31.5893 34.4331C31.4721 34.5503 31.4062 34.7092 31.4062 34.875C31.4062 35.0408 31.4721 35.1997 31.5893 35.3169C31.7065 35.4342 31.8655 35.5 32.0312 35.5H51.1438C51.3095 35.5 51.4685 35.4342 51.5857 35.3169C51.7029 35.1997 51.7688 35.0408 51.7688 34.875C51.7688 34.7092 51.7029 34.5503 51.5857 34.4331C51.4685 34.3158 51.3095 34.25 51.1438 34.25Z" fill="#0F3E84"/>
<path d="M51.1438 37.5625H32.0312C31.8655 37.5625 31.7065 37.6283 31.5893 37.7456C31.4721 37.8628 31.4062 38.0217 31.4062 38.1875C31.4062 38.3533 31.4721 38.5122 31.5893 38.6294C31.7065 38.7467 31.8655 38.8125 32.0312 38.8125H51.1438C51.3095 38.8125 51.4685 38.7467 51.5857 38.6294C51.7029 38.5122 51.7688 38.3533 51.7688 38.1875C51.7688 38.0217 51.7029 37.8628 51.5857 37.7456C51.4685 37.6283 51.3095 37.5625 51.1438 37.5625Z" fill="#0F3E84"/>
<path d="M32.0312 42.1313H38.2812C38.447 42.1313 38.606 42.0655 38.7232 41.9483C38.8404 41.8311 38.9062 41.6721 38.9062 41.5063C38.9062 41.3406 38.8404 41.1816 38.7232 41.0644C38.606 40.9472 38.447 40.8813 38.2812 40.8813H32.0312C31.8655 40.8813 31.7065 40.9472 31.5893 41.0644C31.4721 41.1816 31.4062 41.3406 31.4062 41.5063C31.4062 41.6721 31.4721 41.8311 31.5893 41.9483C31.7065 42.0655 31.8655 42.1313 32.0312 42.1313Z" fill="#0F3E84"/>
<path d="M51.1438 44.2563H32.0312C31.8655 44.2563 31.7065 44.3222 31.5893 44.4394C31.4721 44.5566 31.4062 44.7156 31.4062 44.8813V48.6313C31.4062 48.7971 31.4721 48.9561 31.5893 49.0733C31.7065 49.1905 31.8655 49.2563 32.0312 49.2563H51.1438C51.3095 49.2563 51.4685 49.1905 51.5857 49.0733C51.7029 48.9561 51.7688 48.7971 51.7688 48.6313V44.8813C51.7688 44.7156 51.7029 44.5566 51.5857 44.4394C51.4685 44.3222 51.3095 44.2563 51.1438 44.2563ZM50.5188 48.0063H32.6562V45.5063H50.5188V48.0063Z" fill="#0F3E84"/>
</svg>
