<svg width="20" height="20" viewBox="0 0 20 20" fill="none" xmlns="http://www.w3.org/2000/svg">
<path d="M19.7073 0.29325C19.3162 -0.09775 18.6842 -0.09775 18.2932 0.29325L10.0003 8.58625L1.70725 0.29325C1.31625 -0.09775 0.68425 -0.09775 0.29325 0.29325C-0.09775 0.68425 -0.09775 1.31625 0.29325 1.70725L8.58625 10.0003L0.29325 18.2932C-0.09775 18.6842 -0.09775 19.3162 0.29325 19.7073C0.48825 19.9023 0.744251 20.0002 1.00025 20.0002C1.25625 20.0002 1.51225 19.9023 1.70725 19.7073L10.0003 11.4143L18.2932 19.7073C18.4882 19.9023 18.7442 20.0002 19.0002 20.0002C19.2563 20.0002 19.5123 19.9023 19.7073 19.7073C20.0983 19.3162 20.0983 18.6842 19.7073 18.2932L11.4143 10.0003L19.7073 1.70725C20.0983 1.31625 20.0983 0.68425 19.7073 0.29325Z" fill="#0F3E84"/>
</svg>
