<svg width="132" height="72" viewBox="0 0 132 72" fill="none" xmlns="http://www.w3.org/2000/svg">
<path d="M4.95621 55.3264C5.94745 55.3264 7.10389 55.4915 8.42554 55.4915C9.08637 55.4915 9.7472 55.4915 10.408 55.4915C11.0688 55.4915 11.7297 55.4915 12.3905 55.4915C13.0513 55.4915 13.7122 55.4915 14.373 55.4915C15.0338 55.4915 15.6946 55.4915 16.3555 55.4915C17.6771 55.4915 18.8336 55.3264 19.8248 55.3264C21.8073 55.1612 23.2941 54.9961 23.2941 54.9961C23.2941 54.9961 21.9725 54.8309 19.8248 54.6658C18.8336 54.6658 17.6771 54.5006 16.3555 54.5006C15.6946 54.5006 15.0338 54.5006 14.373 54.5006C13.7122 54.5006 13.0513 54.5006 12.3905 54.5006C11.7297 54.5006 11.0688 54.5006 10.408 54.5006C9.7472 54.5006 9.08637 54.5006 8.42554 54.5006C7.10389 54.5006 5.94745 54.6658 4.95621 54.6658C4.791 54.6658 4.791 54.6658 4.62579 54.6658C4.62579 54.8309 4.791 54.9961 4.791 55.3264C4.791 55.3264 4.791 55.3264 4.95621 55.3264Z" fill="#FFEB6C"/>
<path d="M24.781 30.2229L23.6245 65.2352H17.6771V66.5564C17.1815 66.5564 16.8511 66.5564 16.3554 66.5564C15.6946 66.5564 15.0338 66.5564 14.373 66.5564C13.7121 66.5564 13.0513 66.5564 12.3905 66.5564C11.7297 66.5564 11.0688 66.5564 10.408 66.5564C9.74718 66.5564 9.08636 66.5564 8.42553 66.5564C8.09512 66.5564 7.76471 66.5564 7.43429 66.5564C7.5995 66.8867 7.5995 67.217 7.76471 67.5473C7.92991 67.5473 8.26033 67.5473 8.42553 67.5473C9.08636 67.5473 9.74718 67.5473 10.408 67.5473C11.0688 67.5473 11.7297 67.5473 12.3905 67.5473C12.8861 67.5473 13.5469 67.5473 14.0426 67.5473V69.8595H8.42553C8.59074 70.1898 8.59074 70.6852 8.75595 71.0155H14.0426H34.0325H64.4305H96.9762H114.819H123.244C123.409 70.6852 123.409 70.1898 123.574 69.8595H117.957V67.7125C118.453 67.7125 118.783 67.7125 119.279 67.7125C119.94 67.7125 121.922 67.7125 122.583 67.7125C123.244 67.7125 123.74 67.7125 124.401 67.7125C124.401 67.3822 124.566 67.217 124.566 66.8867C123.905 66.8867 123.244 66.8867 122.583 66.7216C121.922 66.7216 121.262 66.7216 120.601 66.7216C119.94 66.7216 119.279 66.7216 118.618 66.7216C117.957 66.7216 117.297 66.7216 116.636 66.7216C115.975 66.7216 115.314 66.7216 114.653 66.7216C113.332 66.7216 112.175 66.8867 111.184 66.8867V65.4004L110.854 55.4912C111.019 55.4912 111.019 55.4912 111.184 55.4912C112.175 55.4912 113.332 55.6564 114.653 55.6564C115.314 55.6564 115.975 55.6564 116.636 55.6564C117.297 55.6564 117.957 55.6564 118.618 55.6564C119.279 55.6564 119.94 55.6564 120.601 55.6564C121.262 55.6564 121.922 55.6564 122.583 55.6564C123.905 55.6564 125.061 55.4912 126.053 55.4912C126.548 55.4912 127.044 55.4912 127.374 55.3261C127.374 55.1609 127.374 55.1609 127.374 54.9958V54.8306C126.879 54.8306 126.383 54.8306 125.887 54.6654C124.896 54.6654 123.74 54.5003 122.418 54.5003C121.757 54.5003 121.096 54.5003 120.436 54.5003C119.775 54.5003 119.114 54.5003 118.453 54.5003C117.792 54.5003 117.131 54.5003 116.471 54.5003C115.81 54.5003 115.149 54.5003 114.488 54.5003C113.166 54.5003 112.01 54.6654 111.019 54.6654C110.854 54.6654 110.854 54.6654 110.688 54.6654V51.5276H118.123V32.2047H110.523V48.8851L109.862 30.2229H130.348V38.1502C130.513 36.9941 130.678 35.6729 130.844 34.5169C131.009 33.3608 131.174 32.2047 131.339 31.0487C131.504 29.8926 131.504 28.9017 131.67 27.7456C131.67 27.5805 131.67 27.4153 131.67 27.2501C131.835 26.2592 131.835 25.1032 132 24.1123H110.523V15.0289H112.01V12.5516L97.3066 8.58793L95.8198 8.25762L64.4305 0L47.7447 4.45912L46.423 4.78942L17.3467 12.5516V15.194H18.8335V24.2774H0C0.165207 25.2683 0.165207 26.0941 0.330413 27.085C0.330413 27.2501 0.330413 27.4153 0.330413 27.5805C0.49562 28.5714 0.49562 29.3971 0.660826 30.388H24.781V30.2229ZM114.653 33.3608H116.966V41.7836L114.488 41.6184L114.653 33.3608ZM114.488 41.9487L116.966 41.7836V50.3715H114.323L114.488 41.9487ZM111.68 33.3608H113.992L114.158 41.7836L111.68 41.6184V33.3608ZM111.68 42.1139L114.158 41.9487L114.323 50.3715H111.68V42.1139ZM114.488 28.5714C114.653 28.5714 114.653 28.5714 114.819 28.5714C115.479 28.5714 116.14 28.5714 116.801 28.5714C117.462 28.5714 118.123 28.5714 118.783 28.5714C119.444 28.5714 120.105 28.5714 120.766 28.5714C121.427 28.5714 122.088 28.5714 122.748 28.5714C124.07 28.5714 125.227 28.4062 126.218 28.4062C128.2 28.2411 129.687 28.0759 129.687 28.0759C129.687 28.0759 128.365 27.9108 126.218 27.7456C125.227 27.7456 124.07 27.5805 122.748 27.5805C122.088 27.5805 121.427 27.5805 120.766 27.5805C120.105 27.5805 119.444 27.5805 118.783 27.5805C118.123 27.5805 117.462 27.5805 116.801 27.5805C116.14 27.5805 115.479 27.5805 114.819 27.5805C114.653 27.5805 114.653 27.5805 114.488 27.5805V27.085C114.653 27.085 114.653 27.085 114.819 27.085C115.479 27.085 116.14 27.085 116.801 27.085C117.462 27.085 118.123 27.085 118.783 27.085C119.444 27.085 120.105 27.085 120.766 27.085C121.427 27.085 122.088 27.085 122.748 27.085C124.07 27.085 125.227 26.9198 126.218 26.9198C128.2 26.7547 129.687 26.5895 129.687 26.5895C129.687 26.5895 128.365 26.4244 126.218 26.2592C125.227 26.2592 124.07 26.0941 122.748 26.0941C122.088 26.0941 121.427 26.0941 120.766 26.0941C120.105 26.0941 119.444 26.0941 118.783 26.0941C118.123 26.0941 117.462 26.0941 116.801 26.0941C116.14 26.0941 115.479 26.0941 114.819 26.0941C114.653 26.0941 114.653 26.0941 114.488 26.0941V25.2683H130.348V29.0668H114.488V28.5714ZM25.2766 28.9017C26.1026 28.9017 28.0851 28.9017 29.4068 28.9017L30.5632 65.2352H27.9199H24.2854L25.2766 28.9017ZM19.99 15.194H108.541V24.4426H19.99V15.194ZM95.6546 37.6548H97.8023L96.9762 63.7488L95.6546 37.6548ZM104.576 27.2501H97.3066V26.0941H100.941H104.576V26.2592L97.8023 26.7547L104.576 27.2501ZM98.4631 28.9017C99.2891 28.9017 101.272 28.9017 102.593 28.9017L103.75 65.2352H101.106H97.4718L98.4631 28.9017ZM103.584 35.8381C103.584 34.3517 103.584 33.0305 103.584 32.0396C103.584 31.0487 103.584 30.5532 103.584 30.5532C103.584 30.5532 103.584 31.0487 103.75 32.0396C103.75 32.8653 103.915 34.1866 103.915 35.8381C104.08 37.3244 104.08 39.1411 104.245 41.123C104.411 43.1048 104.411 45.0866 104.576 47.2336C104.576 49.3806 104.741 51.3624 104.741 53.3442C104.741 55.3261 104.906 57.1427 104.906 58.6291C104.906 60.1155 104.906 61.4367 104.906 62.4276C104.906 63.4185 104.906 63.914 104.906 63.914C104.906 63.914 104.906 63.4185 104.741 62.4276C104.741 61.6019 104.576 60.2806 104.576 58.6291C104.411 57.1427 104.411 55.3261 104.245 53.3442C104.08 51.3624 104.08 49.3806 103.915 47.2336C103.915 45.0866 103.75 43.1048 103.75 41.123C103.75 39.1411 103.75 37.3244 103.584 35.8381ZM86.5682 60.9412V57.6382L89.8723 57.473L89.7071 61.1064L86.5682 60.9412ZM89.7071 61.6019L89.5419 64.0791H86.5682V61.6019H89.7071ZM86.5682 56.8124V53.5094L89.7071 53.3442L89.8723 56.9776L86.5682 56.8124ZM89.7071 49.2154L89.8723 52.8488L86.7334 52.6836V49.3806L89.7071 49.2154ZM86.5682 48.5548V45.9124H89.5419L89.7071 48.72L86.5682 48.5548ZM85.0814 44.426V64.4094C84.5857 64.4094 84.0901 64.4094 83.4293 64.4094L82.6032 38.8108C83.2641 38.8108 83.7597 38.8108 84.2553 38.8108C87.0638 38.6457 89.2115 38.6457 90.8636 38.4805L90.5332 44.426H85.0814ZM84.2553 37.8199C83.7597 37.8199 83.0989 37.8199 82.438 37.8199H90.8636V38.1502C89.3767 37.9851 87.0638 37.8199 84.2553 37.8199ZM72.5257 62.7579L71.3692 38.976C72.03 38.976 72.6909 38.976 73.3517 38.976L72.5257 62.7579ZM80.2904 27.2501H73.0213V26.0941H76.6558H80.2904V26.2592L73.5169 26.7547L80.2904 27.2501ZM74.1777 28.9017C75.0038 28.9017 76.9862 28.9017 78.3079 28.9017L79.4643 65.2352H76.821H73.1865L74.1777 28.9017ZM79.1339 35.8381C79.1339 34.3517 79.1339 33.0305 79.1339 32.0396C79.1339 31.0487 79.1339 30.5532 79.1339 30.5532C79.1339 30.5532 79.1339 31.0487 79.2991 32.0396C79.2991 32.8653 79.4643 34.1866 79.4643 35.8381C79.4643 37.3244 79.6295 39.1411 79.7947 41.123C79.9599 43.1048 79.9599 45.0866 80.1252 47.2336C80.1252 49.3806 80.2904 51.3624 80.2904 53.3442C80.2904 55.3261 80.4556 57.1427 80.4556 58.6291C80.4556 60.1155 80.4556 61.4367 80.4556 62.4276C80.4556 63.4185 80.4556 63.914 80.4556 63.914C80.4556 63.914 80.4556 63.4185 80.2904 62.4276C80.2904 61.6019 80.1252 60.2806 80.1252 58.6291C79.9599 57.1427 79.9599 55.3261 79.7947 53.3442C79.6295 51.3624 79.6295 49.3806 79.4643 47.2336C79.4643 45.0866 79.2991 43.1048 79.2991 41.123C79.2991 39.1411 79.2991 37.3244 79.1339 35.8381ZM66.2478 44.426H60.4656V63.914C60.1352 63.914 59.6395 63.914 59.3091 63.914L58.4831 39.1411C58.6483 39.1411 58.8135 39.1411 59.1439 39.1411C60.9612 39.1411 62.7785 39.1411 64.5957 39.1411C65.2566 39.1411 66.0826 39.1411 66.7434 39.1411L66.2478 44.426ZM65.7522 52.8488L65.9174 49.0503H66.0826L65.7522 52.8488ZM65.9174 48.72L66.0826 45.9124H66.2478L65.9174 48.72ZM61.9524 60.9412V57.6382L65.2566 57.473L65.4218 61.1064V61.2715L61.9524 60.9412ZM65.4218 61.6019L65.2566 63.914C64.9262 63.914 64.5957 63.914 64.4305 63.914C63.6045 63.914 62.7785 63.914 61.9524 63.914V61.767L65.4218 61.6019ZM65.0914 49.2154L65.2566 52.8488L62.1176 52.6836V49.3806L65.0914 49.2154ZM61.9524 48.5548V45.9124H64.9262L65.0914 48.72L61.9524 48.5548ZM65.2566 53.3442L65.4218 56.9776L62.1176 56.8124V53.5094L65.2566 53.3442ZM55.8398 27.2501H48.5707V26.0941H52.2053H55.8398V26.2592L49.0663 26.7547L55.8398 27.2501ZM48.9011 38.8108L48.2403 61.6019L47.0839 38.6457C47.5795 38.8108 48.2403 38.8108 48.9011 38.8108ZM49.7272 28.9017C50.5532 28.9017 52.5357 28.9017 53.8573 28.9017L55.0138 65.2352H52.3705H48.7359L49.7272 28.9017ZM54.8486 35.1775C54.8486 33.5259 54.8486 32.2047 54.8486 31.2138C54.8486 30.2229 54.8486 29.7274 54.8486 29.7274C54.8486 29.7274 54.8486 30.2229 55.0138 31.2138C55.0138 32.2047 55.179 33.5259 55.3442 35.1775C55.5094 36.829 55.5094 38.6457 55.6746 40.7926C55.8398 42.7745 55.8398 45.0866 56.005 47.2336C56.005 49.3806 56.1702 51.5276 56.1702 53.6745C56.1702 55.6564 56.3354 57.6382 56.3354 59.2897C56.3354 60.9412 56.3354 62.2625 56.3354 63.2534C56.3354 64.2443 56.3354 64.7397 56.3354 64.7397C56.3354 64.7397 56.3354 64.2443 56.1702 63.2534C56.1702 62.2625 56.005 60.9412 55.8398 59.2897C55.6746 57.6382 55.6746 55.8215 55.5094 53.6745C55.3442 51.6927 55.3442 49.3806 55.179 47.2336C55.179 45.0866 55.0138 42.9396 55.0138 40.7926C55.0138 38.8108 54.8486 36.829 54.8486 35.1775ZM42.2929 38.6457L41.9625 44.426H35.8498V65.2352H34.8586L33.8673 37.6548H42.2929V37.8199C37.9975 37.9851 35.3542 38.1502 35.3542 38.1502C35.3542 38.1502 37.9975 38.4805 42.2929 38.6457ZM40.3104 49.2154L40.4756 52.8488L37.3367 52.6836V49.3806L40.3104 49.2154ZM37.3367 48.5548V45.9124H40.3104L40.4756 48.72L37.3367 48.5548ZM40.4756 53.3442L40.6408 56.9776L37.3367 56.8124V53.5094L40.4756 53.3442ZM40.6408 57.473L40.806 61.1064L37.3367 60.9412V57.6382L40.6408 57.473ZM40.806 61.6019H41.1364L40.9712 64.2443H37.3367V61.767L40.806 61.6019ZM40.806 61.1064L40.9712 57.473H41.3016L41.1364 61.1064H40.806ZM40.9712 56.9776L41.1364 53.3442H41.632L41.3016 56.9776H40.9712ZM41.1364 52.8488L41.3016 49.0503H41.7972L41.4668 52.8488H41.1364ZM41.1364 48.72L41.3016 45.9124H41.7972L41.632 48.8851L41.1364 48.72ZM31.224 59.2897C31.0588 57.6382 31.0588 55.8215 30.8936 53.6745C30.7284 51.6927 30.7284 49.3806 30.5632 47.2336C30.5632 45.0866 30.398 42.9396 30.398 40.7926C30.398 38.8108 30.2328 36.829 30.2328 35.1775C30.2328 33.5259 30.2328 32.2047 30.2328 31.2138C30.2328 30.2229 30.2328 29.7274 30.2328 29.7274C30.2328 29.7274 30.2328 30.2229 30.398 31.2138C30.398 32.2047 30.5632 33.5259 30.7284 35.1775C30.8936 36.829 30.8936 38.6457 31.0588 40.7926C31.224 42.7745 31.224 45.0866 31.3892 47.2336C31.3892 49.3806 31.5544 51.5276 31.5544 53.6745C31.5544 55.6564 31.7197 57.6382 31.7197 59.2897C31.7197 60.9412 31.7197 62.2625 31.7197 63.2534C31.7197 64.2443 31.7197 64.7397 31.7197 64.7397C31.7197 64.7397 31.7197 64.2443 31.5544 63.2534C31.3892 62.2625 31.3892 60.9412 31.224 59.2897ZM24.2854 26.0941H27.9199H31.3892V26.2592L24.6158 26.7547L31.3892 27.2501H24.1201V26.0941H24.2854ZM113.992 67.7125V69.8595H14.8686V67.7125H113.992ZM110.358 65.8958V66.8867H18.3379V65.8958H110.358ZM64.4305 1.48637L109.532 13.3773H19.3292L64.4305 1.48637ZM0.49562 25.2683H18.3379V26.0941C17.8423 26.0941 17.1815 26.0941 16.6859 26.0941C16.025 26.0941 15.3642 26.0941 14.7034 26.0941C14.0426 26.0941 13.3817 26.0941 12.7209 26.0941C12.0601 26.0941 11.3992 26.0941 10.7384 26.0941C10.0776 26.0941 9.41677 26.0941 8.75595 26.0941C7.43429 26.0941 6.27785 26.2592 5.28661 26.2592C3.30413 26.4244 1.81727 26.5895 1.81727 26.5895C1.81727 26.5895 3.13892 26.7547 5.28661 26.9198C6.27785 26.9198 7.43429 27.085 8.75595 27.085C9.41677 27.085 10.0776 27.085 10.7384 27.085C11.3992 27.085 12.0601 27.085 12.7209 27.085C13.3817 27.085 14.0426 27.085 14.7034 27.085C15.3642 27.085 16.025 27.085 16.6859 27.085C18.0075 27.085 19.164 26.9198 20.1552 26.9198C21.1464 26.9198 21.9725 26.7547 22.6333 26.7547H23.7897V27.4153V27.5805L23.9549 27.7456L24.9462 29.0668V29.232H0.49562V25.2683Z" fill="#0E2B56"/>
<path d="M94.0025 11.3949L66.413 3.13729L64.4305 2.47668L31.0588 11.3949H94.0025ZM66.2478 4.45851C66.7434 4.45851 67.0738 4.45851 67.4042 4.45851C68.2302 4.45851 68.7259 4.62367 68.7259 4.62367C68.7259 4.62367 68.2302 4.62367 67.4042 4.78882C66.5782 4.78882 65.5869 4.95397 64.5957 4.95397L66.2478 4.45851ZM58.4831 6.6055C59.1439 6.6055 59.9699 6.6055 60.6307 6.6055C61.7872 6.6055 63.1088 6.6055 64.2653 6.6055C65.5869 6.6055 66.7434 6.6055 67.8998 6.6055C69.0563 6.6055 70.2127 6.6055 71.0388 6.77065C72.03 6.77065 72.6908 6.9358 73.3516 6.9358C72.856 6.9358 72.03 7.10095 71.0388 7.10095C70.0475 7.10095 69.0563 7.10095 67.8998 7.26611C66.7434 7.26611 65.4217 7.26611 64.2653 7.26611C62.9436 7.26611 61.7872 7.26611 60.6307 7.26611C59.4743 7.26611 58.3179 7.26611 57.4918 7.10095C57.3266 7.10095 57.3266 7.10095 57.1614 7.10095L58.4831 6.6055ZM49.8923 8.91763C50.3879 8.91763 50.7184 8.91763 51.214 8.91763C53.0312 8.91763 55.0137 8.75248 57.3266 8.75248C59.6395 8.75248 61.9524 8.75248 64.2653 8.75248C66.5782 8.75248 69.0563 8.75248 71.204 8.75248C73.5168 8.75248 75.4993 8.91763 77.3166 8.91763C79.1339 8.91763 80.6207 9.08278 81.612 9.08278C80.6207 9.08278 79.1339 9.24793 77.3166 9.24793C75.4993 9.24793 73.5168 9.41309 71.204 9.41309C68.8911 9.41309 66.5782 9.41309 64.2653 9.41309C61.9524 9.41309 59.4743 9.41309 57.3266 9.41309C55.0137 9.41309 53.0312 9.24793 51.214 9.24793C50.2227 9.24793 49.3967 9.24793 48.7359 9.24793L49.8923 8.91763Z" fill="#FFEB6C"/>
<path d="M101.106 63.4189C101.106 62.4279 101.106 61.1067 101.272 59.4552C101.272 57.8037 101.272 55.8218 101.437 53.6749C101.437 51.5279 101.437 49.3809 101.437 47.0688C101.437 44.9218 101.437 42.6096 101.437 40.4627C101.437 38.3157 101.437 36.499 101.272 34.6823C101.272 33.0308 101.272 31.5444 101.106 30.7187C101.106 31.7096 101.106 33.0308 100.941 34.6823C100.941 36.3339 100.941 38.3157 100.776 40.4627C100.776 42.6096 100.776 44.7566 100.776 47.0688C100.776 49.2157 100.776 51.5279 100.776 53.6749C100.776 55.8218 100.776 57.6385 100.941 59.4552C100.941 61.1067 100.941 62.5931 101.106 63.4189Z" fill="#FFEB6C"/>
<path d="M100.115 30.8837C100.115 31.8746 99.9499 33.1958 99.9499 34.8474C99.9499 36.4989 99.7847 38.4807 99.7847 40.6277C99.7847 42.7747 99.7847 44.9217 99.6195 47.2338C99.6195 49.3808 99.6195 51.6929 99.6195 53.8399C99.6195 55.9869 99.6195 57.8036 99.6195 59.6202C99.6195 61.2718 99.6195 62.7581 99.6195 63.5839C99.6195 62.593 99.6195 61.2718 99.7847 59.6202C99.7847 57.9687 99.9499 55.9869 99.9499 53.8399C99.9499 51.6929 99.9499 49.5459 100.115 47.2338C100.115 45.0868 100.115 42.7747 100.115 40.6277C100.115 38.4807 100.115 36.664 100.115 34.8474C100.115 33.1958 100.115 31.7095 100.115 30.8837Z" fill="#FFEB6C"/>
<path d="M101.932 47.2338C101.932 49.3808 101.932 51.6929 102.098 53.8399C102.098 55.9869 102.263 57.8036 102.263 59.6202C102.263 61.2718 102.428 62.7581 102.428 63.5839C102.428 64.5748 102.593 65.0703 102.593 65.0703C102.593 65.0703 102.593 64.5748 102.593 63.5839C102.593 62.593 102.593 61.2718 102.593 59.6202C102.593 57.9687 102.593 55.9869 102.593 53.8399C102.593 51.6929 102.593 49.5459 102.593 47.2338C102.593 45.0868 102.593 42.7747 102.428 40.6277C102.428 38.4807 102.263 36.664 102.263 34.8474C102.263 33.1958 102.098 31.7095 102.098 30.8837C102.098 29.8928 101.932 29.3973 101.932 29.3973C101.932 29.3973 101.932 29.8928 101.932 30.8837C101.932 31.8746 101.932 33.1958 101.932 34.8474C101.932 36.4989 101.932 38.4807 101.932 40.6277C101.932 42.7747 101.932 44.9217 101.932 47.2338Z" fill="#FFEB6C"/>
<path d="M76.4905 59.4552C76.4905 61.1067 76.4905 62.5931 76.6557 63.4189C76.6557 62.4279 76.6557 61.1067 76.8209 59.4552C76.8209 57.8037 76.8209 55.8218 76.9861 53.6749C76.9861 51.5279 76.9861 49.3809 76.9861 47.0688C76.9861 44.9218 76.9861 42.6096 76.9861 40.4627C76.9861 38.3157 76.9861 36.499 76.8209 34.6823C76.8209 33.0308 76.8209 31.5444 76.6557 30.7187C76.6557 31.7096 76.6557 33.0308 76.4905 34.6823C76.4905 36.3339 76.4905 38.3157 76.3253 40.4627C76.3253 42.6096 76.3253 44.7566 76.3253 47.0688C76.3253 49.2157 76.3253 51.5279 76.3253 53.6749C76.3253 55.8218 76.4905 57.8037 76.4905 59.4552Z" fill="#FFEB6C"/>
<path d="M75.1689 65.0703C75.1689 65.0703 75.1689 64.5748 75.1689 63.5839C75.1689 62.593 75.1689 61.2718 75.3341 59.6202C75.3341 57.9687 75.4994 55.9869 75.4994 53.8399C75.4994 51.6929 75.4994 49.5459 75.6646 47.2338C75.6646 45.0868 75.6646 42.7747 75.6646 40.6277C75.6646 38.4807 75.6646 36.664 75.6646 34.8474C75.6646 33.1958 75.6646 31.7095 75.6646 30.8837C75.6646 31.8746 75.4994 33.1958 75.4994 34.8474C75.4994 36.4989 75.3341 38.4807 75.3341 40.6277C75.3341 42.7747 75.3342 44.9217 75.1689 47.2338C75.1689 49.3808 75.1689 51.6929 75.1689 53.8399C75.1689 55.9869 75.1689 57.8036 75.1689 59.6202C75.1689 61.2718 75.1689 62.7581 75.1689 63.5839C75.1689 64.4097 75.1689 65.0703 75.1689 65.0703Z" fill="#FFEB6C"/>
<path d="M77.4819 47.2338C77.4819 49.3808 77.4819 51.6929 77.6471 53.8399C77.6471 55.9869 77.8123 57.8036 77.8123 59.6202C77.8123 61.2718 77.9775 62.7581 77.9775 63.5839C77.9775 64.5748 78.1427 65.0703 78.1427 65.0703C78.1427 65.0703 78.1427 64.5748 78.1427 63.5839C78.1427 62.593 78.1427 61.2718 78.1427 59.6202C78.1427 57.9687 78.1427 55.9869 78.1427 53.8399C78.1427 51.6929 78.1427 49.5459 78.1427 47.2338C78.1427 45.0868 78.1427 42.7747 77.9775 40.6277C77.9775 38.4807 77.8123 36.664 77.8123 34.8474C77.8123 33.1958 77.6471 31.7095 77.6471 30.8837C77.6471 29.8928 77.4819 29.3973 77.4819 29.3973C77.4819 29.3973 77.4819 29.8928 77.4819 30.8837C77.4819 31.8746 77.4819 33.1958 77.4819 34.8474C77.4819 36.4989 77.4819 38.4807 77.4819 40.6277C77.4819 42.7747 77.4819 44.9217 77.4819 47.2338Z" fill="#FFEB6C"/>
<path d="M52.2052 63.4189C52.2052 62.4279 52.2052 61.1067 52.3704 59.4552C52.3704 57.8037 52.3704 55.8218 52.5356 53.6749C52.5356 51.5279 52.5356 49.3809 52.5356 47.0688C52.5356 44.9218 52.5356 42.6096 52.5356 40.4627C52.5356 38.3157 52.5356 36.499 52.3704 34.6823C52.3704 33.0308 52.3704 31.5444 52.2052 30.7187C52.2052 31.7096 52.2052 33.0308 52.04 34.6823C52.04 36.3339 52.04 38.3157 51.8748 40.4627C51.8748 42.6096 51.8748 44.7566 51.8748 47.0688C51.8748 49.2157 51.8748 51.5279 51.8748 53.6749C51.8748 55.8218 51.8748 57.6385 52.04 59.4552C52.04 61.1067 52.2052 62.5931 52.2052 63.4189Z" fill="#FFEB6C"/>
<path d="M51.214 30.8837C51.214 31.8746 51.0488 33.1958 51.0488 34.8474C51.0488 36.4989 50.8836 38.4807 50.8836 40.6277C50.8836 42.7747 50.8836 44.9217 50.7184 47.2338C50.7184 49.3808 50.7184 51.6929 50.7184 53.8399C50.7184 55.9869 50.7184 57.8036 50.7184 59.6202C50.7184 61.2718 50.7184 62.7581 50.7184 63.5839C50.7184 62.593 50.7184 61.2718 50.8836 59.6202C50.8836 57.9687 51.0488 55.9869 51.0488 53.8399C51.0488 51.6929 51.0488 49.5459 51.214 47.2338C51.214 45.0868 51.214 42.7747 51.214 40.6277C51.214 38.4807 51.214 36.664 51.214 34.8474C51.214 33.1958 51.214 31.7095 51.214 30.8837Z" fill="#FFEB6C"/>
<path d="M53.1965 47.2338C53.1965 49.3808 53.1965 51.6929 53.3617 53.8399C53.3617 55.9869 53.527 57.8036 53.527 59.6202C53.527 61.2718 53.6922 62.7581 53.6922 63.5839C53.6922 64.5748 53.8574 65.0703 53.8574 65.0703C53.8574 65.0703 53.8574 64.5748 53.8574 63.5839C53.8574 62.593 53.8574 61.2718 53.8574 59.6202C53.8574 57.9687 53.8574 55.9869 53.8574 53.8399C53.8574 51.6929 53.8574 49.5459 53.8574 47.2338C53.8574 45.0868 53.8574 42.7747 53.6922 40.6277C53.6922 38.4807 53.527 36.664 53.527 34.8474C53.527 33.1958 53.3617 31.7095 53.3617 30.8837C53.3617 29.8928 53.1965 29.3973 53.1965 29.3973C53.1965 29.3973 53.1965 29.8928 53.1965 30.8837C53.1965 31.8746 53.1965 33.1958 53.1965 34.8474C53.1965 36.4989 53.1965 38.4807 53.1965 40.6277C53.0313 42.7747 53.0313 44.9217 53.1965 47.2338Z" fill="#FFEB6C"/>
<path d="M27.9199 63.4189C27.9199 62.4279 27.9199 61.1067 28.0851 59.4552C28.0851 57.8037 28.0851 55.8218 28.2503 53.6749C28.2503 51.5279 28.2503 49.3809 28.2503 47.0688C28.2503 44.9218 28.2503 42.6096 28.2503 40.4627C28.2503 38.3157 28.2503 36.499 28.0851 34.6823C28.0851 33.0308 28.0851 31.5444 27.9199 30.7187C27.9199 31.7096 27.9199 33.0308 27.7547 34.6823C27.7547 36.3339 27.7547 38.3157 27.5895 40.4627C27.5895 42.6096 27.5895 44.7566 27.5895 47.0688C27.5895 49.2157 27.5895 51.5279 27.5895 53.6749C27.5895 55.8218 27.5895 57.6385 27.7547 59.4552C27.7547 61.1067 27.7547 62.5931 27.9199 63.4189C27.9199 64.4098 27.9199 64.9052 27.9199 64.9052C27.9199 64.9052 27.7547 64.4098 27.9199 63.4189Z" fill="#FFEB6C"/>
<path d="M26.9287 30.8837C26.9287 31.8746 26.7635 33.1958 26.7635 34.8474C26.7635 36.4989 26.5983 38.4807 26.5983 40.6277C26.5983 42.7747 26.5983 44.9217 26.4331 47.2338C26.4331 49.3808 26.4331 51.6929 26.4331 53.8399C26.4331 55.9869 26.4331 57.8036 26.4331 59.6202C26.4331 61.2718 26.4331 62.7581 26.4331 63.5839C26.4331 62.593 26.4331 61.2718 26.5983 59.6202C26.5983 57.9687 26.7635 55.9869 26.7635 53.8399C26.7635 51.6929 26.7635 49.5459 26.9287 47.2338C26.9287 45.0868 26.9287 42.7747 26.9287 40.6277C26.9287 38.4807 26.9287 36.664 26.9287 34.8474C26.9287 33.1958 26.9287 31.7095 26.9287 30.8837Z" fill="#FFEB6C"/>
<path d="M28.7459 47.2338C28.7459 49.3808 28.7459 51.6929 28.9111 53.8399C28.9111 55.9869 29.0763 57.8036 29.0763 59.6202C29.0763 61.2718 29.2415 62.7581 29.2415 63.5839C29.2415 64.5748 29.4067 65.0703 29.4067 65.0703C29.4067 65.0703 29.4067 64.5748 29.4067 63.5839C29.4067 62.593 29.4067 61.2718 29.4067 59.6202C29.4067 57.9687 29.4067 55.9869 29.4067 53.8399C29.4067 51.6929 29.4067 49.5459 29.4067 47.2338C29.4067 45.0868 29.4067 42.7747 29.2415 40.6277C29.2415 38.4807 29.0763 36.664 29.0763 34.8474C29.0763 33.1958 28.9111 31.7095 28.9111 30.8837C28.9111 29.8928 28.7459 29.3973 28.7459 29.3973C28.7459 29.3973 28.7459 29.8928 28.7459 30.8837C28.7459 31.8746 28.7459 33.1958 28.7459 34.8474C28.7459 36.4989 28.7459 38.4807 28.7459 40.6277C28.7459 42.7747 28.7459 44.9217 28.7459 47.2338Z" fill="#FFEB6C"/>
<path d="M34.6934 16.3499C38.8236 16.3499 43.4494 16.5151 48.5708 16.5151C53.6922 16.5151 58.9788 16.5151 64.4306 16.5151C69.8824 16.5151 75.169 16.5151 80.2904 16.5151C85.4118 16.5151 90.0376 16.3499 94.1678 16.3499C98.2979 16.3499 101.602 16.1848 103.915 16.1848C106.228 16.1848 107.715 16.1848 107.715 16.1848C107.715 16.1848 106.393 16.1848 103.915 16.1848C101.602 16.1848 98.1327 16.0196 94.1678 16.0196C90.0376 16.0196 85.4118 15.8545 80.2904 15.8545C75.169 15.8545 69.8824 15.8545 64.4306 15.8545C58.9788 15.8545 53.6922 15.8545 48.5708 15.8545C43.4494 15.8545 38.8236 16.0196 34.6934 16.0196C30.5633 16.0196 27.2591 16.1848 24.9462 16.1848C22.6333 16.1848 21.1465 16.1848 21.1465 16.1848C21.1465 16.1848 22.4681 16.1848 24.9462 16.1848C27.2591 16.3499 30.5633 16.3499 34.6934 16.3499Z" fill="#FFEB6C"/>
<path d="M34.6934 23.6174C38.8236 23.6174 43.4494 23.7826 48.5708 23.7826C53.6922 23.7826 58.9788 23.7826 64.4306 23.7826C69.8824 23.7826 75.169 23.7826 80.2904 23.7826C85.4118 23.7826 90.0376 23.6174 94.1678 23.6174C98.2979 23.6174 101.602 23.4523 103.915 23.4523C106.228 23.4523 107.715 23.4523 107.715 23.4523C107.715 23.4523 106.393 23.4523 103.915 23.4523C101.602 23.4523 98.1327 23.2871 94.1678 23.2871C90.0376 23.2871 85.4118 23.1219 80.2904 23.1219C75.169 23.1219 69.8824 23.1219 64.4306 23.1219C58.9788 23.1219 53.6922 23.1219 48.5708 23.1219C43.4494 23.1219 38.8236 23.2871 34.6934 23.2871C30.5633 23.2871 27.2591 23.4523 24.9462 23.4523C22.6333 23.4523 21.1465 23.4523 21.1465 23.4523C21.1465 23.4523 22.4681 23.4523 24.9462 23.4523C27.2591 23.6174 30.5633 23.6174 34.6934 23.6174Z" fill="#FFEB6C"/>
<path d="M19.99 28.4056C21.9725 28.2404 23.4593 28.0753 23.4593 28.0753C23.4593 28.0753 22.1377 27.9101 19.99 27.745C18.9987 27.745 17.8423 27.5798 16.5206 27.5798C15.8598 27.5798 15.199 27.5798 14.5382 27.5798C13.8773 27.5798 13.2165 27.5798 12.5557 27.5798C11.8949 27.5798 11.234 27.5798 10.5732 27.5798C9.91238 27.5798 9.25155 27.5798 8.59073 27.5798C7.26907 27.5798 6.11263 27.745 5.12139 27.745C3.13891 27.9101 1.81726 28.0753 1.81726 28.0753C1.81726 28.0753 3.13891 28.2404 5.2866 28.4056C6.27784 28.4056 7.43428 28.5707 8.75593 28.5707C9.41676 28.5707 10.0776 28.5707 10.7384 28.5707C11.3992 28.5707 12.0601 28.5707 12.7209 28.5707C13.3817 28.5707 14.0425 28.5707 14.7034 28.5707C15.3642 28.5707 16.025 28.5707 16.6858 28.5707C17.8423 28.5707 18.9987 28.5707 19.99 28.4056Z" fill="#FFEB6C"/>
<path d="M127.705 32.2042H120.105V51.5271H127.705V32.2042ZM121.261 33.3603H123.574L123.74 41.7831L121.261 41.6179V33.3603ZM121.261 50.371V42.1134L123.74 41.9482L123.905 50.371H121.261ZM126.713 50.371H124.07L124.235 41.9482L126.713 41.7831V50.371ZM126.713 41.7831L124.235 41.6179L124.4 33.1951H126.713V41.7831Z" fill="#0E2B56"/>
<path d="M10.7384 51.5271V32.2042H3.13892V47.3982C3.30412 48.7195 3.63454 50.0407 3.96495 51.5271H10.7384ZM7.26908 33.3603H9.41676V41.7831L7.10387 41.6179L7.26908 33.3603ZM7.26908 41.9482L9.58197 41.7831V50.371H7.10387L7.26908 41.9482ZM4.29536 33.3603H6.77346L6.93867 41.7831L4.29536 41.6179V33.3603ZM4.29536 42.1134L6.93867 41.9482L7.10387 50.371H4.29536V42.1134Z" fill="#0E2B56"/>
<path d="M12.7209 32.2042V51.5271H20.3204V32.2042H12.7209ZM13.8773 33.3603H16.5206L16.6858 41.7831L14.0425 41.6179V33.3603H13.8773ZM13.8773 50.371V42.1134L16.5206 41.9482L16.6858 50.371H13.8773ZM19.1639 50.371H16.6858L16.851 41.9482L19.1639 41.7831V50.371ZM19.1639 41.7831L16.851 41.6179L17.0163 33.1951H19.1639V41.7831Z" fill="#0E2B56"/>
<path d="M25.607 17.3405V22.1299H104.906V17.3405H25.607ZM103.584 19.1571V20.8087H26.7634V20.148C57.8223 19.3223 98.1327 19.1571 103.584 19.1571Z" fill="#FFEB6C"/>
<path d="M124.566 64.7394C124.566 64.5743 124.566 64.244 124.731 63.7485C124.731 62.9228 124.896 61.9319 124.896 60.9409C124.896 59.95 124.896 58.9591 124.731 58.1334C124.731 57.803 124.731 57.4727 124.566 57.1424C124.566 57.3076 124.566 57.6379 124.401 58.1334C124.401 58.9591 124.235 59.95 124.235 60.9409C124.235 61.9319 124.235 62.9228 124.401 63.7485C124.401 64.0788 124.401 64.4091 124.566 64.7394Z" fill="#FFEB6C"/>
<path d="M119.279 57.1424C119.114 57.3076 119.114 57.6379 119.114 58.1334C119.114 58.9591 118.949 59.95 118.949 60.9409C118.949 61.9319 118.949 62.9228 119.114 63.7485C119.114 64.0788 119.114 64.4091 119.279 64.7394C119.279 64.5743 119.279 64.244 119.444 63.7485C119.444 62.9228 119.609 61.9319 119.609 60.9409C119.609 59.95 119.609 58.9591 119.444 58.1334C119.444 57.6379 119.444 57.3076 119.279 57.1424Z" fill="#FFEB6C"/>
<path d="M113.993 57.1424C113.993 56.9773 113.993 56.8121 113.993 56.8121C113.993 56.8121 113.827 56.9773 113.993 57.1424C113.827 57.3076 113.827 57.6379 113.827 58.1334C113.827 58.9591 113.662 59.95 113.662 60.9409C113.662 61.9319 113.662 62.9228 113.827 63.7485C113.827 64.0788 113.827 64.4091 113.993 64.7394C113.993 64.5743 113.993 64.244 114.158 63.7485C114.158 62.9228 114.323 61.9319 114.323 60.9409C114.323 59.95 114.323 58.9591 114.158 58.1334C113.993 57.6379 113.993 57.3076 113.993 57.1424Z" fill="#FFEB6C"/>
<path d="M16.851 64.7394C17.0162 64.5743 17.0162 64.244 17.0162 63.7485C17.0162 62.9228 17.1815 61.9319 17.1815 60.9409C17.1815 59.95 17.1815 58.9591 17.0162 58.1334C17.0162 57.803 17.0162 57.4727 16.851 57.1424C16.851 57.3076 16.851 57.6379 16.6858 58.1334C16.6858 58.9591 16.5206 59.95 16.5206 60.9409C16.5206 61.9319 16.5206 62.9228 16.6858 63.7485C16.6858 64.0788 16.851 64.4091 16.851 64.7394Z" fill="#FFEB6C"/>
<path d="M11.3992 64.7394C11.3992 64.9046 11.3992 65.0698 11.3992 65.0698C11.3992 65.0698 11.5644 64.9046 11.3992 64.7394C11.5644 64.4091 11.5644 64.0788 11.7296 63.7485C11.7296 62.9228 11.8948 61.9319 11.8948 60.9409C11.8948 59.95 11.8948 58.9591 11.7296 58.1334C11.7296 57.803 11.7296 57.4727 11.5644 57.1424C11.5644 57.3076 11.5644 57.6379 11.3992 58.1334C11.3992 58.9591 11.234 59.95 11.234 60.9409C11.234 61.9319 11.234 62.9228 11.3992 63.7485C11.3992 64.0788 11.3992 64.4091 11.3992 64.7394Z" fill="#FFEB6C"/>
<path d="M6.44305 60.9409C6.44305 59.95 6.44305 58.9591 6.27785 58.1334C6.27785 57.803 6.27785 57.4727 6.11264 57.1424C6.11264 57.3076 6.11264 57.6379 5.94743 58.1334C5.94743 58.794 5.78223 59.7849 5.78223 60.6106C5.94743 61.2712 6.11264 61.9319 6.27785 62.5925C6.44305 62.097 6.44305 61.4364 6.44305 60.9409Z" fill="#FFEB6C"/>
<path d="M6.60827 50.2059V42.2786L4.62579 50.2059H6.60827Z" fill="#FFEB6C"/>
<path d="M9.41673 50.2059V42.2786L7.26904 50.2059H9.41673Z" fill="#FFEB6C"/>
<path d="M6.60827 41.4537V33.6915L4.62579 41.4537H6.60827Z" fill="#FFEB6C"/>
<path d="M9.41673 41.4537V33.6915L7.26904 41.4537H9.41673Z" fill="#FFEB6C"/>
<path d="M16.3554 50.2059V42.2786L14.2078 50.2059H16.3554Z" fill="#FFEB6C"/>
<path d="M18.9987 42.2786L16.851 50.2059H18.9987V42.2786Z" fill="#FFEB6C"/>
<path d="M16.3554 41.4537V33.6915L14.2078 41.4537H16.3554Z" fill="#FFEB6C"/>
<path d="M18.9987 41.4537V33.6915L16.851 41.4537H18.9987Z" fill="#FFEB6C"/>
<path d="M113.992 50.2059V42.2786L111.845 50.2059H113.992Z" fill="#FFEB6C"/>
<path d="M116.636 50.2059V42.2786L114.653 50.2059H116.636Z" fill="#FFEB6C"/>
<path d="M113.992 41.4537V33.6915L111.845 41.4537H113.992Z" fill="#FFEB6C"/>
<path d="M116.636 41.4537V33.6915L114.653 41.4537H116.636Z" fill="#FFEB6C"/>
<path d="M123.574 50.2059V42.2786L121.592 50.2059H123.574Z" fill="#FFEB6C"/>
<path d="M126.383 42.2786L124.235 50.2059H126.383V42.2786Z" fill="#FFEB6C"/>
<path d="M123.574 41.4537V33.6915L121.592 41.4537H123.574Z" fill="#FFEB6C"/>
<path d="M126.383 41.4537V33.6915L124.235 41.4537H126.383Z" fill="#FFEB6C"/>
<path d="M82.1077 68.5389C76.4906 68.5389 70.5432 68.5389 64.4306 68.5389C58.4831 68.5389 52.3705 68.5389 46.7535 68.5389C41.1364 68.5389 35.8498 68.5389 31.3893 68.7041C22.3029 68.8692 16.3555 68.8692 16.3555 68.8692C16.3555 68.8692 22.3029 68.8692 31.3893 69.0344C35.8498 69.0344 41.1364 69.0344 46.7535 69.1996C52.3705 69.1996 58.3179 69.1996 64.4306 69.1996C70.378 69.1996 76.4906 69.1996 82.1077 69.1996C87.7247 69.1996 93.0113 69.1995 97.4719 69.0344C106.558 68.8692 112.506 68.8692 112.506 68.8692C112.506 68.8692 106.558 68.8692 97.4719 68.7041C92.8461 68.5389 87.7247 68.5389 82.1077 68.5389Z" fill="#FFEB6C"/>
</svg>
