<svg width="163" height="30" viewBox="0 0 163 30" fill="none" xmlns="http://www.w3.org/2000/svg">
<path d="M16.1092 11.1532C16.1092 12.6433 15.4732 13.779 14.2012 14.5604C16.0183 15.2691 16.9269 16.6774 16.9269 18.7853C16.9269 20.7478 16.3454 22.2742 15.1824 23.3645C14.0195 24.4548 12.3749 25 10.2488 25H2.3714C2.00797 25 1.82625 24.8183 1.82625 24.4548V6.05602C1.82625 5.69258 2.00797 5.51087 2.3714 5.51087H10.1125C12.0024 5.51087 13.4743 6.01059 14.5283 7.01003C15.5822 7.9913 16.1092 9.37235 16.1092 11.1532ZM7.14147 20.339H9.75819C10.2852 20.339 10.7031 20.1936 11.012 19.9028C11.321 19.5939 11.4754 19.1578 11.4754 18.5945C11.4754 17.5042 10.8394 16.959 9.56739 16.959H7.14147V20.339ZM10.685 11.453C10.685 10.5081 10.1671 10.0356 9.13127 10.0356H7.14147V12.8977H9.13127C10.1671 12.8977 10.685 12.4161 10.685 11.453ZM27.1877 10.7716H31.14C31.5035 10.7716 31.6852 10.9533 31.6852 11.3167V23.6371C31.6852 23.946 31.5489 24.155 31.2763 24.264C29.4228 25.0091 27.4693 25.3816 25.4159 25.3816C23.2353 25.3816 21.5908 24.8092 20.4823 23.6644C19.392 22.5014 18.8469 20.9114 18.8469 18.8943V11.3167C18.8469 10.9533 19.0286 10.7716 19.392 10.7716H23.3716C23.7351 10.7716 23.9168 10.9533 23.9168 11.3167V18.9761C23.9168 19.703 24.0349 20.2118 24.2711 20.5025C24.5255 20.7933 24.9071 20.9386 25.4159 20.9386C25.9429 20.9386 26.3518 20.875 26.6425 20.7478V11.3167C26.6425 10.9533 26.8242 10.7716 27.1877 10.7716ZM46.1459 20.3935C46.1459 23.7189 43.9744 25.3816 39.6314 25.3816C37.5235 25.3816 35.5973 24.7819 33.8528 23.5826C33.562 23.4009 33.5075 23.1465 33.6892 22.8194L35.2157 20.2572C35.3974 19.9301 35.6427 19.8665 35.9516 20.0664C37.1146 20.7933 38.3412 21.1567 39.6314 21.1567C40.5763 21.1567 41.0488 20.9295 41.0488 20.4753C41.0488 20.13 40.5672 19.8847 39.6041 19.7393C35.9153 19.176 34.0708 17.6132 34.0708 15.051C34.0708 13.5609 34.5978 12.4161 35.6518 11.6166C36.7239 10.7988 38.2776 10.39 40.3128 10.39C42.0391 10.39 43.7109 10.7988 45.3282 11.6166C45.6553 11.7801 45.7189 12.0345 45.519 12.3798L43.9653 14.8602C43.7836 15.1509 43.5383 15.2145 43.2294 15.051C42.3208 14.5967 41.3395 14.3696 40.2856 14.3696C39.486 14.3696 39.0862 14.5695 39.0862 14.9692C39.0862 15.1873 39.2043 15.3508 39.4406 15.4599C39.6768 15.5689 40.1947 15.687 40.9943 15.8142C42.6842 16.0868 43.9653 16.6138 44.8376 17.3951C45.7098 18.1584 46.1459 19.1578 46.1459 20.3935ZM52.6288 25H48.6764C48.313 25 48.1313 24.8183 48.1313 24.4548V11.3167C48.1313 10.9533 48.313 10.7716 48.6764 10.7716H52.6288C52.9922 10.7716 53.1739 10.9533 53.1739 11.3167V24.4548C53.1739 24.8183 52.9922 25 52.6288 25ZM53.392 6.41037C53.392 7.19175 53.1376 7.84593 52.6288 8.37291C52.1199 8.88172 51.4658 9.13612 50.6662 9.13612C49.8485 9.13612 49.1761 8.88172 48.6492 8.37291C48.1403 7.84593 47.8859 7.19175 47.8859 6.41037C47.8859 5.61081 48.1403 4.95663 48.6492 4.44782C49.158 3.93902 49.8303 3.68461 50.6662 3.68461C51.4658 3.68461 52.1199 3.93902 52.6288 4.44782C53.1376 4.95663 53.392 5.61081 53.392 6.41037ZM60.3209 25H56.3686C56.0051 25 55.8234 24.8183 55.8234 24.4548V12.1344C55.8234 11.8255 55.9597 11.6166 56.2323 11.5075C58.104 10.7625 60.0847 10.39 62.1744 10.39C64.355 10.39 65.9996 10.9715 67.108 12.1344C68.2347 13.2793 68.798 14.8602 68.798 16.8773V24.4548C68.798 24.8183 68.6163 25 68.2528 25H64.2732C63.9098 25 63.7281 24.8183 63.7281 24.4548V16.7955C63.7281 16.0686 63.6009 15.5598 63.3465 15.2691C63.0921 14.9783 62.7014 14.8329 62.1744 14.8329C61.6656 14.8329 61.2295 14.8875 60.8661 14.9965V24.4548C60.8661 24.8183 60.6843 25 60.3209 25ZM83.7456 16.3321V18.8398C83.7456 19.2032 83.5638 19.3849 83.2004 19.3849H76.0044V19.5212C76.0044 20.6842 76.6223 21.2657 77.8579 21.2657C79.0209 21.2657 80.0567 21.0113 80.9653 20.5025C81.256 20.3208 81.5014 20.3662 81.7012 20.6388L83.3367 22.8739C83.5366 23.1647 83.5093 23.4191 83.2549 23.6371C81.7467 24.8001 79.8841 25.3816 77.6671 25.3816C75.6501 25.3816 74.0237 24.8637 72.788 23.8279C71.5524 22.774 70.9345 21.293 70.9345 19.3849V16.3321C70.9345 14.3514 71.5251 12.8704 72.7063 11.8891C73.8874 10.8897 75.4865 10.39 77.5036 10.39C79.448 10.39 80.9744 10.8806 82.0828 11.8619C83.1913 12.825 83.7456 14.315 83.7456 16.3321ZM78.921 16.0323C78.921 14.942 78.4303 14.3968 77.4491 14.3968C76.486 14.3968 76.0044 14.942 76.0044 16.0323V16.4684H78.921V16.0323ZM97.7595 20.3935C97.7595 23.7189 95.588 25.3816 91.245 25.3816C89.1371 25.3816 87.2109 24.7819 85.4664 23.5826C85.1757 23.4009 85.1211 23.1465 85.3029 22.8194L86.8293 20.2572C87.011 19.9301 87.2563 19.8665 87.5652 20.0664C88.7282 20.7933 89.9548 21.1567 91.245 21.1567C92.1899 21.1567 92.6624 20.9295 92.6624 20.4753C92.6624 20.13 92.1808 19.8847 91.2177 19.7393C87.5289 19.176 85.6845 17.6132 85.6845 15.051C85.6845 13.5609 86.2114 12.4161 87.2654 11.6166C88.3375 10.7988 89.8912 10.39 91.9264 10.39C93.6527 10.39 95.3245 10.7988 96.9418 11.6166C97.2689 11.7801 97.3325 12.0345 97.1326 12.3798L95.5789 14.8602C95.3972 15.1509 95.1519 15.2145 94.843 15.051C93.9344 14.5967 92.9531 14.3696 91.8992 14.3696C91.0996 14.3696 90.6998 14.5695 90.6998 14.9692C90.6998 15.1873 90.818 15.3508 91.0542 15.4599C91.2904 15.5689 91.8083 15.687 92.6079 15.8142C94.2978 16.0868 95.5789 16.6138 96.4512 17.3951C97.3234 18.1584 97.7595 19.1578 97.7595 20.3935ZM111.575 20.3935C111.575 23.7189 109.403 25.3816 105.06 25.3816C102.952 25.3816 101.026 24.7819 99.2815 23.5826C98.9907 23.4009 98.9362 23.1465 99.118 22.8194L100.644 20.2572C100.826 19.9301 101.071 19.8665 101.38 20.0664C102.543 20.7933 103.77 21.1567 105.06 21.1567C106.005 21.1567 106.477 20.9295 106.477 20.4753C106.477 20.13 105.996 19.8847 105.033 19.7393C101.344 19.176 99.4996 17.6132 99.4996 15.051C99.4996 13.5609 100.027 12.4161 101.08 11.6166C102.153 10.7988 103.706 10.39 105.742 10.39C107.468 10.39 109.14 10.7988 110.757 11.6166C111.084 11.7801 111.148 12.0345 110.948 12.3798L109.394 14.8602C109.212 15.1509 108.967 15.2145 108.658 15.051C107.75 14.5967 106.768 14.3696 105.714 14.3696C104.915 14.3696 104.515 14.5695 104.515 14.9692C104.515 15.1873 104.633 15.3508 104.869 15.4599C105.106 15.5689 105.623 15.687 106.423 15.8142C108.113 16.0868 109.394 16.6138 110.266 17.3951C111.139 18.1584 111.575 19.1578 111.575 20.3935ZM126.289 25H114.596C114.232 25 114.051 24.8183 114.051 24.4548V6.05602C114.051 5.69258 114.232 5.51087 114.596 5.51087H118.821C119.184 5.51087 119.366 5.69258 119.366 6.05602V20.0391H126.289C126.653 20.0391 126.834 20.2208 126.834 20.5843V24.4548C126.834 24.8183 126.653 25 126.289 25ZM128.494 11.8346C130.111 10.8715 132.046 10.39 134.3 10.39C138.443 10.39 140.514 12.5797 140.514 16.959V24.046C140.514 24.3731 140.36 24.573 140.051 24.6457C138.379 25.1363 136.471 25.3816 134.327 25.3816C129.857 25.3816 127.621 23.7734 127.621 20.557C127.621 17.7949 129.593 16.4139 133.536 16.4139C134.245 16.4139 134.89 16.4593 135.472 16.5502V16.4957C135.472 15.9142 135.335 15.469 135.063 15.16C134.79 14.8511 134.29 14.6967 133.564 14.6967C132.346 14.6967 131.319 14.9056 130.483 15.3236C130.156 15.5053 129.911 15.4417 129.748 15.1328L128.494 12.4888C128.312 12.1799 128.312 11.9618 128.494 11.8346ZM132.746 20.3662C132.746 21.1113 133.264 21.4838 134.3 21.4838C134.681 21.4838 135.072 21.4474 135.472 21.3747V19.5212C135.054 19.4304 134.654 19.3849 134.272 19.3849C133.255 19.3849 132.746 19.712 132.746 20.3662ZM150.062 25H145.81C145.501 25 145.302 24.8455 145.211 24.5366L141.749 11.3712C141.694 11.1895 141.704 11.0441 141.776 10.9351C141.867 10.8261 142.012 10.7716 142.212 10.7716H146.192C146.519 10.7716 146.71 10.9351 146.764 11.2622L147.5 15.787C147.737 17.4951 147.918 18.8671 148.045 19.9028H148.154C148.354 18.1402 148.563 16.7319 148.781 15.6779L149.599 11.453C149.654 11.1259 149.844 10.9624 150.172 10.9624H154.26C154.587 10.9624 154.778 11.1259 154.833 11.453L155.65 15.6779C155.868 16.7319 156.077 18.1402 156.277 19.9028H156.386C156.513 18.8671 156.695 17.4951 156.931 15.787L157.667 11.2622C157.722 10.9351 157.913 10.7716 158.24 10.7716H162.219C162.419 10.7716 162.556 10.8261 162.628 10.9351C162.719 11.0441 162.737 11.1895 162.683 11.3712L159.221 24.5366C159.13 24.8455 158.93 25 158.621 25H154.369C154.024 25 153.824 24.8365 153.77 24.5094L152.815 20.0664C152.779 19.8847 152.716 19.5758 152.625 19.1396C152.552 18.7035 152.479 18.3128 152.407 17.9676C152.352 17.6041 152.298 17.3134 152.243 17.0953H152.189C152.134 17.3134 152.07 17.6041 151.998 17.9676C151.943 18.3128 151.871 18.7035 151.78 19.1396C151.707 19.5758 151.653 19.8847 151.616 20.0664L150.662 24.5094C150.608 24.8365 150.408 25 150.062 25Z" fill="#0E2B56"/>
<mask id="path-2-inside-1_93_1519" fill="white">
<path d="M1.28345 12.6208H16.8989V19.466H1.28345V12.6208Z"/>
</mask>
<path d="M1.28345 12.6208H16.8989V19.466H1.28345V12.6208Z" fill="#EFEFEF"/>
<path d="M1.28345 13.2626H16.8989V11.9791H1.28345V13.2626ZM16.8989 18.8243H1.28345V20.1077H16.8989V18.8243Z" fill="#FFEB6C" mask="url(#path-2-inside-1_93_1519)"/>
<mask id="path-4-inside-2_93_1519" fill="white">
<path d="M113.587 12.6208H120.432V19.466H113.587V12.6208Z"/>
</mask>
<path d="M113.587 12.6208H120.432V19.466H113.587V12.6208Z" fill="#EFEFEF"/>
<path d="M113.587 13.2626H120.432V11.9791H113.587V13.2626ZM120.432 18.8243H113.587V20.1077H120.432V18.8243Z" fill="#FFEB6C" mask="url(#path-4-inside-2_93_1519)"/>
</svg>
