<svg width="44" height="42" viewBox="0 0 44 42" fill="none" xmlns="http://www.w3.org/2000/svg">
<path d="M41.9027 31.0872L35.2646 24.4726C33.758 22.9624 31.3124 22.9595 29.8022 24.4661C29.8 24.4683 29.7979 24.4703 29.7957 24.4726L25.9924 28.2759C25.7046 28.5644 25.2511 28.6042 24.9176 28.3705C22.8359 26.9157 20.8872 25.2791 19.0944 23.4804C17.4887 21.8783 16.0116 20.1525 14.6767 18.3186C14.4348 17.9891 14.4699 17.5323 14.7594 17.2437L18.6573 13.3458C20.1622 11.838 20.1622 9.3966 18.6573 7.8888L12.0191 1.25061C10.4894 -0.211792 8.07993 -0.211792 6.55025 1.25061L4.4478 3.35306C1.27259 6.49256 0.139076 11.1543 1.51843 15.4011C2.54771 18.5082 4.00264 21.4576 5.84154 24.1654C7.49704 26.6478 9.3963 28.9586 11.5112 31.0635C13.8105 33.3793 16.3574 35.435 19.1061 37.1939C22.1278 39.1657 25.4456 40.6411 28.9335 41.5642C29.8302 41.7852 30.7504 41.8963 31.6738 41.8949C34.8396 41.8755 37.8684 40.6012 40.0957 38.3513L41.9029 36.5441C43.4076 35.0365 43.4076 32.595 41.9027 31.0872ZM40.2301 34.9332C40.2286 34.9347 40.227 34.9364 40.2254 34.9379L40.2371 34.9025L38.4299 36.7097C36.1079 39.061 32.7262 40.0284 29.512 39.261C26.2737 38.3942 23.1952 37.0145 20.3933 35.1742C17.7902 33.5105 15.3778 31.5657 13.1999 29.3745C11.196 27.3853 9.39574 25.2011 7.82551 22.8544C6.108 20.3294 4.74858 17.5787 3.78588 14.6806C2.68226 11.2761 3.5968 7.54025 6.14828 5.03043L8.25074 2.92798C8.83528 2.3408 9.78512 2.33873 10.3722 2.92327C10.3737 2.92479 10.3753 2.92632 10.3769 2.92798L17.015 9.56616C17.6022 10.1507 17.6043 11.1005 17.0198 11.6876C17.0182 11.6891 17.0167 11.6906 17.015 11.6923L13.1172 15.5902C11.9987 16.6964 11.8581 18.4544 12.7865 19.7244C14.1963 21.6592 15.7564 23.4798 17.4522 25.1696C19.3428 27.0685 21.3982 28.7958 23.5943 30.3314C24.8632 31.2165 26.5834 31.0673 27.6811 29.9771L31.449 26.1501C32.0336 25.5629 32.9834 25.5608 33.5704 26.1454C33.572 26.1469 33.5735 26.1484 33.5751 26.1501L40.2252 32.8119C40.8125 33.3963 40.8146 34.346 40.2301 34.9332Z" fill="#0F3E84"/>
</svg>
